<svg width="133" height="33" viewBox="0 0 133 33" fill="none" xmlns="http://www.w3.org/2000/svg">
<g clip-path="url(#clip0_130_1020)">
<g clip-path="url(#clip1_130_1020)">
<g clip-path="url(#clip2_130_1020)">
<g clip-path="url(#clip3_130_1020)">
<path d="M27.8957 8.3722L15.2378 1.05911C15.0615 0.954576 14.8602 0.899414 14.6552 0.899414C14.4502 0.899414 14.249 0.954576 14.0727 1.05911L1.4139 8.3722C1.23601 8.47558 1.08821 8.62364 0.985147 8.80172C0.882082 8.9798 0.827323 9.18171 0.826294 9.38746L0.826294 24.0027C0.826294 24.4194 1.05107 24.8041 1.4139 25.0179L14.0727 32.3302C14.4355 32.544 14.8851 32.544 15.2378 32.3302L27.8957 25.007C28.2594 24.7932 28.4833 24.4084 28.4833 23.9917V9.37735C28.4833 8.9598 28.2594 8.57508 27.8957 8.3722ZM25.3727 22.356C25.3727 22.6768 25.2018 22.9756 24.924 23.1364L15.109 28.8029C14.8312 28.9628 14.4784 28.9628 14.2006 28.8029L4.38644 23.1364C4.24989 23.057 4.13658 22.9431 4.05784 22.8062C3.9791 22.6692 3.93769 22.514 3.93774 22.356V11.0232C3.93774 10.7024 4.10864 10.4036 4.38644 10.2428L14.2006 4.57717C14.4784 4.41638 14.8312 4.41638 15.109 4.57717L24.924 10.2428C25.2018 10.4036 25.3727 10.7024 25.3727 11.0232V22.356Z" fill="#163E6C"/>
<path d="M13.1955 15.9634C13.193 15.9261 13.1984 15.8888 13.2111 15.8537C13.2239 15.8187 13.2438 15.7866 13.2696 15.7596C13.2933 15.7356 13.3217 15.7166 13.3529 15.7038C13.3841 15.6909 13.4176 15.6844 13.4514 15.6847H18.0378C18.0717 15.6834 18.1055 15.6894 18.1369 15.7023C18.1682 15.7152 18.1965 15.7348 18.2196 15.7596C18.2625 15.8135 18.2945 15.8775 18.2945 15.9634V17.2564C18.296 17.292 18.2902 17.3275 18.2773 17.3607C18.2644 17.3939 18.2447 17.424 18.2196 17.4492C18.1977 17.4762 18.1699 17.4979 18.1385 17.5126C18.107 17.5274 18.0725 17.5348 18.0378 17.5342H13.4623C13.3874 17.5342 13.3344 17.5023 13.2805 17.4492C13.2331 17.3961 13.2064 17.3276 13.2056 17.2564V15.9634H13.1955ZM10.3938 10.8525C10.392 10.8031 10.4005 10.7537 10.4189 10.7078C10.4374 10.6618 10.4652 10.6202 10.5007 10.5857C10.5354 10.5501 10.5772 10.5223 10.6233 10.5039C10.6694 10.4854 10.7188 10.4769 10.7685 10.4788H18.5513C18.6582 10.4788 18.7441 10.5108 18.8181 10.5857C18.8537 10.6202 18.8815 10.6618 18.8999 10.7078C18.9184 10.7537 18.9269 10.8031 18.9251 10.8525V12.0505C18.9269 12.1 18.9184 12.1493 18.8999 12.1953C18.8815 12.2412 18.8537 12.2828 18.8181 12.3174C18.7837 12.353 18.7421 12.3809 18.6961 12.3993C18.6501 12.4177 18.6008 12.4262 18.5513 12.4243H12.3402V22.5382C12.3419 22.5876 12.3333 22.6369 12.3149 22.6829C12.2965 22.7288 12.2687 22.7704 12.2333 22.805C12.2022 22.8393 12.1643 22.8666 12.1219 22.885C12.0795 22.9034 12.0337 22.9126 11.9874 22.9119H10.7685C10.7188 22.9138 10.6694 22.9053 10.6233 22.8869C10.5772 22.8684 10.5354 22.8406 10.5007 22.805C10.4651 22.7706 10.4372 22.729 10.4188 22.683C10.4004 22.637 10.3919 22.5877 10.3938 22.5382V10.8525Z" fill="#0B92F0"/>
<path d="M38.1056 15.8028C38.1056 15.7279 38.1266 15.6639 38.1805 15.6109C38.202 15.5869 38.2284 15.5678 38.2579 15.5549C38.2873 15.542 38.3192 15.5355 38.3514 15.536H42.681C42.7133 15.5355 42.7453 15.542 42.7749 15.5549C42.8046 15.5678 42.8311 15.5869 42.8527 15.6109C42.8948 15.6639 42.9167 15.7279 42.9167 15.8028V17.0218C42.9163 17.0879 42.8938 17.1519 42.8527 17.2036C42.8329 17.2304 42.807 17.2521 42.7771 17.2668C42.7473 17.2816 42.7143 17.2891 42.681 17.2887H38.3514C38.3184 17.288 38.286 17.28 38.2564 17.2653C38.2269 17.2506 38.201 17.2295 38.1805 17.2036C38.1564 17.18 38.1373 17.1517 38.1244 17.1204C38.1115 17.0891 38.1051 17.0556 38.1056 17.0218V15.8028ZM35.4647 10.9706C35.4635 10.9253 35.4714 10.8801 35.488 10.8378C35.5047 10.7956 35.5297 10.7572 35.5615 10.7248C35.594 10.6931 35.6325 10.6683 35.6747 10.6518C35.7169 10.6353 35.762 10.6275 35.8074 10.6289H43.1516C43.2484 10.6289 43.3334 10.6608 43.3974 10.7248C43.4293 10.7572 43.4543 10.7956 43.4709 10.8378C43.4876 10.8801 43.4955 10.9253 43.4942 10.9706V12.1038C43.4956 12.1492 43.4877 12.1944 43.4711 12.2366C43.4544 12.2789 43.4294 12.3173 43.3974 12.3496C43.365 12.3814 43.3266 12.4063 43.2843 12.423C43.2421 12.4396 43.197 12.4476 43.1516 12.4464H37.2823V21.9929C37.2835 22.0382 37.2756 22.0833 37.2592 22.1255C37.2427 22.1677 37.2179 22.2062 37.1863 22.2387C37.1238 22.3006 37.0393 22.3351 36.9514 22.3347H35.8074C35.762 22.336 35.7169 22.3282 35.6747 22.3117C35.6325 22.2952 35.594 22.2704 35.5615 22.2387C35.5297 22.2064 35.5047 22.1679 35.488 22.1257C35.4714 22.0834 35.4635 22.0383 35.4647 21.9929V10.9706ZM47.5241 22.1747C47.4821 22.135 47.4488 22.087 47.4267 22.0336C47.4045 21.9802 47.3938 21.9227 47.3953 21.8649V11.0666C47.3953 10.9496 47.4383 10.8427 47.5241 10.7568C47.5638 10.7148 47.6119 10.6817 47.6653 10.6597C47.7187 10.6376 47.7762 10.6271 47.8339 10.6289H48.935C49.042 10.6289 49.1379 10.6709 49.2238 10.7568C49.2657 10.7965 49.2988 10.8446 49.3209 10.898C49.3429 10.9514 49.3535 11.0089 49.3518 11.0666V21.8649C49.3518 21.9828 49.3097 22.0889 49.2238 22.1747C49.1869 22.2146 49.1423 22.2465 49.0927 22.2686C49.043 22.2906 48.9894 22.3022 48.935 22.3027H47.8339C47.7763 22.3035 47.7191 22.2925 47.6659 22.2705C47.6126 22.2485 47.5644 22.2159 47.5241 22.1747ZM56.0225 11.9118C56.0225 11.7401 56.0655 11.6231 56.1404 11.5582C56.2222 11.4843 56.3299 11.4458 56.4401 11.4513C56.515 11.4513 56.6 11.4623 56.6749 11.4943C56.7384 11.5184 56.7964 11.5547 56.8458 11.6012L61.9457 16.765V11.0136C61.9435 10.8957 61.9856 10.7812 62.0636 10.6928C62.1063 10.6526 62.1568 10.6214 62.2119 10.6012C62.267 10.5809 62.3257 10.572 62.3843 10.575H63.5174C63.6134 10.575 63.7094 10.6179 63.7952 10.7038C63.8354 10.7425 63.8675 10.7889 63.8894 10.8403C63.9114 10.8916 63.9229 10.9468 63.9232 11.0026V21.9499C63.9232 22.0358 63.8702 22.1318 63.7742 22.2286C63.6774 22.3246 63.5814 22.3776 63.5065 22.3776H62.3734C62.3174 22.3773 62.2621 22.3658 62.2106 22.3438C62.1592 22.3218 62.1126 22.2898 62.0737 22.2496C62.0337 22.2106 62.0018 22.164 61.9798 22.1125C61.9579 22.0611 61.9463 22.0059 61.9457 21.9499V19.5128L56.3012 13.9642C56.2179 13.8718 56.1559 13.7624 56.1193 13.6435C56.0654 13.5046 56.0335 13.3977 56.0335 13.3227V11.9118H56.0225ZM53.2756 11.0026C53.2756 10.8747 53.3177 10.7678 53.3926 10.6819C53.4354 10.6417 53.4858 10.6105 53.5409 10.5902C53.5961 10.57 53.6547 10.5611 53.7133 10.564H54.8465C54.9433 10.564 55.0392 10.607 55.1251 10.6928C55.1651 10.7318 55.197 10.7782 55.2189 10.8295C55.2409 10.8808 55.2525 10.9359 55.2531 10.9917V21.9398C55.2531 22.0249 55.2 22.1217 55.1032 22.2177C55.0073 22.3136 54.9113 22.3675 54.8364 22.3675H53.7032C53.6472 22.367 53.5919 22.3553 53.5405 22.3332C53.489 22.3111 53.4425 22.279 53.4035 22.2387C53.3634 22.1999 53.3313 22.1535 53.3094 22.1022C53.2874 22.0509 53.2759 21.9957 53.2756 21.9398V11.0026ZM78.3785 10.7248C78.4185 10.7639 78.4504 10.8105 78.4723 10.8619C78.4943 10.9134 78.5059 10.9686 78.5064 11.0245C78.5112 11.0869 78.5002 11.1494 78.4744 11.2064L73.5463 22.0249C73.5173 22.1123 73.4558 22.1852 73.3746 22.2286C73.2954 22.2803 73.2022 22.3064 73.1077 22.3035H72.2953C72.2073 22.305 72.121 22.2788 72.0487 22.2286C71.9756 22.176 71.9168 22.106 71.8778 22.0249L66.9496 11.2594C66.9239 11.195 66.9129 11.1257 66.9176 11.0565C66.9176 10.9277 66.9606 10.8107 67.0456 10.7248C67.0896 10.6825 67.1416 10.6494 67.1985 10.6274C67.2555 10.6054 67.3163 10.5951 67.3773 10.5969H68.4574C68.5499 10.5932 68.6414 10.6178 68.7196 10.6674C68.7979 10.717 68.8591 10.7893 68.8951 10.8747L72.712 18.9252L76.4641 10.8747C76.4927 10.7872 76.5544 10.7144 76.6359 10.6718C76.7077 10.6213 76.7939 10.595 76.8817 10.5969H78.0788C78.1353 10.5926 78.1921 10.602 78.2442 10.6243C78.2964 10.6465 78.3424 10.681 78.3785 10.7248ZM84.3236 17.2036C84.2994 17.18 84.2803 17.1517 84.2675 17.1204C84.2546 17.0891 84.2482 17.0556 84.2486 17.0218V15.8028C84.2486 15.7279 84.2697 15.6639 84.3236 15.6109C84.3451 15.5869 84.3714 15.5678 84.4009 15.5549C84.4304 15.542 84.4623 15.5355 84.4945 15.536H88.835C88.899 15.536 88.9529 15.557 89.0059 15.6109C89.0492 15.6653 89.0719 15.7333 89.0699 15.8028V17.0218C89.0699 17.0879 89.0473 17.1521 89.0059 17.2036C88.9863 17.2304 88.9605 17.2521 88.9308 17.2669C88.901 17.2817 88.8682 17.2892 88.835 17.2887H84.5054C84.4704 17.2906 84.4355 17.2839 84.4038 17.269C84.3721 17.2542 84.3445 17.2317 84.3236 17.2036ZM81.5867 22.2387C81.555 22.2085 81.53 22.172 81.5133 22.1316C81.4966 22.0911 81.4887 22.0476 81.4899 22.0038V10.9387C81.4897 10.895 81.4981 10.8518 81.5147 10.8115C81.5313 10.7711 81.5558 10.7345 81.5867 10.7038C81.6169 10.672 81.6534 10.647 81.6939 10.6303C81.7343 10.6137 81.7779 10.6057 81.8216 10.607H89.1877C89.2837 10.607 89.3696 10.639 89.4445 10.7038C89.4786 10.7326 89.5059 10.7686 89.5244 10.8092C89.5428 10.8498 89.5521 10.894 89.5514 10.9387V12.1038C89.552 12.1485 89.5427 12.1928 89.5242 12.2335C89.5057 12.2743 89.4785 12.3104 89.4445 12.3395C89.3736 12.4019 89.2822 12.4361 89.1877 12.4354H83.3184V20.507H89.1877C89.2837 20.507 89.3696 20.539 89.4445 20.603C89.4786 20.632 89.5059 20.6681 89.5244 20.7089C89.5429 20.7496 89.5521 20.794 89.5514 20.8387V22.0038C89.5521 22.0484 89.5428 22.0927 89.5244 22.1333C89.5059 22.1739 89.4786 22.2099 89.4445 22.2387C89.3736 22.3011 89.2822 22.3353 89.1877 22.3347H81.8216C81.7256 22.3456 81.6507 22.3027 81.5867 22.2387ZM93.2707 11.1954C93.2707 11.1095 93.3035 11.0245 93.3675 10.9597C93.4289 10.8972 93.5064 10.8529 93.5914 10.8317C94.0729 10.7568 94.5006 10.6928 94.8744 10.639C95.249 10.5859 95.7516 10.564 96.3611 10.564C97.9538 10.564 99.3117 10.8957 100.456 11.5481C101.589 12.2006 102.166 13.3758 102.166 15.0763C102.166 15.2573 102.155 15.397 102.145 15.493C102.145 15.6109 102.113 15.8348 102.049 16.1454C101.985 16.4552 101.813 16.829 101.557 17.2567C101.3 17.6953 100.915 18.08 100.413 18.4226C101.043 18.8924 101.439 19.4699 101.599 20.1753C101.76 20.8808 101.835 21.4693 101.835 21.9499C101.835 21.9971 101.824 22.0436 101.803 22.0861C101.783 22.1286 101.753 22.1661 101.717 22.1958C101.642 22.259 101.548 22.2933 101.45 22.2926H100.381C100.359 22.2926 100.306 22.2926 100.242 22.2816C100.167 22.2816 100.092 22.2387 100.028 22.1747C99.9532 22.1107 99.9103 21.9929 99.8993 21.843C99.8463 20.8808 99.6746 20.2073 99.3866 19.8336C99.0979 19.4589 98.7873 19.267 98.4564 19.2451C97.836 19.3739 97.2905 19.4488 96.8418 19.4488C96.617 19.4488 96.4781 19.4059 96.436 19.3099C96.3863 19.2255 96.3604 19.1292 96.3611 19.0313V18.112C96.3611 18.048 96.3821 17.9621 96.436 17.8662C96.489 17.7702 96.5959 17.7163 96.7567 17.7163C98.1887 17.7163 99.108 17.4175 99.5037 16.8189C99.8993 16.2195 100.102 15.7068 100.102 15.2682C100.113 15.1933 100.124 15.0763 100.124 14.9366C100.124 13.8893 99.7924 13.1729 99.1299 12.7671C98.4665 12.3715 97.676 12.1677 96.7567 12.1677C96.425 12.1677 96.1254 12.1896 95.8475 12.2216C95.5807 12.2646 95.3988 12.2856 95.3239 12.2965V21.9289C95.3247 21.9768 95.3157 22.0243 95.2973 22.0684C95.2789 22.1126 95.2515 22.1525 95.217 22.1857C95.1839 22.2202 95.144 22.2475 95.0998 22.2659C95.0556 22.2843 95.0081 22.2934 94.9602 22.2926H93.6562C93.6084 22.2934 93.5608 22.2844 93.5167 22.266C93.4725 22.2476 93.4326 22.2202 93.3995 22.1857C93.3649 22.1525 93.3376 22.1126 93.3192 22.0684C93.3008 22.0243 93.2917 21.9768 93.2925 21.9289V11.1954H93.2707ZM106.004 22.1747C105.962 22.1349 105.929 22.0867 105.907 22.0334C105.885 21.98 105.874 21.9226 105.876 21.8649V11.0666C105.876 10.9496 105.918 10.8427 106.004 10.7568C106.043 10.7148 106.092 10.6817 106.145 10.6596C106.199 10.6376 106.256 10.6271 106.314 10.6289H107.415C107.522 10.6289 107.629 10.6709 107.704 10.7568C107.746 10.7967 107.779 10.8448 107.801 10.8982C107.823 10.9515 107.833 11.0089 107.832 11.0666V21.8649C107.833 21.9225 107.821 21.9796 107.8 22.0328C107.778 22.086 107.745 22.1343 107.704 22.1747C107.667 22.2146 107.623 22.2465 107.573 22.2686C107.523 22.2906 107.47 22.3022 107.415 22.3027H106.314C106.256 22.3034 106.199 22.2925 106.146 22.2705C106.092 22.2485 106.044 22.2159 106.004 22.1747ZM114.557 22.2177C114.502 22.1556 114.471 22.0757 114.471 21.9929V13.4617C114.471 13.3758 114.503 13.3017 114.557 13.2478C114.585 13.2201 114.618 13.1982 114.655 13.1835C114.692 13.1687 114.731 13.1614 114.77 13.162H116.021C116.098 13.1633 116.17 13.194 116.224 13.2478C116.255 13.2739 116.28 13.3067 116.297 13.3438C116.313 13.3808 116.321 13.4211 116.32 13.4617V21.9929C116.32 22.0349 116.312 22.0765 116.296 22.1152C116.279 22.1538 116.255 22.1887 116.224 22.2177C116.16 22.2816 116.096 22.3136 116.021 22.3136H114.77C114.691 22.3062 114.615 22.2725 114.557 22.2177ZM111.21 12.3386C111.179 12.3083 111.154 12.2718 111.137 12.2314C111.121 12.1909 111.113 12.1474 111.114 12.1038V10.9706C111.114 10.9262 111.123 10.8822 111.14 10.8412C111.158 10.8002 111.183 10.7632 111.215 10.7322C111.247 10.7012 111.284 10.677 111.326 10.661C111.367 10.645 111.412 10.6375 111.456 10.639H119.453C119.496 10.6388 119.54 10.6473 119.58 10.664C119.62 10.6806 119.657 10.705 119.688 10.7359C119.718 10.7667 119.743 10.8033 119.759 10.8436C119.776 10.8839 119.785 10.9271 119.784 10.9706V12.1038C119.785 12.1473 119.776 12.1905 119.759 12.2308C119.743 12.2711 119.718 12.3077 119.688 12.3385C119.657 12.3694 119.62 12.3938 119.58 12.4104C119.54 12.4271 119.496 12.4356 119.453 12.4354H111.456C111.411 12.4367 111.366 12.4288 111.323 12.4122C111.281 12.3955 111.243 12.3705 111.21 12.3386ZM132.155 10.9917V11.0456C132.153 11.1099 132.134 11.1726 132.101 11.2274L129.118 16.1454C129.086 16.2195 129.022 16.2625 128.915 16.2625C128.875 16.2641 128.835 16.2525 128.802 16.2293C128.77 16.2062 128.745 16.1729 128.733 16.1345L127.964 14.5518C127.944 14.4971 127.933 14.4393 127.932 14.3809C127.932 14.306 127.953 14.242 127.985 14.1991L129.781 11.1205C129.791 11.1205 129.802 11.1095 129.802 11.0986C129.973 10.7997 130.283 10.6499 130.754 10.6499H131.652C131.877 10.6499 132.026 10.7358 132.123 10.8957L132.155 10.9917ZM128.242 17.3535C128.287 17.439 128.309 17.5347 128.306 17.6313V21.8969C128.307 21.953 128.297 22.0088 128.275 22.0604C128.252 22.112 128.219 22.1582 128.178 22.1958C128.093 22.2735 127.982 22.3157 127.867 22.3136H126.681C126.627 22.313 126.573 22.3014 126.523 22.2794C126.474 22.2574 126.429 22.2255 126.392 22.1857C126.352 22.1488 126.32 22.1042 126.298 22.0546C126.276 22.0049 126.264 21.9513 126.263 21.8969V17.4814L122.468 11.2165C122.435 11.1617 122.416 11.0989 122.415 11.0346C122.415 11.0026 122.425 10.9496 122.447 10.8848C122.492 10.8068 122.559 10.7438 122.639 10.7038C122.725 10.6598 122.821 10.6376 122.918 10.639H123.815C124.286 10.639 124.596 10.7888 124.767 11.0885L124.788 11.1095L127.077 14.8945L128.242 17.3535Z" fill="#163E6C"/>
</g>
</g>
</g>
</g>
<defs>
<clipPath id="clip0_130_1020">
<rect width="133" height="31.99" fill="white" transform="translate(-0.0100098 0.899414)"/>
</clipPath>
<clipPath id="clip1_130_1020">
<rect width="133" height="31.99" fill="white" transform="translate(-0.0100098 0.899414)"/>
</clipPath>
<clipPath id="clip2_130_1020">
<rect width="131.327" height="31.99" fill="white" transform="translate(0.826294 0.899414)"/>
</clipPath>
<clipPath id="clip3_130_1020">
<rect width="131.327" height="31.99" fill="white" transform="translate(0.826294 0.899414)"/>
</clipPath>
</defs>
</svg>
