<svg width="102" height="16" viewBox="0 0 102 16" fill="none" xmlns="http://www.w3.org/2000/svg">
<g clip-path="url(#clip0_130_887)">
<g clip-path="url(#clip1_130_887)">
<path d="M0.108978 0.452144V14.4318H2.10578V8.75233H2.38376C3.58564 8.75233 4.46655 8.43836 4.9815 7.85142C5.56044 7.20148 5.73243 6.48955 5.73243 4.62373C5.73243 2.84191 5.56044 2.10898 4.9595 1.37505C4.37956 0.661123 3.73562 0.452144 1.99779 0.452144H0.108978ZM2.10578 6.94951V2.27596H2.38376C3.56464 2.27596 3.80062 2.65293 3.80062 4.60174C3.80062 6.57254 3.56464 6.94951 2.38376 6.94951H2.10578ZM7.25628 0.452144V14.4318H9.25308V8.50035C9.55305 8.47936 9.61805 8.47936 9.96101 8.41636L11.1199 14.4318H13.2667L11.8708 7.74543C12.6867 6.71853 12.8797 6.08959 12.8797 4.34976C12.8797 3.02989 12.6437 2.08698 12.1288 1.43705C11.5489 0.703119 10.8189 0.452144 9.21008 0.452144H7.25628ZM9.25308 6.53055V2.27497H9.53205C10.6469 2.27497 10.9259 2.63193 10.9259 4.14078C10.9259 5.41866 10.8829 5.75462 10.7329 6.0276C10.54 6.38356 10.175 6.53055 9.53205 6.53055H9.25308ZM20.279 3.9938C20.279 2.33796 20.215 1.98199 19.829 1.37405C19.3561 0.683121 18.4552 0.243164 17.4463 0.243164C16.4374 0.243164 15.5355 0.682121 15.0635 1.37405C14.6775 1.98199 14.6136 2.33796 14.6136 3.9938V10.8681C14.6136 12.524 14.6775 12.8809 15.0635 13.4879C15.5365 14.2008 16.4374 14.6418 17.4463 14.6418C18.4552 14.6418 19.3571 14.2008 19.829 13.4879C20.215 12.8809 20.279 12.545 20.279 10.8681V3.9938ZM18.2832 11.685C18.2832 12.482 18.0252 12.8179 17.4463 12.8179C16.8453 12.8179 16.6084 12.482 16.6084 11.686V3.19687C16.6084 2.40095 16.8673 2.06499 17.4463 2.06499C18.0472 2.06499 18.2832 2.40095 18.2832 3.19687V11.686V11.685ZM21.9498 0.452144V14.4318H23.9456V8.0184H25.9204V6.19458H23.9456V2.27497H26.7784V0.452144H21.9498ZM29.9201 0.452144H27.9233V14.4318H29.9201V0.452144ZM33.0857 14.4318H35.0826V2.27497H37.0354V0.452144H31.2189V2.27596H33.0867L33.0857 14.4318ZM39.6661 11.2881H41.4689L41.8339 14.4318H43.7877L41.9199 0.452144H39.3441L37.3903 14.4318H39.3221L39.6661 11.2881ZM41.2549 9.46426H39.8811L40.568 2.9879L41.2549 9.46426ZM45.2795 0.452144V14.4318H47.2754C48.8632 14.4318 49.7861 14.1378 50.409 13.4249C50.967 12.7759 51.16 12 51.16 10.3232C51.16 8.31137 50.774 7.51545 49.6151 7.07449C50.602 6.46755 50.903 5.73363 50.903 3.9728C50.903 2.69492 50.645 1.898 50.0221 1.29006C49.3142 0.599129 48.7992 0.452144 47.0814 0.452144H45.2795ZM47.2754 12.608V8.0814H47.4683C48.8632 8.0814 49.1642 8.50035 49.1642 10.3442C49.1642 12.189 48.8632 12.608 47.4683 12.608H47.2754ZM47.2754 6.25757V2.27497H47.5543C48.6702 2.27497 48.9492 2.65293 48.9492 4.14078C48.9492 5.90161 48.7132 6.25757 47.5543 6.25757H47.2754ZM52.8038 14.4318H57.6323V12.608H54.8006V0.452144H52.8038V14.4318ZM58.8402 0.452144V14.4318H63.8417V12.608H60.837V8.0184H62.8118V6.19458H60.837V2.27497H63.6697V0.452144H58.8402Z" fill="black"/>
<path d="M65.0616 10.3862C65.0406 10.7221 65.0406 10.8471 65.0406 11.1411C65.0406 12.357 65.1906 12.9439 65.6626 13.5719C66.2205 14.3058 66.9724 14.6418 68.0453 14.6418C69.9131 14.6418 70.965 13.5929 70.965 11.728C70.965 10.5332 70.4491 9.10829 69.5262 7.78742L68.5173 6.36256C67.1864 4.41376 67.1014 4.22477 67.1014 3.36586C67.1014 2.52694 67.4014 2.06599 67.9383 2.06599C68.3893 2.06599 68.7113 2.37995 68.7753 2.9459C68.8182 3.23987 68.8393 3.49085 68.8393 4.20378L70.7931 4.01479C70.7931 2.86191 70.7931 2.79991 70.6861 2.27497C70.4071 0.99709 69.4192 0.243164 68.0673 0.243164C66.2635 0.243164 65.1266 1.41605 65.1266 3.26087C65.1266 4.49675 65.5336 5.46065 66.7575 7.26348L67.7454 8.68834C68.7323 9.96721 68.9682 10.5122 68.9682 11.4351C68.9682 12.336 68.6683 12.8179 68.0673 12.8179C67.2944 12.8179 67.0364 12.357 67.0364 10.9101V10.3022L65.0616 10.3862ZM76.5075 5.16768L78.3093 0.452144H76.2705L74.3177 5.71263V0.452144H72.3209V14.4318H74.3177V10.1142L75.1766 7.82942L76.6575 14.4318H78.7393L76.5075 5.16768ZM82.1779 0.452144H80.1821V14.4318H82.1779V0.452144ZM83.8918 14.4318H88.7213V12.608H85.8876V0.452144H83.8918V14.4318ZM89.9282 14.4318H94.7577V12.608H91.925V0.452144H89.9282V14.4318ZM95.9576 10.3862C95.9366 10.7221 95.9366 10.8471 95.9366 11.1411C95.9366 12.357 96.0866 12.9439 96.5595 13.5719C97.1175 14.3058 97.8684 14.6418 98.9413 14.6418C100.809 14.6418 101.86 13.5929 101.86 11.728C101.86 10.5332 101.345 9.10829 100.422 7.78742L99.4132 6.36256C98.0824 4.41376 97.9964 4.22477 97.9964 3.36586C97.9964 2.52694 98.2974 2.06599 98.8343 2.06599C99.2843 2.06599 99.6062 2.37995 99.6712 2.9459C99.7142 3.23987 99.7352 3.49085 99.7352 4.20378L101.689 4.01479C101.689 2.86191 101.689 2.79991 101.581 2.27497C101.302 0.99709 100.315 0.243164 98.9623 0.243164C97.1605 0.243164 96.0226 1.41605 96.0226 3.26087C96.0226 4.49675 96.4305 5.46065 97.6534 7.26348L98.6403 8.68834C99.6282 9.96721 99.8642 10.5122 99.8642 11.4351C99.8642 12.336 99.5632 12.8179 98.9623 12.8179C98.1904 12.8179 97.9324 12.357 97.9324 10.9101V10.3022L95.9576 10.3862Z" fill="black"/>
</g>
</g>
<defs>
<clipPath id="clip0_130_887">
<rect width="101.99" height="15" fill="white" transform="translate(-0.0100098 0.239258)"/>
</clipPath>
<clipPath id="clip1_130_887">
<rect width="101.99" height="14.9985" fill="white" transform="translate(-0.0100098 0.239258)"/>
</clipPath>
</defs>
</svg>
