<svg width="48" height="49" viewBox="0 0 48 49" fill="none" xmlns="http://www.w3.org/2000/svg">
<g clip-path="url(#clip0_130_771)">
<g clip-path="url(#clip1_130_771)">
<mask id="mask0_130_771" style="mask-type:luminance" maskUnits="userSpaceOnUse" x="-1" y="0" width="49" height="49">
<path d="M-0.0100021 0.269531H47.99V48.2695H-0.0100021V0.269531Z" fill="white"/>
</mask>
<g mask="url(#mask0_130_771)">
<path d="M4.88504 33.4798L5.74808 32.1468M10.238 33.3214L9.27224 32.0604M3.01352 28.5689L4.54952 28.9702M7.262 26.7305L7.142 25.1475" stroke="black" stroke-width="0.96" stroke-linecap="round"/>
<path d="M22.3738 14.09C22.4118 14.1404 22.4592 14.1828 22.5135 14.2148C22.5678 14.2468 22.6279 14.2678 22.6903 14.2766C22.7528 14.2854 22.8163 14.2819 22.8773 14.2661C22.9384 14.2504 22.9957 14.2227 23.0461 14.1848C23.0964 14.1469 23.1388 14.0994 23.1709 14.0451C23.2029 13.9908 23.2239 13.9308 23.2327 13.8683C23.2415 13.8059 23.2379 13.7424 23.2222 13.6813C23.2064 13.6203 23.1788 13.5629 23.1409 13.5126L22.3738 14.09ZM43.7612 34.6403L44.1428 34.9311L44.3362 34.6777L44.1778 34.4012L43.7612 34.6403ZM23.1409 13.5126C22.5226 12.6913 22.0388 11.8489 21.7834 11.1174C21.5185 10.3575 21.5434 9.84922 21.7244 9.57178L20.9209 9.04666C20.4836 9.71578 20.5887 10.6067 20.8777 11.4337C21.1753 12.2881 21.7186 13.2193 22.3738 14.09L23.1409 13.5126ZM21.7244 9.57178C22.0412 9.08698 22.4242 8.92378 22.7041 8.92858C22.9714 8.93338 23.2465 9.09034 23.3972 9.48202L24.2934 9.13642C24.0154 8.41642 23.4164 7.98202 22.7223 7.96906C22.0422 7.9561 21.3774 8.34874 20.9209 9.04666L21.7244 9.57226V9.57178ZM23.3972 9.48202C23.618 10.0547 24.2972 11.6295 25.1108 13.2558C25.5188 14.0703 25.9628 14.9036 26.4034 15.6347C26.8393 16.3585 27.2881 17.0089 27.7066 17.438L28.393 16.767C28.0551 16.4204 27.6529 15.8483 27.2252 15.1393C26.8028 14.4371 26.3708 13.6273 25.9695 12.8262C25.167 11.222 24.5007 9.67546 24.2934 9.1369L23.3972 9.48202ZM27.7066 17.438C28.5514 18.303 30.1374 19.7079 31.6542 21.0356C33.1844 22.3758 34.6431 23.6363 35.2686 24.2377L35.9338 23.546C35.2863 22.9235 33.7988 21.6375 32.2863 20.3132C30.7599 18.9769 29.2062 17.5993 28.393 16.767L27.7071 17.4385L27.7066 17.438ZM35.2686 24.2377C37.8303 26.7015 39.2204 28.3105 40.8361 30.8031L41.642 30.2814C39.9764 27.711 38.5335 26.0454 35.9338 23.546L35.2686 24.2377ZM40.8361 30.8031C41.6377 32.0413 42.4141 33.296 43.1636 34.5663L43.2994 34.7991L43.334 34.8591L43.3426 34.874L43.345 34.8779V34.8788L43.7612 34.6403L44.1778 34.4012L44.1783 34.4007L44.1774 34.3993L44.175 34.3955L44.1654 34.3791L44.1298 34.3172L43.9911 34.0801C43.2345 32.7977 42.4513 31.5312 41.642 30.2814L40.8366 30.8036L40.8361 30.8031ZM43.7612 34.6403L43.3806 34.3484L43.3791 34.3503L43.3724 34.359C43.321 34.4239 43.2687 34.4881 43.2154 34.5515C43.1017 34.6868 42.9303 34.8846 42.7018 35.1279C42.0687 35.8009 41.3912 36.4306 40.6738 37.0129C38.8892 38.4673 36.2684 40.1343 32.9156 41.006L33.157 41.9353C36.6793 41.0199 39.421 39.2718 41.2806 37.7574C42.0314 37.1478 42.7405 36.4885 43.4031 35.7841C43.5909 35.5839 43.7734 35.3787 43.9503 35.1687C44.0156 35.0914 44.0796 35.013 44.1423 34.9335L44.1428 34.9321L43.7612 34.6403Z" fill="black"/>
<path d="M33.6836 40.7508L33.745 34.5021C33.7057 33.0232 32.8297 29.9325 29.6406 29.404C26.2167 28.8362 25.7958 30.2642 22.9926 30.3679C19.5486 30.4951 14.9737 29.6071 15.423 27.7816C15.8713 25.9562 18.7873 27.928 21.7719 26.8692C24.7561 25.8098 24.7734 23.9445 24.625 23.417C24.4762 22.889 23.4418 21.3165 20.3737 22.2122C15.6769 23.5831 18.0759 25.9975 15.95 26.4276C15.1114 26.597 13.1617 25.037 14.1721 22.5588C15.0711 20.3522 19.1847 18.8138 21.1513 18.1965C19.3345 17.1885 15.1345 15.052 13.261 14.214C9.86648 12.6957 10.1689 10.1925 12.4594 10.7868C14.5969 11.3416 15.6802 11.6776 16.4434 11.8754" stroke="black" stroke-width="0.96"/>
<path d="M27.9289 40.3509C27.9087 38.0119 31.7252 34.0557 33.5492 33.0117L33.7786 41.8063C31.5817 42.4826 27.949 42.69 27.9289 40.3509Z" fill="black"/>
<path d="M16.6417 26.3438L7.53128 29.7422" stroke="black" stroke-width="0.96" stroke-linecap="round"/>
<path d="M19.4516 14.9076C19.5007 14.948 19.5573 14.9783 19.6182 14.9967C19.6791 15.015 19.743 15.0211 19.8063 15.0146C19.8695 15.008 19.9309 14.989 19.9867 14.9585C20.0425 14.9281 20.0918 14.8868 20.1315 14.8372C20.1713 14.7875 20.2007 14.7305 20.2183 14.6693C20.2358 14.6082 20.241 14.5442 20.2335 14.481C20.2261 14.4179 20.2062 14.3568 20.175 14.3014C20.1437 14.246 20.1018 14.1974 20.0516 14.1583L19.4516 14.9076ZM19.7516 14.5332L20.0516 14.1583L20.0506 14.1578L20.0487 14.1559L20.0406 14.1492L20.0074 14.1228L19.8826 14.0229C19.2576 13.5218 18.6336 13.0194 18.0106 12.5157C16.9402 11.6498 15.8026 10.7215 15.4695 10.4196L14.8254 11.1314C15.1839 11.4564 16.3489 12.4068 17.4073 13.2626C17.9401 13.6937 18.4513 14.1045 18.829 14.4084L19.2817 14.7717C19.3374 14.8164 19.3931 14.861 19.4487 14.9057L19.4511 14.9071L19.4516 14.9076L19.7516 14.5332ZM15.4695 10.4196C15.1729 10.1517 14.9938 9.85174 14.9439 9.61174C14.9007 9.40486 14.9478 9.25366 15.1249 9.12694L14.5652 8.34694C14.041 8.72278 13.8932 9.27766 14.0036 9.80758C14.1073 10.3044 14.4294 10.7724 14.8254 11.1314L15.4695 10.4196ZM15.1249 9.12694C15.2142 9.0631 15.3951 9.0079 15.7196 9.02614C16.0326 9.04342 16.4156 9.12598 16.8375 9.2599C17.6799 9.52678 18.603 9.97222 19.3023 10.3721L19.779 9.5383C19.0412 9.11686 18.0543 8.63878 17.1274 8.34502C16.6647 8.19814 16.1977 8.09062 15.7729 8.06758C15.3591 8.04406 14.9142 8.09638 14.5652 8.34694L15.1249 9.12694ZM19.3023 10.3721C19.8639 10.6927 20.257 10.9548 20.5172 11.1487C20.6473 11.2457 20.7423 11.3239 20.8071 11.382C20.8777 11.4453 20.8993 11.4727 20.8959 11.4684L21.6649 10.8933C21.5698 10.7661 21.373 10.589 21.0903 10.3788C20.7937 10.158 20.367 9.87478 19.779 9.5383L19.3023 10.3721Z" fill="black"/>
</g>
</g>
</g>
<defs>
<clipPath id="clip0_130_771">
<rect width="48" height="48" fill="white" transform="translate(-0.0100021 0.269531)"/>
</clipPath>
<clipPath id="clip1_130_771">
<rect width="48" height="48" fill="white" transform="translate(-0.0100021 0.269531)"/>
</clipPath>
</defs>
</svg>
