<svg width="48" height="49" viewBox="0 0 48 49" fill="none" xmlns="http://www.w3.org/2000/svg">
<g clip-path="url(#clip0_130_821)">
<g clip-path="url(#clip1_130_821)">
<path d="M21.1373 16.708C21.1373 16.708 16.1914 16.1373 15.2467 18.6266C14.3021 21.1164 15.6547 21.5407 16.8096 21.6228C17.9655 21.7053 23.0309 20.6311 23.4816 22.493C23.9319 24.3554 21.3255 27.5493 17.557 26.5346M16.644 15.8047L21.9389 27.5743" stroke="black" stroke-width="0.96" stroke-miterlimit="10" stroke-linecap="round"/>
<path d="M25.9776 19.2217C24.8866 16.5721 19.0983 7.6479 13.392 10.9546C8.4221 13.8341 9.76898 20.4754 11.9981 25.4449C13.8221 29.5105 17.7653 32.2575 21.049 32.7855C22.4511 33.0111 23.7322 32.8325 24.6778 32.1793C27.7983 30.0221 27.9283 23.9588 25.9776 19.2217Z" stroke="black" stroke-width="0.96" stroke-miterlimit="10"/>
<path d="M12.6355 11.4551C12.6355 11.4551 7.62145 14.8957 8.20753 20.5991C8.46769 23.1325 9.70801 27.3157 11.1806 29.0932C15.4469 34.2426 16.7659 33.8768 19.3229 33.6671C21.8794 33.4578 23.5522 32.7186 23.5522 32.7186C23.5522 32.7186 16.057 34.3453 11.4005 24.0383C7.38673 15.1544 12.6355 11.4551 12.6355 11.4551Z" fill="black" stroke="black" stroke-width="0.96" stroke-miterlimit="10" stroke-linecap="round" stroke-linejoin="round"/>
<path d="M33.4056 29.7825C33.4056 29.7825 30.203 29.9006 29.9266 29.3476C29.7091 28.9128 34.0387 21.8332 34.7976 21.8673C35.7542 21.911 39.565 28.5499 39.9197 29.5156C40.1635 30.18 36.7162 29.6116 36.6691 30.1569C36.5674 31.3382 36.624 37.6545 36.624 37.6545L33.2755 37.6103L33.4056 29.7825Z" stroke="black" stroke-width="0.96" stroke-miterlimit="10" stroke-linejoin="round"/>
</g>
</g>
<defs>
<clipPath id="clip0_130_821">
<rect width="48" height="48" fill="white" transform="translate(0 0.149414)"/>
</clipPath>
<clipPath id="clip1_130_821">
<rect width="48" height="48" fill="white" transform="translate(0 0.149414)"/>
</clipPath>
</defs>
</svg>
