<svg width="48" height="49" viewBox="0 0 48 49" fill="none" xmlns="http://www.w3.org/2000/svg">
<g clip-path="url(#clip0_130_794)">
<g clip-path="url(#clip1_130_794)">
<path d="M18.6303 33.1062C14.0847 31.5525 12.2991 28.1061 11.5791 25.1123C9.68791 17.2542 17.4159 11.7539 22.2495 11.7539C27.0879 11.7539 34.3647 14.7957 34.3407 22.0005C34.3407 22.8179 34.0143 24.3832 34.0143 24.3832L33.5871 25.8481" stroke="black" stroke-width="0.96" stroke-miterlimit="10" stroke-linecap="round" stroke-linejoin="round"/>
<path d="M18.1258 35.6586C13.561 34.0458 9.49063 30.6056 8.67463 23.5362C8.06983 18.3286 13.6282 8.87793 22.921 9.28209C30.2698 9.60177 36.433 13.699 36.9514 21.4117C37.0138 22.3266 36.5674 24.7846 36.5674 24.7846" stroke="black" stroke-width="0.96" stroke-miterlimit="10" stroke-linecap="round" stroke-linejoin="round"/>
<path d="M21.8511 22.6795C21.7407 24.4459 23.2911 23.6429 23.3727 23.2445C23.5935 22.1391 21.8991 21.8688 21.8511 22.6795ZM22.8015 22.0407L22.0383 18.5386L22.7439 14.7471L23.4207 18.5151L22.8015 22.0407Z" fill="black" stroke="black" stroke-width="0.96" stroke-miterlimit="10" stroke-linecap="round" stroke-linejoin="round"/>
<path d="M21.9087 22.9843L19.9695 22.2432L17.9487 23.2776L20.1231 23.9136L21.9087 22.9843Z" fill="black" stroke="black" stroke-width="0.96" stroke-miterlimit="10" stroke-linecap="round" stroke-linejoin="round"/>
<path d="M11.569 23.2058C11.9338 23.2058 12.937 23.321 13.2298 23.1751M15.049 15.293C15.2506 15.4946 15.6634 15.8777 15.9082 16.001M22.8682 11.8447C22.801 11.9796 22.8442 12.413 22.9018 12.5839M30.841 14.9234C30.745 15.2239 30.313 15.4332 30.1642 15.7241M34.2591 21.6353C33.9759 21.4932 32.9871 21.6046 33.3087 21.6046M14.8042 30.533C15.025 30.533 15.4858 29.9052 15.601 29.6714" stroke="black" stroke-width="0.96" stroke-miterlimit="10" stroke-linecap="round" stroke-linejoin="round"/>
<path d="M21.385 28.3619C23.545 26.0359 27.9178 26.1088 28.297 30.1624C28.561 33.0064 24.793 33.3203 22.921 34.2659C22.0714 34.6941 22.273 34.7219 22.0138 35.5043C21.9178 35.7967 21.6922 37.0149 22.1626 37.0648C23.6026 37.2179 25.0954 37.0951 26.7082 36.7456C27.9226 36.4826 29.7418 37.4584 28.633 38.4203C28.1242 38.8586 26.4778 38.8874 25.8346 38.9325C24.5482 39.0213 19.2874 39.8906 19.7146 37.6322C20.257 34.7877 19.9162 34.2352 21.793 32.9474C22.3258 32.5787 27.6874 31.4171 26.1418 29.4357C25.1914 28.2151 23.0938 28.6178 22.2058 30.5147C21.913 31.132 19.1338 31.2199 20.4778 29.2888L21.385 28.3619ZM35.7327 32.0368L37.5951 32.0848C37.5951 32.0848 37.7583 27.8157 37.6671 27.0722C37.5759 26.3282 35.4783 26.4962 34.7343 27.0722C33.9951 27.6496 30.7407 30.9909 30.4527 31.4767C30.1647 31.9624 30.0543 33.4783 30.6351 33.676C31.2111 33.8728 34.0719 33.7792 35.0271 33.8095C35.9871 33.8397 38.9487 34.0576 39.2367 33.6631C39.5247 33.2685 39.8751 32.0872 38.9199 32.1026C37.9647 32.117 32.2863 32.0243 32.2863 32.0243C32.2863 32.0243 35.5695 28.5458 35.8719 28.3331C36.1743 28.1205 35.7327 32.0368 35.7327 32.0368Z" fill="black" stroke="black" stroke-width="0.96" stroke-miterlimit="10" stroke-linecap="round" stroke-linejoin="round"/>
<path d="M35.5071 33.8608C35.5071 33.8608 35.1039 36.8618 35.0751 37.421C35.0463 37.9807 34.8927 38.848 35.3343 39.0141C35.7711 39.1807 37.5615 39.2839 37.5471 38.8154C37.5327 38.3464 37.6095 33.9228 37.6095 33.9228L35.5071 33.8608Z" fill="black" stroke="black" stroke-width="0.96" stroke-miterlimit="10" stroke-linecap="round" stroke-linejoin="round"/>
</g>
</g>
<defs>
<clipPath id="clip0_130_794">
<rect width="48" height="48" fill="white" transform="translate(-0.0100098 0.149414)"/>
</clipPath>
<clipPath id="clip1_130_794">
<rect width="48" height="48" fill="white" transform="translate(-0.0100098 0.149414)"/>
</clipPath>
</defs>
</svg>
