<svg width="48" height="49" viewBox="0 0 48 49" fill="none" xmlns="http://www.w3.org/2000/svg">
<g clip-path="url(#clip0_130_807)">
<g clip-path="url(#clip1_130_807)">
<path d="M18.3068 18.7532C18.3068 18.7532 19.082 21.7216 21.4647 22.5068C23.5983 23.211 27.6817 23.3636 27.7561 22.1353C27.783 21.6937 27.7489 20.87 27.1561 20.7625C25.225 20.4088 24.0284 20.4121 22.6364 20.1769C21.313 19.9532 21.1561 17.4121 21.1561 17.4121C21.051 15.2233 18.3303 12.7139 16.6249 14.9881C14.4903 17.8345 13.3503 23.0344 14.019 26.379C14.9132 30.8483 21.7873 26.6766 22.73 29.5062C23.4082 31.5395 22.0148 34.1497 21.6025 36.2118C21.471 36.8684 21.769 38.3924 22.7334 38.199C23.5695 38.0324 24.2396 36.3505 24.4503 35.6123C25.0686 33.4489 27.1321 29.366 25.0388 27.2723C22.885 25.119 19.669 24.9971 17.0722 23.6987" stroke="black" stroke-width="0.96" stroke-miterlimit="10" stroke-linecap="round"/>
<path d="M22.214 29.0266C21.5084 29.5542 14.6046 32.0151 12.5607 30.7254C10.5164 29.4346 13.971 28.3638 15.3822 28.6162C16.7934 28.8682 22.9196 28.4991 22.214 29.0266Z" fill="black" stroke="black" stroke-width="0.96" stroke-miterlimit="10" stroke-linecap="round"/>
<path d="M11.9458 29.8593C11.9458 29.8593 11.3497 24.2318 11.2249 21.3C11.1001 18.3686 10.609 15.7152 9.76856 14.3625M29.7342 22.5355L32.7246 9.13965M31.6714 16.3641C31.6714 16.3641 33.2324 16.6281 33.1551 20.1672C33.1426 20.7307 33.1906 23.1096 33.2031 24.0907M25.2567 24.8035L39.1225 24.7473" stroke="black" stroke-width="0.96" stroke-miterlimit="10" stroke-linecap="round"/>
<path d="M28.8644 25.1487L28.5788 40.8063M37.4487 40.7856L37.6311 24.9355M16.2236 31.2739L16.2985 37.1539L10.7156 40.1707M16.4559 37.0215L22.2236 40.4871" stroke="black" stroke-width="0.96" stroke-miterlimit="10" stroke-linecap="round" stroke-linejoin="round"/>
<path d="M19.0882 24.2734L19.7602 21.6122M23.9348 11.983C26.3252 8.24663 19.9753 6.27671 18.8574 9.32807C17.739 12.3794 21.5358 15.7332 23.9348 11.983Z" stroke="black" stroke-width="0.96" stroke-miterlimit="10" stroke-linecap="round"/>
<path d="M9.66008 14.1378C9.43496 13.6986 9.04808 12.9584 9.11816 12.6335C9.2924 11.8338 10.5706 11.9524 11.6958 13.6223C13.2778 15.9709 12.3606 19.4125 9.66008 14.1378Z" fill="black" stroke="black" stroke-width="0.96" stroke-miterlimit="10" stroke-linecap="round"/>
<path d="M37.2222 29.9956H29.113V25.1299H37.2222V29.9956Z" fill="black" stroke="black" stroke-width="0.96"/>
</g>
</g>
<defs>
<clipPath id="clip0_130_807">
<rect width="48" height="48" fill="white" transform="translate(-0.0100021 0.149414)"/>
</clipPath>
<clipPath id="clip1_130_807">
<rect width="48" height="48" fill="white" transform="translate(-0.0100021 0.149414)"/>
</clipPath>
</defs>
</svg>
