<svg width="18" height="17" viewBox="0 0 18 17" fill="none" xmlns="http://www.w3.org/2000/svg">
<path d="M1.19592 6.15235C1.19592 5.04778 2.09135 4.15234 3.19592 4.15234H14.8041C15.9086 4.15234 16.8041 5.04777 16.8041 6.15234V6.67778C16.8041 7.561 16.2247 8.33964 15.3788 8.59343L9.57469 10.3346C9.19981 10.4471 8.80018 10.4471 8.4253 10.3346L2.62123 8.59343C1.77526 8.33964 1.19592 7.561 1.19592 6.67778V6.15235Z" stroke="#666666" stroke-width="1.5"/>
<path d="M9 8.16596L9 6.82812" stroke="#666666" stroke-width="1.5" stroke-linecap="round" stroke-linejoin="round"/>
<path d="M1.84639 8.16553L1.84639 13.5236C1.84639 14.6282 2.74182 15.5236 3.84639 15.5236H14.1539C15.2584 15.5236 16.1539 14.6282 16.1539 13.5236V8.16553" stroke="#666666" stroke-width="1.5"/>
<path d="M11.6014 4.15223V3.47656C11.6014 2.37199 10.706 1.47656 9.60142 1.47656H8.3987C7.29413 1.47656 6.3987 2.37199 6.3987 3.47656L6.3987 4.15223" stroke="#666666" stroke-width="1.5"/>
</svg>
