<svg width="18" height="18" viewBox="0 0 18 18" fill="none" xmlns="http://www.w3.org/2000/svg">
<path d="M13.7271 9.71311L13.1772 9.2031L13.7271 9.71311ZM8.20882 4.1948L8.71883 4.74469L8.20882 4.1948ZM16.3473 3.0511L17.0909 3.14836L16.3473 3.0511ZM14.8708 1.57468L14.9681 2.31835L14.8708 1.57468ZM4.51117 9.58957L5.1846 9.91972L4.51117 9.58957ZM8.33236 13.4108L8.00221 12.7373L8.33236 13.4108ZM5.98002 7.52725C5.68713 7.23436 5.21226 7.23436 4.91936 7.52725C4.62647 7.82015 4.62647 8.29502 4.91936 8.58791L5.98002 7.52725ZM9.33401 13.0026C9.62691 13.2955 10.1018 13.2955 10.3947 13.0026C10.6876 12.7097 10.6876 12.2348 10.3947 11.9419L9.33401 13.0026ZM4.60045 14.3821C4.89334 14.0892 4.89334 13.6144 4.60045 13.3215C4.30755 13.0286 3.83268 13.0286 3.53979 13.3215L4.60045 14.3821ZM1.33246 15.5288C1.03957 15.8217 1.03957 16.2966 1.33246 16.5895C1.62535 16.8824 2.10023 16.8824 2.39312 16.5895L1.33246 15.5288ZM2.94495 12.7266C3.23784 12.4338 3.23784 11.9589 2.94495 11.666C2.65206 11.3731 2.17718 11.3731 1.88429 11.666L2.94495 12.7266ZM0.780629 12.7696C0.487736 13.0625 0.487736 13.5374 0.780629 13.8303C1.07352 14.1232 1.5484 14.1232 1.84129 13.8303L0.780629 12.7696ZM6.25594 16.0376C6.54883 15.7447 6.54883 15.2699 6.25594 14.977C5.96305 14.6841 5.48817 14.6841 5.19528 14.977L6.25594 16.0376ZM4.09162 16.0806C3.79872 16.3735 3.79872 16.8484 4.09162 17.1413C4.38451 17.4342 4.85938 17.4342 5.15228 17.1413L4.09162 16.0806ZM7.7122 16.1695L8.45467 16.0634L7.7122 16.1695ZM11.7406 13.4655L12.483 13.3595L11.7406 13.4655ZM1.75241 10.2097L1.85847 9.46728L1.85847 9.46728L1.75241 10.2097ZM4.45638 6.18137L4.35031 6.92384L4.35031 6.92384L4.45638 6.18137ZM7.16854 12.5786L5.34328 10.7534L4.28262 11.814L6.10788 13.6393L7.16854 12.5786ZM13.1772 9.2031C11.7217 10.7724 9.34648 12.0783 8.00221 12.7373L8.6625 14.0842C10.0223 13.4176 12.6185 12.0114 14.277 10.2231L13.1772 9.2031ZM5.1846 9.91972C5.84363 8.57545 7.14948 6.20022 8.71883 4.74469L7.69881 3.6449C5.91057 5.30343 4.50438 7.89964 3.83775 9.25943L5.1846 9.91972ZM15.6036 2.95384C15.367 4.76308 14.7413 7.51673 13.1772 9.2031L14.277 10.2231C16.1842 8.16683 16.8496 4.99326 17.0909 3.14836L15.6036 2.95384ZM8.71883 4.74469C10.4052 3.18065 13.1589 2.55497 14.9681 2.31835L14.7736 0.831013C12.9287 1.0723 9.7551 1.73776 7.69881 3.6449L8.71883 4.74469ZM17.0909 3.14836C17.2697 1.78162 16.1403 0.652261 14.7736 0.831013L14.9681 2.31835C15.3579 2.26736 15.6546 2.56401 15.6036 2.95384L17.0909 3.14836ZM5.34328 10.7534C5.10648 10.5166 5.05495 10.1842 5.1846 9.91972L3.83775 9.25943C3.40822 10.1356 3.6212 11.1526 4.28262 11.814L5.34328 10.7534ZM6.10788 13.6393C6.7693 14.3007 7.78637 14.5137 8.6625 14.0842L8.00221 12.7373C7.73775 12.867 7.40535 12.8155 7.16854 12.5786L6.10788 13.6393ZM4.91936 8.58791L9.33401 13.0026L10.3947 11.9419L5.98002 7.52725L4.91936 8.58791ZM3.53979 13.3215L1.33246 15.5288L2.39312 16.5895L4.60045 14.3821L3.53979 13.3215ZM1.88429 11.666L0.780629 12.7696L1.84129 13.8303L2.94495 12.7266L1.88429 11.666ZM5.19528 14.977L4.09162 16.0806L5.15228 17.1413L6.25594 16.0376L5.19528 14.977ZM9.60993 5.04401C8.7075 5.94644 8.7075 7.40957 9.60993 8.312L10.6706 7.25134C10.3539 6.93469 10.3539 6.42132 10.6706 6.10467L9.60993 5.04401ZM9.60993 8.312C10.5124 9.21443 11.9755 9.21443 12.8779 8.312L11.8173 7.25134C11.5006 7.56798 10.9872 7.56798 10.6706 7.25134L9.60993 8.312ZM12.8779 8.312C13.7803 7.40957 13.7803 5.94644 12.8779 5.04401L11.8173 6.10467C12.1339 6.42132 12.1339 6.9347 11.8173 7.25134L12.8779 8.312ZM12.8779 5.04401C11.9755 4.14158 10.5124 4.14158 9.60993 5.04401L10.6706 6.10467C10.9872 5.78803 11.5006 5.78803 11.8173 6.10467L12.8779 5.04401ZM10.9895 13.5974L8.50627 16.0806L9.56693 17.1413L12.0502 14.6581L10.9895 13.5974ZM8.45467 16.0634L8.12357 13.7457L6.63864 13.9579L6.96974 16.2756L8.45467 16.0634ZM10.7774 12.0265L10.9981 13.5716L12.483 13.3595L12.2623 11.8143L10.7774 12.0265ZM8.50627 16.0806C8.50028 16.0866 8.49666 16.0887 8.49584 16.0891C8.49487 16.0896 8.49422 16.0898 8.49339 16.09C8.49118 16.0905 8.48449 16.0911 8.47515 16.088C8.46581 16.0849 8.46083 16.0804 8.45934 16.0787C8.45878 16.078 8.4584 16.0775 8.45793 16.0765C8.45754 16.0756 8.45586 16.0718 8.45467 16.0634L6.96974 16.2756C7.14809 17.524 8.67518 18.033 9.56693 17.1413L8.50627 16.0806ZM12.0502 14.6581C12.3908 14.3174 12.5512 13.8363 12.483 13.3595L10.9981 13.5716C10.9995 13.5811 10.9963 13.5906 10.9895 13.5974L12.0502 14.6581ZM3.26385 5.87178L0.780612 8.35502L1.84127 9.41568L4.32451 6.93244L3.26385 5.87178ZM1.64634 10.9522L3.96403 11.2833L4.17616 9.79838L1.85847 9.46728L1.64634 10.9522ZM6.10757 5.65964L4.56245 5.43891L4.35031 6.92384L5.89544 7.14457L6.10757 5.65964ZM0.780612 8.35502C-0.111138 9.24677 0.397892 10.7739 1.64634 10.9522L1.85847 9.46728C1.85009 9.46608 1.8463 9.4644 1.84545 9.46401C1.84444 9.46355 1.84388 9.46317 1.84324 9.46261C1.84153 9.46112 1.83704 9.45613 1.83393 9.44679C1.83081 9.43746 1.83142 9.43077 1.83189 9.42855C1.83207 9.42772 1.83229 9.42708 1.83281 9.4261C1.83326 9.42529 1.83528 9.42167 1.84127 9.41568L0.780612 8.35502ZM4.32451 6.93244C4.33128 6.92567 4.34084 6.92248 4.35031 6.92384L4.56245 5.43891C4.08558 5.37079 3.60447 5.53116 3.26385 5.87178L4.32451 6.93244Z" fill="#012138"/>
</svg>
