<svg width="18" height="17" viewBox="0 0 18 17" fill="none" xmlns="http://www.w3.org/2000/svg">
<path d="M1.1958 6.15235C1.1958 5.04778 2.09123 4.15234 3.1958 4.15234H14.8039C15.9085 4.15234 16.8039 5.04777 16.8039 6.15234V6.67778C16.8039 7.561 16.2246 8.33964 15.3786 8.59343L9.57457 10.3346C9.19969 10.4471 8.80006 10.4471 8.42518 10.3346L2.62111 8.59343C1.77514 8.33964 1.1958 7.561 1.1958 6.67778V6.15235Z" stroke="#666666" stroke-width="1.5"/>
<path d="M8.99976 8.16596L8.99976 6.82812" stroke="#666666" stroke-width="1.5" stroke-linecap="round" stroke-linejoin="round"/>
<path d="M1.84619 8.16553L1.84619 13.5236C1.84619 14.6282 2.74162 15.5236 3.84619 15.5236H14.1537C15.2582 15.5236 16.1537 14.6282 16.1537 13.5236V8.16553" stroke="#666666" stroke-width="1.5"/>
<path d="M11.6014 4.15223V3.47656C11.6014 2.37199 10.706 1.47656 9.6014 1.47656H8.39868C7.29411 1.47656 6.39868 2.37199 6.39868 3.47656L6.39868 4.15223" stroke="#666666" stroke-width="1.5"/>
</svg>
