<svg width="323" height="233" viewBox="0 0 323 233" fill="none" xmlns="http://www.w3.org/2000/svg">
<rect x="0.5" y="0.5" width="322" height="232" rx="11.5" fill="url(#paint0_linear_142_586)"/>
<rect x="0.5" y="0.5" width="322" height="232" rx="11.5" stroke="#EEEEEE"/>
<path d="M155.037 180.57C155.071 174.291 146.282 169.154 135.406 169.095C124.53 169.036 115.686 174.079 115.652 180.358C115.618 186.637 124.408 191.774 135.284 191.833C146.159 191.892 155.004 186.849 155.037 180.57Z" fill="#F2F2F2"/>
<path d="M202.913 183.542L159.306 158.375C158.372 157.836 158.489 156.894 159.567 156.272L162.043 154.843C163.121 154.221 164.751 154.153 165.684 154.692L209.292 179.859C210.225 180.398 210.108 181.34 209.03 181.962L206.555 183.391C205.477 184.014 203.846 184.081 202.913 183.542Z" fill="#F2F2F2"/>
<path d="M207.202 59.8907L167.075 36.7237C166.322 36.2886 165.642 36.2761 165.112 36.577L161.154 38.8669L165.813 42.4904L166.953 42.2015V137.29C166.953 139.52 168.308 142.111 169.981 143.077L205.164 168.83V170.417L209.259 168.027L209.259 168.01C209.853 167.616 210.23 166.791 210.23 165.623V65.6772C210.231 63.4471 208.874 60.8562 207.202 59.8907Z" fill="#999999"/>
<path d="M201.066 68.3803V63.8926L197.12 66.8572L179.875 59.6296L166.953 50.2249V42.2003L165.808 42.4863L161.157 38.8677L165.113 36.5778C165.645 36.2813 166.32 36.2914 167.076 36.7208L207.2 59.8955C208.304 60.5293 209.265 61.8682 209.786 63.3408L201.066 68.3803Z" fill="#E6E6E6"/>
<path d="M203.22 170.236L163.093 147.069C161.421 146.103 160.065 143.512 160.065 141.282V41.3355C160.065 39.1054 161.421 38.0804 163.093 39.046L203.22 62.213C204.892 63.1789 206.248 65.7694 206.248 67.9995V167.946C206.248 170.176 204.892 171.201 203.22 170.236Z" fill="#CCCCCC"/>
<path d="M160.949 141.872V41.7675C160.949 40.1423 161.937 39.3949 163.156 40.099L203.155 63.1921C204.374 63.8958 205.362 65.7841 205.362 67.4094V167.514C205.362 169.139 204.374 169.886 203.155 169.183L163.156 146.09C161.937 145.386 160.949 143.498 160.949 141.872Z" fill="#333333"/>
<path d="M204.189 68.4719V165.438C204.189 166.881 203.171 167.451 201.922 166.731L164.394 145.064C163.138 144.338 162.119 142.581 162.119 141.139V44.183C162.119 42.7411 163.137 42.1602 164.394 42.8857L171.25 46.8441C171.536 47.0094 171.788 47.3718 171.867 47.7333L172.184 49.1821C172.423 50.5698 173.512 52.1127 174.787 52.8488L191.519 62.5092C192.794 63.2453 193.892 62.9645 194.122 61.8479L194.44 60.766C194.519 60.4961 194.771 60.4242 195.057 60.5894L201.922 64.5527C203.171 65.2734 204.189 67.0296 204.189 68.4719Z" fill="#80C5FF"/>
<path d="M195.774 92.5421C196.431 92.9215 196.96 93.8386 196.958 94.5965L196.946 98.7011C196.944 99.4562 196.411 99.7628 195.754 99.383L171.694 85.4919C171.037 85.1126 170.507 84.1926 170.509 83.4376L170.521 79.3329C170.523 78.575 171.056 78.2712 171.713 78.6506L195.774 92.5421Z" fill="#666666"/>
<path d="M195.774 106.9C196.431 107.279 196.96 108.199 196.958 108.954L196.946 113.061C196.944 113.817 196.411 114.12 195.754 113.741L171.694 99.8499C171.037 99.4705 170.507 98.5534 170.509 97.7984L170.521 93.6909C170.523 92.9354 171.056 92.6292 171.713 93.0085L195.774 106.9Z" fill="#666666"/>
<path d="M162.122 104.031V110.979L160.062 109.789V102.841L162.122 104.031Z" fill="#B3B3B3"/>
<path d="M196.962 125.972L196.953 129.249C196.944 130.256 196.23 130.668 195.351 130.165L162.122 110.978V104.03L195.369 123.217C196.248 123.73 196.962 124.956 196.962 125.972Z" fill="#666666"/>
<path d="M177.631 131.34C178.264 131.705 178.777 132.594 178.775 133.321L178.743 144.571C178.741 145.299 178.225 145.59 177.591 145.225L167.801 139.572C167.168 139.207 166.657 138.323 166.659 137.595L166.691 126.345C166.693 125.617 167.207 125.322 167.841 125.687L177.631 131.34Z" fill="#666666"/>
<path d="M195.816 141.82C196.45 142.186 196.96 143.072 196.958 143.8L196.926 155.05C196.924 155.778 196.411 156.07 195.777 155.705L185.987 150.052C185.354 149.687 184.841 148.801 184.843 148.073L184.875 136.823C184.877 136.095 185.393 135.801 186.026 136.167L195.816 141.82Z" fill="#666666"/>
<path d="M195.114 70.1067C196.136 70.6965 196.962 72.1275 196.958 73.3039L196.931 82.9337C196.927 84.1077 196.096 84.5816 195.074 83.9917L167.287 67.9489C166.265 67.3591 165.439 65.9285 165.443 64.7545L165.47 55.1247C165.474 53.9479 166.305 53.4744 167.327 54.0642L195.114 70.1067Z" fill="#666666"/>
<path d="M162.122 73.9695V92.8355L160.062 91.6457V72.7793L162.122 73.9695Z" fill="#B3B3B3"/>
<path d="M165.198 77.5851L165.152 92.7533C165.152 93.7601 164.439 94.1629 163.551 93.6595L162.122 92.8357V73.9697L163.605 74.8302C164.493 75.3425 165.198 76.578 165.198 77.5851Z" fill="#666666"/>
<path d="M176.318 51.4436C176.318 52.2152 175.773 52.5259 175.1 52.1377C174.428 51.7494 173.883 50.8093 173.883 50.0381C173.883 49.2664 174.428 48.9558 175.1 49.344C175.773 49.7318 176.318 50.672 176.318 51.4436Z" fill="#666666"/>
<path d="M175.767 51.1258C175.767 51.5483 175.469 51.7188 175.1 51.5063C174.732 51.2934 174.433 50.7783 174.433 50.3557C174.433 49.9327 174.732 49.7627 175.1 49.9756C175.469 50.1877 175.767 50.7028 175.767 51.1258Z" fill="#333333"/>
<path d="M189.003 57.053L177.097 50.1793C176.901 50.0662 176.742 49.7624 176.742 49.501V49.019C176.742 48.7576 176.901 48.6372 177.097 48.7508L189.003 55.6244C189.199 55.7375 189.358 56.0413 189.358 56.3027V56.7843C189.358 57.0461 189.199 57.1661 189.003 57.053Z" fill="black"/>
<path d="M209.118 81.0807C208.882 80.9434 208.555 80.9632 208.194 81.1716C207.476 81.5861 206.897 82.5893 206.9 83.4138L206.933 95.2935C206.934 95.7007 207.079 95.9891 207.313 96.1249L208.034 96.5434C207.8 96.4077 207.655 96.1188 207.654 95.712L207.62 83.8324C207.617 83.0074 208.196 82.0047 208.914 81.5902C209.275 81.3817 209.602 81.3623 209.838 81.4993L209.118 81.0807Z" fill="#E6E6E6"/>
<path d="M208.914 81.5906C209.632 81.1761 210.215 81.5081 210.217 82.3331L210.251 94.2127C210.253 95.0304 209.674 96.0404 208.956 96.4549C208.239 96.8694 207.656 96.5297 207.654 95.7124L207.62 83.8328C207.618 83.0078 208.197 82.0051 208.914 81.5906Z" fill="#BFBFBF"/>
<path d="M209.126 82.9257C209.715 82.5855 210.193 82.8582 210.195 83.5349L210.222 93.2798C210.224 93.9505 209.749 94.7791 209.16 95.1192C208.571 95.4594 208.093 95.1807 208.091 94.51L208.064 84.7651C208.062 84.0888 208.537 83.2659 209.126 82.9257Z" fill="#CCCCCC"/>
<path d="M158.813 50.3045L149.023 44.6522C148.704 44.4684 148.417 44.4514 148.209 44.5726L146.368 45.642C146.576 45.5212 146.865 45.5381 147.183 45.7216L156.973 51.3739C157.606 51.7395 158.119 52.6279 158.117 53.3555L158.085 64.6053C158.084 64.9661 157.957 65.2198 157.752 65.339L159.592 64.2696C159.797 64.15 159.925 63.8967 159.925 63.5355L159.957 52.2858C159.959 51.5586 159.446 50.6702 158.813 50.3045Z" fill="#BEBEBE"/>
<path d="M156.973 51.3737C157.606 51.7393 158.119 52.6277 158.117 53.3553L158.085 64.6051C158.083 65.3331 157.566 65.6244 156.933 65.2588L147.143 59.6064C146.509 59.2408 145.999 58.3569 146.001 57.6289L146.033 46.3791C146.035 45.6511 146.549 45.3557 147.182 45.7214L156.973 51.3737Z" fill="#012138"/>
<path d="M151.359 56.0755L150.439 58.5444L146.607 56.3321L148.986 52.9764C149.32 52.5054 150.155 52.9878 150.489 53.8442L151.359 56.0755Z" fill="white"/>
<path d="M152.868 59.9467L150.439 58.544L151.359 56.0752L152.868 59.9467Z" fill="#E6E6E6"/>
<path d="M156.7 62.1591L152.868 59.9468L151.359 56.0752L152.521 52.9576C152.87 52.0239 154.269 52.8315 154.617 54.1676L156.7 62.1591Z" fill="white"/>
<path d="M151.376 51.687C151.376 52.2292 150.993 52.4474 150.521 52.1747C150.048 51.902 149.665 51.241 149.665 50.6989C149.665 50.1567 150.048 49.9385 150.521 50.2112C150.993 50.4843 151.376 51.1449 151.376 51.687Z" fill="#E6E6E6"/>
<path d="M194.829 93.1121L170.769 79.2209C170.439 79.0302 170.14 79.012 169.924 79.1377L168.084 80.2071C168.3 80.0814 168.599 80.0996 168.929 80.2903L192.989 94.1814C193.646 94.5608 194.176 95.4779 194.174 96.2358L194.162 100.34C194.161 100.717 194.028 100.981 193.815 101.106L195.655 100.036C195.868 99.9118 196.001 99.6472 196.002 99.2714L196.014 95.1668C196.016 94.4085 195.487 93.4918 194.829 93.1121Z" fill="#BEBEBE"/>
<path d="M192.989 94.1812C193.646 94.5606 194.176 95.4777 194.174 96.2356L194.162 100.34C194.16 101.096 193.627 101.402 192.97 101.023L168.91 87.1314C168.252 86.7521 167.723 85.8326 167.725 85.0771L167.737 80.9724C167.739 80.2145 168.272 79.9107 168.929 80.2905L192.989 94.1812Z" fill="#012138"/>
<path d="M192.191 96.6951L170.124 83.8928C169.872 83.7469 169.667 83.9017 169.667 84.2386C169.667 84.5756 169.872 84.967 170.124 85.1129L192.191 97.9152C192.443 98.0611 192.648 97.9063 192.648 97.5694C192.648 97.2325 192.443 96.841 192.191 96.6951Z" fill="white"/>
<path d="M194.829 107.47L170.769 93.5789C170.439 93.3882 170.14 93.3708 169.924 93.4961L168.084 94.5655C168.3 94.4398 168.599 94.4576 168.929 94.6483L192.989 108.539C193.646 108.919 194.176 109.839 194.174 110.594L194.162 114.701C194.161 115.077 194.029 115.34 193.816 115.464L195.656 114.395C195.869 114.271 196.001 114.007 196.002 113.632L196.014 109.524C196.016 108.769 195.487 107.849 194.829 107.47Z" fill="#BEBEBE"/>
<path d="M192.989 108.539C193.646 108.918 194.176 109.838 194.174 110.593L194.162 114.701C194.16 115.456 193.627 115.76 192.97 115.38L168.91 101.489C168.252 101.11 167.723 100.193 167.725 99.4378L167.737 95.3303C167.739 94.5752 168.272 94.2686 168.929 94.6484L192.989 108.539Z" fill="#012138"/>
<path d="M192.191 110.822L170.124 98.0197C169.872 97.8739 169.667 98.0286 169.667 98.3656C169.667 98.7025 169.872 99.094 170.124 99.2398L192.191 112.042C192.443 112.188 192.648 112.033 192.648 111.696C192.648 111.359 192.443 110.968 192.191 110.822Z" fill="white"/>
<path d="M158.813 121.61L149.023 115.958C148.704 115.774 148.417 115.757 148.209 115.878L146.368 116.948C146.576 116.827 146.865 116.843 147.183 117.027L156.973 122.68C157.606 123.046 158.119 123.934 158.117 124.661L158.085 135.911C158.084 136.272 157.957 136.525 157.752 136.645L159.592 135.575C159.797 135.456 159.925 135.202 159.925 134.841L159.957 123.591C159.959 122.864 159.446 121.976 158.813 121.61Z" fill="#BEBEBE"/>
<path d="M156.973 122.679C157.606 123.045 158.119 123.933 158.117 124.661L158.085 135.911C158.083 136.639 157.566 136.93 156.933 136.564L147.143 130.912C146.509 130.546 145.999 129.663 146.001 128.935L146.033 117.685C146.035 116.957 146.549 116.661 147.182 117.027L156.973 122.679Z" fill="#012138"/>
<path d="M156.652 126.501V126.517L151.988 126.909L147.254 121.076C147.254 120.893 147.383 120.819 147.543 120.911L156.363 126.003C156.522 126.095 156.652 126.318 156.652 126.501Z" fill="white"/>
<path d="M151.988 127.279L156.652 126.886V132.565C156.652 132.748 156.523 132.822 156.363 132.73L147.543 127.637C147.383 127.545 147.254 127.322 147.254 127.139V121.442L151.918 127.193L151.988 127.279Z" fill="white"/>
<path d="M194.426 123.79L150.866 98.6404C150.424 98.3851 150.022 98.3609 149.732 98.5293L147.892 99.5987C148.182 99.4302 148.583 99.4541 149.026 99.7098L192.586 124.859C193.467 125.368 194.177 126.597 194.174 127.61L194.164 130.888C194.163 131.392 193.985 131.746 193.699 131.913L195.539 130.844C195.826 130.677 196.003 130.322 196.005 129.819L196.014 126.541C196.017 125.528 195.307 124.299 194.426 123.79Z" fill="#BEBEBE"/>
<path d="M192.586 124.859C193.467 125.368 194.177 126.597 194.174 127.61L194.164 130.888C194.162 131.901 193.447 132.311 192.566 131.802L149.006 106.652C148.127 106.145 147.415 104.911 147.418 103.899L147.427 100.621C147.43 99.6081 148.147 99.2025 149.025 99.7095L192.586 124.859Z" fill="#012138"/>
<path d="M191.437 127.331L149.508 102.977C149.255 102.831 149.051 102.986 149.051 103.323C149.051 103.66 149.255 104.051 149.508 104.197L191.437 128.551C191.69 128.697 191.895 128.542 191.895 128.205C191.895 127.868 191.69 127.477 191.437 127.331Z" fill="white"/>
<path d="M176.687 131.91L166.896 126.257C166.578 126.074 166.29 126.057 166.082 126.178L164.242 127.247C164.45 127.126 164.738 127.143 165.056 127.327L174.846 132.979C175.48 133.345 175.993 134.233 175.99 134.961L175.959 146.211C175.957 146.571 175.83 146.825 175.625 146.945L177.465 145.875C177.67 145.756 177.798 145.502 177.799 145.141L177.831 133.891C177.833 133.164 177.32 132.276 176.687 131.91Z" fill="#BEBEBE"/>
<path d="M174.846 132.979C175.48 133.345 175.993 134.233 175.991 134.961L175.959 146.211C175.957 146.939 175.44 147.23 174.807 146.864L165.017 141.212C164.383 140.846 163.873 139.962 163.875 139.234L163.907 127.985C163.909 127.257 164.423 126.961 165.056 127.327L174.846 132.979Z" fill="#012138"/>
<path d="M173.968 143.092L165.882 138.424C165.394 138.142 164.997 137.457 164.997 136.897V132.441C164.997 131.881 165.394 131.655 165.882 131.937L173.968 136.605C174.456 136.887 174.853 137.572 174.853 138.131V142.587C174.853 143.148 174.456 143.374 173.968 143.092ZM165.882 132.36C165.598 132.196 165.366 132.328 165.366 132.655V137.111C165.366 137.437 165.598 137.837 165.882 138.001L173.968 142.67C174.252 142.834 174.484 142.702 174.484 142.375V137.919C174.484 137.593 174.253 137.193 173.968 137.029L165.882 132.36Z" fill="white"/>
<path d="M169.925 140.031C168.74 139.346 167.775 137.682 167.775 136.321C167.775 134.961 168.74 134.411 169.925 135.095C171.111 135.78 172.076 137.444 172.076 138.805C172.076 140.166 171.111 140.716 169.925 140.031ZM169.925 135.519C168.943 134.951 168.143 135.407 168.143 136.534C168.143 137.662 168.943 139.041 169.925 139.608C170.908 140.175 171.707 139.72 171.707 138.592C171.707 137.465 170.908 136.086 169.925 135.519Z" fill="white"/>
<path d="M172.478 136.091L167.372 133.143V132.075C167.372 131.707 167.633 131.559 167.953 131.743L171.897 134.021C172.217 134.206 172.478 134.655 172.478 135.022V136.091H172.478ZM167.741 132.932L172.109 135.455V134.809C172.109 134.675 172.014 134.511 171.897 134.444L167.953 132.166C167.836 132.099 167.74 132.153 167.74 132.287L167.741 132.932Z" fill="white"/>
<path d="M194.872 142.391L185.082 136.738C184.763 136.554 184.474 136.537 184.265 136.659L182.425 137.728C182.634 137.607 182.923 137.624 183.241 137.808L193.032 143.46C193.665 143.826 194.175 144.712 194.173 145.44L194.141 156.69C194.14 157.052 194.013 157.306 193.808 157.425L195.648 156.356C195.854 156.236 195.981 155.982 195.982 155.621L196.014 144.371C196.016 143.643 195.506 142.756 194.872 142.391Z" fill="#BEBEBE"/>
<path d="M193.032 143.46C193.666 143.825 194.176 144.712 194.174 145.44L194.142 156.69C194.14 157.418 193.626 157.71 192.992 157.345L183.202 151.692C182.569 151.327 182.056 150.442 182.058 149.714L182.09 138.464C182.092 137.736 182.608 137.442 183.241 137.808L193.032 143.46Z" fill="#012138"/>
<path d="M188.159 143.215C185.921 141.923 184.107 142.598 184.107 144.722C184.107 146.098 184.87 147.742 186.015 149.082C185.961 149.441 185.728 150.194 184.705 149.616C184.705 149.616 186.118 151.174 187.457 150.441C187.685 150.611 187.919 150.769 188.159 150.908C190.397 152.2 192.211 151.525 192.211 149.4C192.211 147.276 190.397 144.507 188.159 143.215Z" fill="white"/>
<path d="M194.17 70.6774L166.383 54.6345C165.869 54.338 165.403 54.3101 165.067 54.5057L163.227 55.575C163.563 55.3795 164.029 55.4074 164.542 55.7039L192.33 71.7472C193.351 72.337 194.177 73.7676 194.174 74.9444L194.146 84.5742C194.145 85.1575 193.939 85.568 193.607 85.7607L195.447 84.6913C195.779 84.4982 195.985 84.0881 195.987 83.5048L196.014 73.875C196.018 72.6982 195.191 71.2672 194.17 70.6774Z" fill="#BEBEBE"/>
<path d="M192.329 71.7467C193.351 72.3365 194.177 73.7675 194.174 74.944L194.146 84.5737C194.143 85.7477 193.312 86.2216 192.29 85.6318L164.503 69.5889C163.481 68.9991 162.655 67.5681 162.659 66.3941L162.686 56.7644C162.689 55.5875 163.521 55.114 164.542 55.7039L192.329 71.7467Z" fill="#012138"/>
<path d="M191.631 74.0583L165.431 58.8703C165.179 58.7245 164.973 58.8792 164.973 59.2162C164.973 59.5531 165.178 59.9446 165.431 60.0904L191.631 75.2784C191.884 75.4242 192.089 75.2695 192.089 74.9326C192.089 74.5956 191.884 74.2041 191.631 74.0583Z" fill="white"/>
<path d="M191.631 77.695L165.431 62.507C165.179 62.3612 164.973 62.5159 164.973 62.8529C164.973 63.1898 165.178 63.5813 165.431 63.7271L191.631 78.9151C191.884 79.0609 192.089 78.9062 192.089 78.5693C192.089 78.2323 191.884 77.8409 191.631 77.695Z" fill="white"/>
<path d="M191.631 81.3317L165.431 66.1438C165.179 65.9979 164.973 66.1527 164.973 66.4896C164.973 66.8265 165.178 67.218 165.431 67.3638L191.631 82.5518C191.884 82.6977 192.089 82.5429 192.089 82.206C192.089 81.8691 191.884 81.4776 191.631 81.3317Z" fill="white"/>
<path d="M149.23 74.4053C149.204 74.3184 149.16 74.2364 149.148 74.1463C149.135 74.0526 149.158 73.9577 149.16 73.8631C149.165 73.653 149.063 73.4434 148.895 73.3169C148.829 73.2668 148.752 73.2288 148.697 73.1666C148.644 73.108 148.615 73.0329 148.573 72.9662C148.367 72.6386 147.915 72.5792 147.529 72.6127C146.73 72.6822 145.971 73.003 145.273 73.3985C144.323 73.9371 143.442 74.6364 142.84 75.5478C142.604 75.9045 142.414 76.2899 142.257 76.6871C142.119 77.0361 142.006 77.3945 141.906 77.7565C141.84 77.9968 141.752 78.232 141.701 78.4768C141.678 78.5891 141.66 78.7071 141.653 78.821C141.647 78.9297 141.663 79.0351 141.597 79.1309C141.518 79.2464 134.075 88.5513 133.547 89.2078C133.082 89.7868 132.706 90.5023 132.163 91.0004C131.031 92.0383 129.563 92.7853 128.193 93.4507C127.079 93.9916 125.105 94.4813 125.597 96.1861C125.742 96.6891 126.157 97.058 126.517 97.4389C127.126 98.0845 127.618 98.84 127.963 99.6581C127.983 99.707 128.007 99.7599 128.053 99.7846C128.119 99.8197 128.199 99.7842 128.266 99.749C130.207 98.7136 135.518 94.9648 136.418 94.4186C136.419 94.3904 136.413 94.3625 136.413 94.3342C136.685 94.1993 136.895 93.9488 137.08 93.6999C137.735 92.8196 138.349 91.9098 138.931 90.9794C139.512 90.0486 140.061 89.0976 140.585 88.1336C141.11 87.1676 141.611 86.1884 142.098 85.2026C142.585 84.2156 143.714 81.8276 143.807 81.6284C143.877 81.4793 143.918 81.2547 144.081 81.1763C144.186 81.1262 144.306 81.1278 144.413 81.0713C144.533 81.0079 144.639 80.919 144.739 80.8269C145.822 79.8241 146.43 78.4231 147.282 77.2175C147.434 77.0026 147.597 76.7913 147.8 76.6249C148.186 76.3085 148.72 76.1514 148.982 75.7264C149.088 75.5543 149.137 75.3547 149.185 75.1587C149.245 74.9107 149.305 74.6485 149.23 74.4053Z" fill="white"/>
<path d="M120.597 183.144C120.653 183.817 120.861 184.44 121.373 184.795C121.669 185 122.04 185.069 122.399 185.083C123.385 185.121 124.381 184.775 125.13 184.134C125.975 183.409 126.496 182.347 127.397 181.694C127.877 181.345 128.438 181.133 128.979 180.891C130.318 180.29 131.563 179.483 132.658 178.507C132.895 178.296 133.177 178.035 133.293 177.731C133.478 177.241 133.283 176.688 132.851 176.421C132.586 176.257 132.276 176.179 131.969 176.124C130.874 175.929 129.75 175.999 128.642 176.099C127.233 176.227 125.813 176.408 124.489 176.907C123.914 177.123 123.36 177.402 122.853 177.751C122.662 177.883 122.385 178.217 122.157 178.258C122.075 178.272 121.534 178.082 121.544 178.05C121.233 179.033 120.922 180.021 120.75 181.038C120.653 181.611 120.535 182.408 120.597 183.144Z" fill="#012138"/>
<path d="M130.812 130.905C130.758 130.521 130.56 130.175 130.38 129.832C129.16 127.511 128.607 124.925 127.723 122.473C127.296 121.289 126.794 120.124 126.099 119.071C125.689 118.449 124.552 116.784 123.576 117.132C123.437 117.182 123.325 117.287 123.219 117.389C121.432 119.115 119.95 121.155 118.849 123.381C117.724 125.654 117.212 127.826 117.205 130.362C117.2 132.246 117.484 134.133 118.075 135.924C118.283 136.556 118.528 137.179 118.658 137.832C118.795 138.521 118.803 139.229 118.811 139.932C118.839 142.67 118.868 145.409 118.897 148.147C118.91 149.405 118.913 150.669 119.001 151.916C119.09 153.165 119.111 154.517 118.756 155.727C118.383 157.001 118.14 158.314 117.98 159.63C117.559 163.093 118.289 166.58 119.015 169.992C119.67 173.068 120.325 176.143 120.979 179.219C121.017 179.398 121.061 179.588 121.189 179.719C121.29 179.823 121.432 179.877 121.572 179.917C122.415 180.157 123.335 180.01 124.137 179.655C124.939 179.301 125.639 178.752 126.297 178.173C126.471 178.02 126.646 177.86 126.751 177.654C127.012 177.14 126.769 176.528 126.551 175.995C124.595 171.223 124.746 165.805 125.933 160.787C126.339 159.071 126.862 157.378 127.097 155.63C127.115 155.499 127.124 155.366 127.122 155.235C127.124 155.226 127.127 155.217 127.13 155.208C129.005 147.478 129.953 139.555 130.795 131.645C130.821 131.399 130.847 131.15 130.812 130.905Z" fill="#091F49"/>
<path d="M145.003 175.274C143.883 175.224 142.756 175.217 141.643 175.37C140.8 175.486 139.86 175.767 139.215 176.344C138.78 176.733 138.445 177.221 138.137 177.716C137.297 179.068 135.749 182.226 137.985 183.139C138.37 183.296 138.803 183.299 139.214 183.236C140.632 183.02 141.851 182.067 143.263 181.818C143.788 181.725 144.324 181.732 144.857 181.717C146.764 181.665 148.715 181.305 150.321 180.277C151.094 179.782 151.594 179.061 151.811 178.163C152.105 176.942 151.36 176.185 150.232 175.927C148.517 175.535 146.76 175.353 145.003 175.274Z" fill="#BEBEBE"/>
<path d="M143.156 174.419C142.018 170.649 141.447 166.709 141.467 162.771C141.483 159.62 141.055 156.308 141.451 153.19C141.849 150.05 141.604 146.623 141.043 143.511C140.134 138.474 137.913 133.699 137.47 128.6C137.302 126.678 137.391 124.731 137.057 122.831C134.778 124.009 132.076 124.343 129.579 123.757C128.277 123.452 127.051 122.91 125.803 122.445C125.282 122.228 124.723 122.181 124.196 121.989C123.727 121.818 123.416 121.534 123.026 121.208C121.052 123.589 119.878 126.622 119.735 129.711C119.626 132.055 120.11 134.42 121.112 136.54C122.161 138.762 123.857 140.328 125.68 141.926C127.44 143.469 129.291 144.972 130.561 146.938C131.658 148.637 132.244 150.803 132.784 152.734C133.394 154.919 133.869 157.155 133.972 159.426C134.067 161.522 133.782 163.459 134.148 165.561C134.314 166.514 134.545 167.456 134.838 168.378C135.908 171.742 137.832 174.969 137.71 178.497C137.705 178.647 137.701 178.81 137.792 178.929C137.862 179.019 137.974 179.064 138.083 179.099C139.532 179.565 141.124 178.932 142.333 178.009C142.749 177.692 143.151 177.322 143.348 176.837C143.656 176.072 143.395 175.209 143.156 174.419Z" fill="#091F49"/>
<path d="M117.237 95.651C116.809 97.9635 117.046 100.507 117.49 102.684C118.137 105.849 119.043 108.961 120.195 111.979C120.664 113.21 121.181 114.448 121.286 115.76C121.471 118.066 120.377 120.26 119.284 122.298C119.182 122.488 119.077 122.693 119.099 122.907C119.117 123.082 119.216 123.236 119.317 123.38C120.643 125.269 122.652 126.615 124.825 127.393C126.997 128.171 129.332 128.411 131.64 128.382C133.599 128.357 135.604 128.13 137.359 127.259C137.458 124.381 137.557 121.503 137.531 118.623C137.507 115.916 136.855 113.071 137.5 110.398C137.733 109.431 138.133 108.512 138.386 107.55C138.655 106.525 138.753 105.455 138.675 104.398C138.612 103.537 138.362 102.583 137.616 102.15C137.383 102.015 137.119 101.942 136.881 101.817C135.75 101.223 135.477 99.632 134.386 98.9666C133.991 98.7258 133.528 98.6321 133.082 98.5076C128.313 97.1732 124.712 91.3156 119.404 92.1588C119.12 92.2036 118.827 92.2557 118.589 92.4173C118.333 92.5915 118.171 92.8727 118.035 93.1514C117.657 93.9299 117.4 94.7739 117.237 95.651Z" fill="#455A64"/>
<path d="M119.572 93.813C119.505 93.9447 119.443 94.0788 119.397 94.219C119.061 95.2444 120.016 95.9239 120.805 96.361C122.076 97.0656 123.542 97.3791 124.996 97.3852C125.874 97.3888 126.75 97.283 127.608 97.1008C127.939 97.0305 128.167 97.0228 128.333 96.7246C128.527 96.3764 128.551 95.9429 128.572 95.5547C128.62 94.6768 128.643 93.7973 128.667 92.9186C128.704 91.5567 128.741 90.1952 128.778 88.8333C128.793 88.2584 127.992 88.4229 127.565 88.3675C126.945 88.2871 126.327 88.1982 125.713 88.0823C124.497 87.8528 123.291 87.5175 122.184 86.9547C121.891 86.8056 121.425 86.4477 121.092 86.4303C120.676 86.4085 120.682 86.9588 120.636 87.2937C120.51 88.2204 120.533 89.1585 120.502 90.0914C120.465 91.1842 120.347 92.3037 119.856 93.2805C119.767 93.4599 119.664 93.6344 119.572 93.813Z" fill="white"/>
<path d="M131.107 80.2858C131.231 80.4837 131.355 80.6918 131.38 80.9241C131.404 81.1443 131.336 81.364 131.335 81.5858C131.332 82.3579 132.085 82.877 132.697 83.3473C132.939 83.5335 133.195 83.788 133.156 84.0914C133.141 84.213 133.079 84.3225 133.024 84.432C132.592 85.2885 132.567 86.2629 132.621 87.2006C132.656 87.7965 133.114 89.3919 132.512 89.7741C131.796 90.227 131.02 90.5837 130.21 90.8318C129.735 90.9772 129.161 91.0899 128.704 90.8277C128.311 90.6023 128.046 90.1446 127.69 89.8488C127.267 89.497 126.699 90.0044 126.243 90.1547C125.648 90.351 125.028 90.473 124.404 90.5227C123.191 90.6193 121.955 90.4451 120.818 90.0092C120.091 89.7301 119.395 89.3467 118.822 88.8186C118.181 88.2292 117.713 87.4794 117.282 86.7235C116.704 85.7127 116.168 84.6429 116.044 83.4854C115.913 82.2536 116.273 81.0307 116.859 79.9561C117.438 78.8928 118.164 78.1086 119.116 77.383C120.873 76.0429 123.212 75.769 125.422 75.7666C126.226 75.7658 126.894 75.8321 127.628 76.1439C128.399 76.4716 129.026 77.0004 129.36 77.7567C129.76 78.6641 130.58 79.4426 131.107 80.2858Z" fill="#F4E2D1"/>
<path d="M126.302 85.9993C126.565 85.5549 126.987 85.2252 127.535 84.9275C128.689 84.3008 128.897 82.8715 129.044 81.7096C129.234 80.2148 129.199 78.5382 128.675 77.1153C128.194 75.8112 126.578 75.2848 125.333 75.1313C123.797 74.9422 122.209 75.1131 120.774 75.6916C118.64 76.5517 116.859 78.5628 115.887 80.6051C114.703 83.0921 114.683 85.6712 114.864 88.3501C114.925 89.2555 114.957 89.8898 115.589 90.6016C115.976 91.0371 116.466 91.368 116.974 91.654C119.738 93.2119 123.185 93.5011 126.171 92.4261C126.618 92.2653 127.061 92.071 127.421 91.7615C128.31 90.9967 128.173 89.9294 127.443 89.0996C127.069 88.6745 126.432 88.616 126.146 88.0799C126.012 87.8286 125.991 87.5332 125.991 87.2484C125.993 86.7414 126.102 86.3374 126.302 85.9993Z" fill="#263238"/>
<path d="M162.663 75.4048L148.61 67.2912C148.167 67.0351 147.765 67.0113 147.475 67.1801L145.634 68.2495C145.924 68.0811 146.326 68.1045 146.77 68.3606L160.824 76.4742C161.705 76.9828 162.417 78.2162 162.414 79.2262L162.371 94.3891C162.37 94.8905 162.193 95.2436 161.906 95.4096L163.746 94.3402C164.032 94.1742 164.21 93.8211 164.211 93.3197L164.255 78.1568C164.257 77.1468 163.544 75.9134 162.663 75.4048Z" fill="#BEBEBE"/>
<path d="M160.823 76.474C161.704 76.9826 162.417 78.216 162.414 79.226L162.371 94.389C162.368 95.3986 161.651 95.807 160.77 95.2984L146.717 87.1848C145.836 86.6762 145.123 85.4428 145.127 84.4328L145.169 69.2699C145.172 68.2603 145.889 67.8518 146.77 68.3605L160.823 76.474Z" fill="#012138"/>
<path d="M153.292 76.7423C150.819 75.3142 148.815 76.4563 148.815 79.2944C148.815 82.1301 150.819 85.5871 153.292 87.0152C155.763 88.4422 157.768 87.2988 157.768 84.4632C157.768 81.6247 155.763 78.1688 153.292 76.7423ZM152.199 83.6152V78.997L155.684 83.3194L152.199 83.6152Z" fill="white"/>
<path d="M139.091 108.868C143.53 109.25 147.997 108.922 152.437 108.539C152.458 108.538 152.479 108.533 152.501 108.531C153.621 108.422 153.878 107.481 154.318 106.602C154.711 105.816 155.063 105.01 155.407 104.201C157.256 99.8558 158.881 95.4163 160.296 90.9109C160.554 90.5121 160.977 90.2313 161.353 89.9295C162.888 88.699 164.141 87.1181 164.988 85.3421C165.258 84.7741 165.485 84.0909 165.188 83.5366C165.095 83.3641 164.956 83.2163 164.887 83.0329C164.805 82.8147 164.832 82.5691 164.763 82.3465C164.607 81.8435 164.023 81.5978 163.776 81.1332C163.677 80.9482 163.614 80.7115 163.418 80.6371C163.256 80.5757 163.069 80.6638 162.958 80.7963C162.847 80.9288 162.793 81.0981 162.73 81.2593C162.37 82.1808 161.65 82.9561 160.757 83.3823C160.585 83.4647 160.371 83.531 160.214 83.4231C160.488 82.9844 160.691 82.5008 160.812 81.9978C160.882 81.7065 160.922 81.389 160.8 81.1155C160.677 80.842 160.338 80.6476 160.068 80.7777C159.803 80.905 159.74 81.2431 159.675 81.5292C159.567 82.0071 159.368 82.4644 159.091 82.8688C158.804 83.2886 158.436 83.6494 158.156 84.0736C157.918 84.4319 157.748 84.8298 157.627 85.2415C157.409 85.9857 157.333 86.7816 157.313 87.5544C157.303 87.9661 157.251 88.3939 157.168 88.8161C157.15 88.8597 157.133 88.9038 157.117 88.947C156.653 90.222 150.433 101.961 149.531 103.323C149.267 103.32 149.006 103.315 148.759 103.286C145.822 102.944 142.858 102.466 140.159 101.259C138.792 100.648 137.5 99.853 136.065 99.4252C134.631 98.9973 132.965 98.9925 131.758 99.8788C130.796 100.586 130.305 101.729 130.071 102.868C129.169 107.261 134.748 108.364 137.916 108.747C138.307 108.794 138.699 108.834 139.091 108.868Z" fill="#F4E2D1"/>
<path d="M143.829 105.334C143.844 106.858 143.469 108.306 142.749 109.647C142.49 110.128 142.23 110.304 141.659 110.294C141.251 110.286 140.847 110.237 140.443 110.181C138.169 109.869 135.921 109.37 133.728 108.691C132.682 108.368 131.787 108.134 130.86 107.514C130.354 107.176 129.907 106.742 129.59 106.22C129.072 105.366 128.887 104.347 129.075 103.366C129.414 101.597 130.621 99.9642 132.307 99.2738C132.528 99.1829 132.757 99.1077 132.992 99.0625C133.479 98.9688 133.981 99.0067 134.471 99.0786C135.864 99.2835 137.201 99.7598 138.526 100.235C139.931 100.739 141.335 101.246 142.737 101.756C143.35 101.978 143.385 102.511 143.54 103.075C143.743 103.815 143.822 104.567 143.829 105.334Z" fill="#F2F2F2"/>
<path d="M143.926 74.544C143.541 74.7884 143.123 75.0033 142.829 75.352C142.399 75.8626 142.306 76.585 142.389 77.2475C142.425 77.5372 142.496 77.8313 142.664 78.0701C142.832 78.3088 143.115 78.483 143.405 78.4555C143.676 78.43 143.904 78.2398 144.074 78.0269C144.253 77.801 144.388 77.5396 144.467 77.2621C144.627 76.7054 144.575 76.0707 144.906 75.5948C145.056 75.377 145.274 75.2158 145.474 75.0429C145.728 74.8252 145.962 74.5819 146.147 74.3044C146.281 74.1044 146.391 73.8842 146.433 73.6471C146.475 73.4099 146.445 73.155 146.317 72.951C145.962 72.387 145.502 73.1938 145.266 73.4419C144.866 73.8624 144.415 74.2333 143.926 74.544Z" fill="#F4E2D1"/>
<path d="M229.136 51.3145C226.836 49.987 224.75 49.8633 223.244 50.7392L220.865 52.1213C222.372 51.2458 224.458 51.369 226.757 52.6966C231.332 55.3379 235.026 61.7357 235.011 66.9925C235.004 69.5987 234.083 71.4337 232.598 72.2966L234.976 70.9146C236.461 70.0516 237.382 68.2171 237.389 65.6104C237.404 60.3536 233.71 53.9559 229.136 51.3145Z" fill="#4D4D4D"/>
<path d="M226.757 52.6964C231.332 55.3377 235.026 61.7355 235.011 66.9923C234.996 72.2411 231.278 74.3597 226.703 71.7183C222.135 69.081 218.434 62.6792 218.449 57.4305C218.464 52.1736 222.189 50.0591 226.757 52.6964Z" fill="black"/>
<path d="M226.978 56.5407C224.102 54.8803 221.773 56.2078 221.773 59.5085C221.773 62.8063 224.102 66.8265 226.978 68.487C229.852 70.1462 232.184 68.8166 232.184 65.5192C232.184 62.2189 229.852 58.1999 226.978 56.5407ZM225.707 64.5334V59.1631L229.76 64.1896L225.707 64.5334Z" fill="white"/>
<path d="M233.097 79.1375L225.319 74.6471C224.096 73.9413 222.989 73.8762 222.19 74.3408L219.811 75.7229C220.611 75.2583 221.718 75.3233 222.941 76.0291L230.718 80.5196C233.139 81.917 235.1 85.3143 235.092 88.0954L235.067 97.0412C235.063 98.4229 234.574 99.3957 233.786 99.8534L236.164 98.4713C236.952 98.0132 237.441 97.0404 237.445 95.6587L237.47 86.7129C237.479 83.9322 235.517 80.5349 233.097 79.1375Z" fill="#716C62"/>
<path d="M230.718 80.5197C233.139 81.9172 235.1 85.3144 235.092 88.0955L235.067 97.0413C235.059 99.8224 233.085 100.948 230.664 99.5501L222.886 95.0593C220.458 93.6578 218.497 90.2606 218.505 87.4794L218.531 78.5337C218.539 75.7525 220.513 74.6274 222.94 76.0289L230.718 80.5197Z" fill="#4D556E"/>
<path d="M226.978 81.9548C224.102 80.2943 221.773 81.6219 221.773 84.9226C221.773 88.2204 224.102 92.2406 226.978 93.901C229.852 95.5603 232.184 94.2307 232.184 90.9333C232.184 87.6326 229.852 83.6136 226.978 81.9548ZM225.707 89.9471V84.5767L229.76 89.6033L225.707 89.9471Z" fill="white"/>
<path d="M236.556 108.595L221.991 100.186C221.715 100.027 221.463 100.012 221.281 100.118L218.902 101.5C219.084 101.394 219.336 101.409 219.612 101.568L234.177 109.977C234.73 110.296 235.174 111.065 235.172 111.7L235.125 128.436C235.124 128.747 235.014 128.966 234.836 129.069L237.215 127.687C237.392 127.584 237.502 127.364 237.504 127.054L237.551 110.318C237.552 109.683 237.108 108.914 236.556 108.595Z" fill="#BEBEBE"/>
<path d="M234.177 109.977C234.73 110.296 235.174 111.065 235.172 111.7L235.125 128.436C235.123 129.063 234.676 129.318 234.123 128.999L219.558 120.59C219.012 120.275 218.562 119.502 218.563 118.874L218.611 102.138C218.612 101.503 219.066 101.252 219.612 101.568L234.177 109.977Z" fill="#012138"/>
<path d="M226.978 109.284C224.102 107.623 221.773 108.951 221.773 112.252C221.773 115.55 224.102 119.57 226.978 121.23C229.852 122.89 232.184 121.56 232.184 118.263C232.184 114.962 229.852 110.943 226.978 109.284ZM225.707 117.277V111.906L229.76 116.933L225.707 117.277Z" fill="white"/>
<path fill-rule="evenodd" clip-rule="evenodd" d="M232.52 130.376V129.272L230.986 128.386V129.49L232.52 130.376Z" fill="#012138"/>
<path fill-rule="evenodd" clip-rule="evenodd" d="M235.273 131.965V130.861L233.738 129.975V131.079L235.273 131.965Z" fill="#012138"/>
<path fill-rule="evenodd" clip-rule="evenodd" d="M238.176 133.624L237.71 132.268L236.374 131.496L236.54 132.696C237.088 133.012 237.638 133.333 238.176 133.624Z" fill="#012138"/>
<path fill-rule="evenodd" clip-rule="evenodd" d="M224.252 125.602V124.498L222.718 123.612V124.716L224.252 125.602Z" fill="#012138"/>
<path fill-rule="evenodd" clip-rule="evenodd" d="M227.005 127.191V126.087L225.47 125.201V126.305L227.005 127.191Z" fill="#012138"/>
<path fill-rule="evenodd" clip-rule="evenodd" d="M229.748 128.776V127.672L228.214 126.786V127.89L229.748 128.776Z" fill="#012138"/>
<path fill-rule="evenodd" clip-rule="evenodd" d="M216.648 119.045L217.567 118.902L217.564 117.367L216.602 117.164C216.605 117.794 216.617 118.42 216.648 119.045Z" fill="#012138"/>
<path fill-rule="evenodd" clip-rule="evenodd" d="M218.548 122.263L219.126 121.539C218.68 121.277 218.242 120.788 217.951 120.232L217.141 120.655C217.495 121.328 218.018 121.926 218.548 122.263Z" fill="#012138"/>
<path fill-rule="evenodd" clip-rule="evenodd" d="M221.461 123.992L221.515 122.919L220.179 122.147L219.818 123.041L221.461 123.992Z" fill="#012138"/>
<path fill-rule="evenodd" clip-rule="evenodd" d="M216.602 109.312L217.564 109.867V108.106L216.602 107.551V109.312Z" fill="#012138"/>
<path fill-rule="evenodd" clip-rule="evenodd" d="M216.602 112.47L217.564 113.026V111.264L216.602 110.709V112.47Z" fill="#012138"/>
<path fill-rule="evenodd" clip-rule="evenodd" d="M216.602 115.643L217.564 116.13V114.413L216.602 113.857V115.643Z" fill="#012138"/>
<path fill-rule="evenodd" clip-rule="evenodd" d="M216.602 99.8244L217.564 100.38V98.782L216.602 97.9736V99.8244Z" fill="#012138"/>
<path fill-rule="evenodd" clip-rule="evenodd" d="M216.602 102.983L217.564 103.538V101.777L216.602 101.222V102.983Z" fill="#012138"/>
<path fill-rule="evenodd" clip-rule="evenodd" d="M216.602 106.131L217.564 106.687V104.925L216.602 104.37V106.131Z" fill="#012138"/>
<path fill-rule="evenodd" clip-rule="evenodd" d="M220.677 95.7705L220.878 96.9902L222.283 97.8014V96.6977L220.677 95.7705Z" fill="#012138"/>
<path fill-rule="evenodd" clip-rule="evenodd" d="M217.803 94.377L218.501 95.7768C218.912 95.7845 219.378 96.1416 219.817 96.378L219.378 95.0323C218.843 94.7592 218.295 94.3741 217.803 94.377Z" fill="#012138"/>
<path fill-rule="evenodd" clip-rule="evenodd" d="M216.616 96.4697L217.564 97.5456C217.566 97.2914 217.559 97.0313 217.569 96.782C217.582 96.5348 217.643 96.3186 217.746 96.1522L216.889 94.8359C216.759 95.0319 216.679 95.2852 216.651 95.5724C216.629 95.8621 216.626 96.1655 216.616 96.4697Z" fill="#012138"/>
<path fill-rule="evenodd" clip-rule="evenodd" d="M229.016 100.585V101.689L230.551 102.575V101.471L229.016 100.585Z" fill="#012138"/>
<path fill-rule="evenodd" clip-rule="evenodd" d="M226.263 98.9961V100.1L227.798 100.986V99.8821L226.263 98.9961Z" fill="#012138"/>
<path fill-rule="evenodd" clip-rule="evenodd" d="M223.52 97.4121V98.5162L225.055 99.4022V98.2981L223.52 97.4121Z" fill="#012138"/>
<path fill-rule="evenodd" clip-rule="evenodd" d="M237.4 105.426L237.073 106.34C237.519 106.601 237.965 106.846 238.409 107.121L239.012 106.42C238.484 106.068 237.947 105.749 237.4 105.426Z" fill="#012138"/>
<path fill-rule="evenodd" clip-rule="evenodd" d="M234.532 103.77V104.874L236.013 105.729L236.096 104.673L234.532 103.77Z" fill="#012138"/>
<path fill-rule="evenodd" clip-rule="evenodd" d="M231.788 102.186V103.289L233.323 104.176V103.072L231.788 102.186Z" fill="#012138"/>
<path fill-rule="evenodd" clip-rule="evenodd" d="M240.801 114.518L239.839 113.963V115.724L240.801 116.279V114.518Z" fill="#012138"/>
<path fill-rule="evenodd" clip-rule="evenodd" d="M240.799 111.222L239.839 111.055V112.588L240.801 113.108L240.799 111.222Z" fill="#012138"/>
<path fill-rule="evenodd" clip-rule="evenodd" d="M240.158 107.731L239.366 108.187C239.688 108.73 239.856 109.345 239.839 109.847L240.766 109.741C240.762 109.132 240.548 108.391 240.158 107.731Z" fill="#012138"/>
<path fill-rule="evenodd" clip-rule="evenodd" d="M240.801 124.006L239.839 123.45V125.211L240.801 125.767V124.006Z" fill="#012138"/>
<path fill-rule="evenodd" clip-rule="evenodd" d="M240.801 120.847L239.839 120.292V122.053L240.801 122.609V120.847Z" fill="#012138"/>
<path fill-rule="evenodd" clip-rule="evenodd" d="M240.801 117.699L239.839 117.144V118.905L240.801 119.46V117.699Z" fill="#012138"/>
<path fill-rule="evenodd" clip-rule="evenodd" d="M240.594 133.598L239.719 132.303C239.552 132.681 239.198 132.857 238.778 132.782L239.451 134.183C239.953 134.256 240.38 134.042 240.594 133.598Z" fill="#012138"/>
<path fill-rule="evenodd" clip-rule="evenodd" d="M240.801 130.413L239.838 129.64V131.173L240.782 132.277C240.801 131.673 240.801 131.042 240.801 130.413Z" fill="#012138"/>
<path fill-rule="evenodd" clip-rule="evenodd" d="M240.801 127.187L239.839 126.632V128.393L240.801 128.948V127.187Z" fill="#012138"/>
<path d="M105.523 95.8154L107.054 96.7046C105.361 97.6201 104.239 97.6544 103.501 97.2258L101.97 96.3362C102.709 96.7652 103.83 96.7309 105.523 95.8154Z" fill="#716C62"/>
<path d="M98.6835 98.9599L97.1532 98.0707C96.184 97.5075 95.2212 96.5553 94.3215 95.0625L95.8519 95.9517C96.7516 97.4445 97.7143 98.3967 98.6835 98.9599Z" fill="#716C62"/>
<path d="M89.4125 80.3119L104.635 71.5233C105.28 71.1508 105.863 71.1153 106.284 71.3597L107.814 72.2493C107.394 72.0049 106.811 72.0404 106.166 72.4129L90.9429 81.2015C89.6674 81.938 88.6308 83.7253 88.6352 85.1987L88.67 97.4415C88.672 98.1679 88.9293 98.6782 89.343 98.9186L87.8127 98.0289C87.3986 97.7886 87.1416 97.2779 87.1396 96.5519L87.1049 84.3091C87.1008 82.8353 88.1371 81.048 89.4125 80.3119Z" fill="#716C62"/>
<path d="M90.9429 81.2016C89.6674 81.938 88.6312 83.7249 88.6352 85.1987L88.6699 97.4415C88.674 98.9073 89.7171 99.4939 90.9925 98.7574L95.8519 95.952C98.7449 100.753 102.289 99.9625 104.606 98.6249C106.077 97.7757 107.005 96.7588 107.054 96.7055C101.819 99.5359 102.04 93.9437 102.215 92.278L106.215 89.9688C107.497 89.2282 108.527 87.445 108.523 85.9797L108.488 73.7368C108.484 72.263 107.448 71.6728 106.165 72.4129L90.9429 81.2016Z" fill="#4D556E"/>
<path d="M91.2584 90.8516C91.239 90.686 91.2285 90.5115 91.2281 90.3276C91.2277 90.147 91.237 89.9604 91.2552 89.7734L90.5918 89.9095C90.4932 89.9293 90.4391 89.8396 90.4702 89.7083L90.8221 88.2487C90.8467 88.1432 90.9199 88.0434 90.9982 87.9982C91.0176 87.9873 91.037 87.9792 91.0564 87.9756L91.7182 87.8402C91.8721 87.4354 92.0571 87.0358 92.2696 86.6488L91.8571 86.2392C91.7957 86.1769 91.8151 86.0323 91.8975 85.9143L92.8247 84.6038C92.8574 84.5565 92.8962 84.5205 92.9346 84.4987C92.992 84.4656 93.0489 84.4632 93.0857 84.5007L93.4954 84.9116C93.7769 84.5997 94.0747 84.3145 94.3878 84.0632L94.3854 83.2633C94.385 83.1441 94.4682 82.9999 94.572 82.9401L95.7186 82.2783C95.822 82.2185 95.906 82.2662 95.9064 82.3854L95.9089 83.1853C96.2224 83.0746 96.5205 83.016 96.8017 83.0027L97.2089 82.12C97.2453 82.0404 97.3018 81.977 97.3588 81.9442C97.3972 81.922 97.4356 81.9135 97.4691 81.9224L98.3995 82.1608C98.4835 82.1826 98.5037 82.3046 98.4427 82.4375L98.0343 83.3211C98.2484 83.4617 98.4351 83.6467 98.5894 83.8737L99.2499 83.2455C99.2693 83.2269 99.2891 83.212 99.3085 83.2007C99.3873 83.155 99.4608 83.1704 99.4859 83.2471L99.845 84.2963C99.8765 84.3917 99.8232 84.5432 99.7246 84.6373L99.0629 85.2663C99.0807 85.4324 99.0928 85.6069 99.0932 85.7875C99.0936 85.9709 99.0831 86.158 99.0661 86.3446L99.7295 86.2089C99.8281 86.1891 99.8822 86.2788 99.8511 86.4101L99.4992 87.8697C99.4742 87.9739 99.401 88.0749 99.3218 88.1206C99.3025 88.1315 99.2831 88.1396 99.2637 88.1432L98.6019 88.2786C98.4492 88.6826 98.2642 89.0809 98.0517 89.4691L98.4642 89.8788C98.5256 89.941 98.5062 90.0856 98.4225 90.2044L97.4966 91.5146C97.4634 91.5619 97.4251 91.5974 97.3871 91.6192C97.3293 91.6524 97.2728 91.6544 97.2356 91.618L96.8247 91.2063C96.5443 91.519 96.2466 91.8043 95.9335 92.0551L95.9359 92.8539C95.9363 92.9742 95.8531 93.1173 95.7493 93.1771L94.6027 93.8392C94.4993 93.899 94.4153 93.8525 94.4149 93.7321L94.4124 92.9338C94.0989 93.0445 93.8008 93.1031 93.5184 93.1156L93.1124 93.9992C93.0756 94.0784 93.0186 94.1422 92.9609 94.1753C92.9229 94.1976 92.8845 94.206 92.8518 94.1971L91.9202 93.9596C91.8377 93.937 91.8171 93.815 91.8781 93.6825L92.2866 92.7989C92.0725 92.6567 91.8858 92.4733 91.7303 92.247L91.0697 92.8753C91.0508 92.8934 91.0314 92.908 91.0124 92.9193C90.934 92.9645 90.8601 92.9488 90.835 92.8732L90.4759 91.8241C90.4443 91.7287 90.4977 91.5776 90.5963 91.4831L91.2584 90.8516ZM95.1695 91.2241C96.6914 90.3454 97.9216 88.2151 97.9163 86.4662C97.9115 84.7185 96.6736 84.0147 95.1514 84.8934C93.6307 85.7713 92.4005 87.9 92.4058 89.6477C92.411 91.3966 93.6489 92.102 95.1695 91.2241Z" fill="white"/>
<path d="M100.627 84.6269C100.67 84.3437 100.739 84.0581 100.832 83.7732L100.428 83.669C100.368 83.6533 100.354 83.5652 100.397 83.4715L100.878 82.4299C100.904 82.373 100.945 82.3273 100.987 82.3035C101.014 82.2877 101.041 82.2813 101.065 82.2877L101.469 82.392C101.633 82.1221 101.815 81.8635 102.01 81.6244L101.855 81.1695C101.833 81.1008 101.871 80.9925 101.941 80.925L102.721 80.1833C102.735 80.1696 102.749 80.1591 102.763 80.151C102.819 80.1187 102.872 80.13 102.89 80.1849L103.045 80.641C103.156 80.5627 103.266 80.4883 103.38 80.4229C103.495 80.3566 103.606 80.3025 103.717 80.2528L103.869 79.6193C103.887 79.5434 103.939 79.4719 103.995 79.4395C104.009 79.4315 104.023 79.4258 104.037 79.4234L104.819 79.2634C104.889 79.2505 104.928 79.3139 104.905 79.4084L104.753 80.0403C104.95 80.0532 105.132 80.1017 105.297 80.1813L105.699 79.6116C105.722 79.5781 105.75 79.5527 105.777 79.5369C105.819 79.5131 105.86 79.5114 105.886 79.5377L106.371 80.0217C106.415 80.0653 106.402 80.1692 106.342 80.254L105.94 80.8236C106.034 81.0006 106.105 81.2054 106.149 81.4381L106.647 81.1509C106.722 81.1076 106.782 81.1404 106.782 81.2264L106.785 82.1698C106.785 82.2542 106.726 82.3576 106.651 82.4008L106.153 82.6881C106.11 82.9713 106.041 83.2569 105.948 83.5417L106.352 83.646C106.412 83.6617 106.426 83.7498 106.383 83.8423L105.902 84.885C105.876 84.942 105.835 84.9877 105.794 85.0115C105.766 85.0273 105.739 85.0337 105.715 85.0273L105.311 84.923C105.147 85.1929 104.965 85.4515 104.77 85.6906L104.925 86.1455C104.948 86.2142 104.909 86.3225 104.839 86.3887L104.059 87.1321C104.046 87.145 104.032 87.1551 104.018 87.1628C103.962 87.1955 103.908 87.1846 103.89 87.1305L103.735 86.6744C103.624 86.7527 103.513 86.8255 103.398 86.8917C103.285 86.9572 103.174 87.0129 103.062 87.0626L102.911 87.6961C102.892 87.7712 102.839 87.8435 102.783 87.8759C102.77 87.8835 102.756 87.8892 102.742 87.892L101.961 88.0504C101.891 88.0649 101.852 88.0011 101.874 87.9066L102.026 87.2747C101.83 87.2618 101.647 87.2133 101.482 87.1337L101.08 87.7034C101.057 87.7369 101.029 87.7623 101.002 87.7781C100.96 87.8019 100.919 87.8035 100.893 87.7773L100.408 87.2921C100.364 87.2501 100.377 87.1458 100.437 87.061L100.839 86.4914C100.745 86.3144 100.674 86.11 100.63 85.8769L100.132 86.1641C100.058 86.2073 99.9973 86.173 99.9969 86.0886L99.9941 85.1452C99.9937 85.0592 100.053 84.9574 100.128 84.9141L100.627 84.6269ZM103.396 85.9241C104.485 85.2955 105.365 83.7704 105.362 82.5188C105.358 81.2672 104.472 80.7622 103.383 81.3913C102.295 82.0195 101.415 83.5442 101.418 84.7958C101.422 86.0474 102.308 86.5524 103.396 85.9241Z" fill="white"/>
<path d="M94.4649 145.053L77.7951 135.428C77.4751 135.244 77.5151 134.921 77.8848 134.707L94.2641 125.251C94.6338 125.037 95.1925 125.014 95.5125 125.199L112.182 134.823C112.502 135.008 112.462 135.331 112.093 135.544L95.7133 145.001C95.3436 145.214 94.7845 145.237 94.4649 145.053Z" fill="#F2F2F2"/>
<path d="M95.0879 135.843L79.1542 126.644L94.9885 117.502L110.922 126.701L95.0879 135.843Z" fill="#F2F2F2"/>
<path d="M95.0823 134.84L80.8926 126.647L94.9938 118.506L109.183 126.698L95.0823 134.84Z" fill="#E6E6E6"/>
<path d="M95.088 143.927V135.843L110.922 126.701V134.785L95.088 143.927Z" fill="#BFBFBF"/>
<path d="M79.1542 126.645V134.729L95.0879 143.928V135.844L79.1542 126.645Z" fill="#E6E6E6"/>
<path d="M84.3508 128.644L83.2293 127.999L83.0382 125.405L82.6403 119.868L83.7541 120.409L84.0724 124.809L84.3508 128.644Z" fill="#4D4D4D"/>
<path d="M83.7537 120.409L82.6366 119.868L96.5346 111.844L97.6517 112.385L83.7537 120.409Z" fill="#737373"/>
<path d="M98.8552 128.97L92.8324 132.447L91.8854 132.996L91.8058 133.044L91.7977 132.941L91.201 132.599L90.0795 131.954L89.4905 131.612L88.369 130.967L87.7723 130.625L86.6504 129.973L86.0694 129.639L84.9398 128.986L84.3508 128.644L84.0724 124.809L83.7541 120.41L97.6537 112.382L97.7095 113.178L97.7967 114.307L97.8525 115.103V115.111L97.9321 116.241L97.9878 117.036L98.0755 118.174L98.1308 118.962L98.2104 120.099L98.2347 120.378L98.2662 120.895L98.3538 122.033L98.8552 128.97Z" fill="#1F2125"/>
<path d="M86.0694 129.638L84.9398 128.986L84.6134 124.498L84.3508 120.887L85.4727 121.428L85.6476 123.902L86.0694 129.638Z" fill="#4D4D4D"/>
<path d="M85.4697 121.428L84.3522 120.887L98.2506 112.863L99.3677 113.404L85.4697 121.428Z" fill="#737373"/>
<path d="M100.573 129.988L93.6278 133.998L92.9196 133.592L91.8853 132.995L91.8058 133.043L91.7977 132.94L91.201 132.598L90.0795 131.953L89.4904 131.611L88.3689 130.967L87.7722 130.624L86.6503 129.972L86.0694 129.638L85.6476 123.901L85.4727 121.427L97.7967 114.306L99.3642 113.399L99.4199 114.203L99.5072 115.333L99.563 116.12L99.6426 117.266L99.7064 118.054L99.786 119.192L99.8413 119.979V119.987L99.929 121.117V121.125L99.9451 121.363L100.573 129.988Z" fill="#1F2125"/>
<path d="M87.7723 130.625L86.6503 129.973L86.189 123.592L86.0694 121.905L87.1832 122.447L87.2232 122.995L87.7723 130.625Z" fill="#4D4D4D"/>
<path d="M87.1848 122.447L86.0674 121.907L99.9658 113.883L101.083 114.423L87.1848 122.447Z" fill="#737373"/>
<path d="M102.261 130.696L95.0839 134.842L93.6278 133.998L92.9196 133.592L91.8854 132.996L91.8058 133.043L91.7977 132.94L91.201 132.598L90.0795 131.953L89.4905 131.611L88.369 130.967L87.7723 130.625L87.2232 122.995L87.1832 122.446L97.9321 116.24L101.083 114.426L101.139 115.214L101.226 116.351L101.282 117.139V117.147L101.361 118.277L101.417 119.073L101.505 120.21L101.656 122.35L102.261 130.696Z" fill="#1F2125"/>
<path d="M89.4904 131.612L88.3689 130.967L87.7799 122.924L88.9018 123.465L89.4904 131.612Z" fill="#4D4D4D"/>
<path d="M88.9002 123.467L87.7831 122.926L101.681 114.902L102.799 115.443L88.9002 123.467Z" fill="#737373"/>
<path d="M103.843 129.782L102.26 130.698L95.0838 134.843L93.6278 133.999L92.9196 133.593L91.8853 132.997L91.8057 133.044L91.7977 132.941L91.201 132.599L90.0795 131.954L89.4904 131.612L88.9018 123.465L96.2453 119.232L98.0754 118.174L99.6425 117.267L101.226 116.352L102.801 115.445L102.857 116.233L102.944 117.371L103 118.159L103.08 119.304L103.374 123.346L103.843 129.782Z" fill="#1F2125"/>
<path d="M91.201 132.598L90.0795 131.953L89.4985 123.941L90.6124 124.482L91.201 132.598Z" fill="#4D4D4D"/>
<path d="M90.616 124.486L89.4985 123.945L103.397 115.921L104.514 116.461L90.616 124.486Z" fill="#737373"/>
<path d="M105.419 128.875L103.843 129.782L102.26 130.697L95.0838 134.842L93.6278 133.998L92.9196 133.592L91.8854 132.996L91.8058 133.043L91.7977 132.94L91.201 132.598L90.6124 124.483L97.9797 120.234L98.2104 120.099L99.786 119.192L101.361 118.277L102.944 117.37L104.512 116.463L104.567 117.251L104.655 118.388V118.396L105.084 124.332L105.419 128.875Z" fill="#1F2125"/>
<path d="M92.9196 133.593L91.8854 132.997L91.8058 133.044L91.7977 132.941L91.2172 124.969L92.331 125.51L92.8324 132.448L92.9196 133.593Z" fill="#4D4D4D"/>
<path d="M92.3314 125.506L91.2144 124.965L105.112 116.941L106.23 117.482L92.3314 125.506Z" fill="#737373"/>
<path d="M106.986 127.961L105.419 128.876L103.843 129.783L102.261 130.698L95.0838 134.843L93.6278 133.999L92.9196 133.594L92.8324 132.448L92.331 125.51L98.3538 122.033L99.7303 121.238L99.929 121.126L101.329 120.315L101.505 120.211L103.08 119.304L104.655 118.397L106.23 117.482L106.795 125.319L106.986 127.961Z" fill="#1F2125"/>
<path d="M96.2506 130.526L98.2597 130.716V131.61L94.8835 131.315L98.2597 127.131V128.025L96.2506 130.526Z" fill="#F2F2F2"/>
<path d="M99.78 131.955L99.1307 132.329C99.7723 129.972 100.251 128.206 100.567 127.03L101.285 124.38L101.934 124.005L99.78 131.955Z" fill="#F2F2F2"/>
<path d="M104.669 125.666L102.652 125.48V124.595L106.036 124.876L102.652 129.074V128.171L104.669 125.666Z" fill="#F2F2F2"/>
<path d="M174.471 201.501C170.608 203.731 164.325 203.72 160.438 201.476C156.55 199.231 156.531 195.604 160.394 193.373C164.257 191.143 170.539 191.155 174.427 193.399C178.314 195.643 178.334 199.271 174.471 201.501Z" fill="#F2F2F2"/>
<path d="M175.89 196.846C175.905 194.15 172.13 191.943 167.459 191.918C162.789 191.893 158.99 194.058 158.976 196.755C158.961 199.452 162.736 201.658 167.407 201.683C172.078 201.709 175.876 199.543 175.89 196.846Z" fill="#C4C4C4"/>
<path d="M175.604 180.869H159.266V196.179C159.221 197.424 160.022 198.679 161.673 199.633C164.874 201.48 170.047 201.49 173.228 199.654C174.877 198.701 175.665 197.44 175.597 196.188L175.604 180.869Z" fill="#D9D9D9"/>
<path d="M175.89 181.183C175.905 178.487 172.13 176.28 167.459 176.255C162.788 176.23 158.99 178.395 158.975 181.092C158.961 183.789 162.735 185.995 167.406 186.02C172.077 186.046 175.875 183.88 175.89 181.183Z" fill="#F2F2F2"/>
<path d="M169.204 185.922C169.204 185.922 169.203 185.924 169.202 185.922C166.503 186.245 163.576 185.798 161.471 184.584C161.096 184.368 160.763 184.136 160.472 183.892L161.909 183.095L168.897 184.883L169.204 185.922Z" fill="#716C62"/>
<path d="M174.095 182.637C173.752 183.157 173.217 183.644 172.491 184.063C169.714 185.666 165.199 185.659 162.404 184.045C161.663 183.618 161.119 183.121 160.769 182.591C159.799 181.121 160.333 179.4 162.374 178.222C165.15 176.619 169.666 176.626 172.46 178.24C174.524 179.432 175.071 181.166 174.095 182.637Z" fill="#999999"/>
<path d="M174.095 182.636C173.752 183.156 173.217 183.644 172.491 184.062C169.714 185.665 165.199 185.658 162.404 184.044C161.663 183.617 161.119 183.12 160.769 182.59C161.113 182.07 161.648 181.583 162.374 181.164C165.15 179.561 169.665 179.568 172.46 181.182C173.201 181.609 173.745 182.106 174.095 182.636Z" fill="#4D556E"/>
<path d="M162.373 178.974C165.15 177.37 169.666 177.379 172.46 178.992C173.698 179.706 174.389 180.616 174.534 181.547C174.723 180.367 174.031 179.146 172.46 178.239C169.666 176.625 165.15 176.617 162.373 178.22C160.827 179.113 160.147 180.318 160.33 181.489C160.477 180.57 161.158 179.675 162.373 178.974Z" fill="#D9D9D9"/>
<path d="M169.001 200.387C168.981 200.391 168.961 200.393 168.942 200.393C168.787 200.397 168.636 200.308 168.524 200.196C168.182 199.861 168.078 199.34 167.749 198.99C167.483 198.704 167.092 198.559 166.821 198.277C166.62 198.065 166.498 197.791 166.299 197.577C166.101 197.364 165.767 197.222 165.519 197.374C165.345 197.48 165.214 197.717 165.014 197.679C164.954 197.668 164.902 197.631 164.856 197.592C164.54 197.324 164.407 196.891 164.38 196.477C164.352 196.062 164.413 195.647 164.408 195.231C164.405 195.031 164.386 194.827 164.312 194.642C164.13 194.193 163.652 193.919 163.454 193.477C163.347 193.235 163.318 192.941 163.114 192.774C162.93 192.624 162.669 192.631 162.434 192.645C162.371 192.649 162.304 192.654 162.252 192.691C162.186 192.739 162.164 192.825 162.147 192.905C161.82 194.476 162.142 196.183 161.496 197.654C161.387 197.903 161.226 198.162 160.964 198.239C160.86 198.27 160.741 198.25 160.647 198.198C160.317 198.02 160.471 197.446 160.471 197.128V183.893C160.762 184.136 161.095 184.368 161.47 184.584C163.574 185.8 166.503 186.247 169.203 185.923V198.441C169.204 198.803 169.405 200.312 169.001 200.387Z" fill="#4D556E"/>
<path d="M199.202 187.527C199.219 184.363 194.79 181.774 189.31 181.745C183.83 181.715 179.373 184.256 179.356 187.42C179.339 190.584 183.768 193.172 189.248 193.202C194.729 193.232 199.185 190.691 199.202 187.527Z" fill="#F2F2F2"/>
<path d="M197.736 186.887C197.751 184.191 193.976 181.984 189.305 181.959C184.635 181.934 180.836 184.099 180.822 186.796C180.807 189.493 184.582 191.699 189.253 191.724C193.924 191.75 197.722 189.584 197.736 186.887Z" fill="#C4C4C4"/>
<path d="M197.451 170.911H181.113V186.221C181.068 187.466 181.87 188.721 183.52 189.675C186.721 191.522 191.894 191.532 195.075 189.696C196.725 188.743 197.512 187.482 197.444 186.23L197.451 170.911Z" fill="#D9D9D9"/>
<path d="M197.736 171.224C197.75 168.528 193.976 166.321 189.305 166.296C184.634 166.271 180.836 168.436 180.821 171.133C180.807 173.83 184.581 176.036 189.252 176.061C193.923 176.087 197.721 173.921 197.736 171.224Z" fill="#F2F2F2"/>
<path d="M191.051 175.964C191.051 175.964 191.05 175.966 191.048 175.964C188.35 176.287 185.422 175.84 183.317 174.626C182.943 174.41 182.61 174.178 182.319 173.934L183.755 173.137L190.744 174.925L191.051 175.964Z" fill="#BEBEBE"/>
<path d="M195.942 172.678C195.598 173.198 195.063 173.685 194.338 174.104C191.561 175.707 187.046 175.7 184.251 174.086C183.51 173.659 182.966 173.162 182.616 172.632C181.646 171.162 182.18 169.441 184.22 168.263C186.997 166.66 191.512 166.667 194.307 168.281C196.371 169.474 196.919 171.207 195.942 172.678Z" fill="#999999"/>
<path d="M195.942 172.678C195.598 173.198 195.063 173.686 194.338 174.104C191.561 175.707 187.046 175.7 184.251 174.086C183.51 173.659 182.966 173.162 182.616 172.632C182.96 172.112 183.495 171.625 184.22 171.206C186.997 169.603 191.512 169.61 194.307 171.224C195.048 171.651 195.593 172.148 195.942 172.678Z" fill="#012138"/>
<path d="M184.22 169.016C186.997 167.413 191.513 167.421 194.307 169.035C195.545 169.749 196.235 170.659 196.381 171.59C196.57 170.409 195.878 169.189 194.307 168.282C191.513 166.668 186.996 166.66 184.22 168.263C182.674 169.156 181.994 170.361 182.177 171.532C182.324 170.612 183.004 169.718 184.22 169.016Z" fill="#D9D9D9"/>
<path d="M190.848 190.429C190.828 190.433 190.808 190.435 190.789 190.435C190.634 190.439 190.483 190.35 190.371 190.239C190.029 189.903 189.925 189.382 189.596 189.032C189.33 188.746 188.939 188.602 188.668 188.319C188.467 188.107 188.345 187.833 188.146 187.619C187.948 187.407 187.614 187.264 187.366 187.416C187.192 187.522 187.061 187.759 186.861 187.722C186.801 187.71 186.749 187.673 186.703 187.634C186.387 187.366 186.254 186.933 186.227 186.519C186.199 186.104 186.26 185.69 186.255 185.273C186.252 185.073 186.234 184.869 186.159 184.684C185.977 184.235 185.499 183.961 185.302 183.519C185.194 183.278 185.165 182.984 184.962 182.816C184.778 182.666 184.517 182.673 184.281 182.687C184.218 182.691 184.152 182.696 184.1 182.733C184.033 182.782 184.012 182.868 183.994 182.947C183.668 184.518 183.99 186.226 183.344 187.696C183.235 187.945 183.074 188.204 182.812 188.281C182.707 188.312 182.589 188.293 182.495 188.241C182.165 188.063 182.319 187.489 182.319 187.171V173.936C182.61 174.179 182.943 174.411 183.317 174.627C185.422 175.843 188.351 176.29 191.05 175.966V188.484C191.051 188.845 191.252 190.355 190.848 190.429Z" fill="#012138"/>
<path d="M235.338 186.462C231.475 188.692 225.192 188.681 221.304 186.436C217.417 184.192 217.397 180.565 221.26 178.334C225.123 176.104 231.406 176.115 235.294 178.36C239.181 180.604 239.2 184.232 235.338 186.462Z" fill="#F2F2F2"/>
<path d="M234.298 185.23C231.005 187.131 225.651 187.121 222.337 185.208C219.024 183.295 219.008 180.204 222.3 178.303C225.592 176.402 230.947 176.412 234.26 178.325C237.573 180.237 237.59 183.329 234.298 185.23Z" fill="#C4C4C4"/>
<path d="M236.471 165.83H220.132V181.14C220.087 182.385 220.889 183.64 222.539 184.593C225.74 186.441 230.914 186.451 234.095 184.614C235.744 183.662 236.532 182.401 236.463 181.149L236.471 165.83Z" fill="#D9D9D9"/>
<path d="M236.755 166.143C236.769 163.447 232.995 161.24 228.324 161.215C223.653 161.19 219.855 163.355 219.84 166.052C219.825 168.748 223.6 170.955 228.271 170.98C232.942 171.005 236.74 168.84 236.755 166.143Z" fill="#F2F2F2"/>
<path d="M230.07 170.883C230.07 170.883 230.069 170.884 230.068 170.883C227.369 171.206 224.442 170.759 222.337 169.545C221.962 169.329 221.629 169.097 221.339 168.853L222.775 168.056L229.764 169.844L230.07 170.883Z" fill="#737373"/>
<path d="M234.962 167.598C234.618 168.118 234.083 168.605 233.358 169.024C230.581 170.627 226.066 170.62 223.271 169.006C222.53 168.579 221.986 168.082 221.636 167.552C220.666 166.082 221.2 164.361 223.24 163.183C226.017 161.58 230.532 161.587 233.327 163.201C235.391 164.394 235.938 166.127 234.962 167.598Z" fill="#999999"/>
<path d="M234.962 167.597C234.618 168.117 234.083 168.604 233.358 169.023C230.581 170.626 226.066 170.619 223.271 169.005C222.53 168.578 221.986 168.081 221.636 167.551C221.98 167.031 222.515 166.544 223.24 166.125C226.017 164.522 230.532 164.529 233.327 166.143C234.068 166.57 234.612 167.067 234.962 167.597Z" fill="#1F2125"/>
<path d="M223.24 163.935C226.016 162.332 230.532 162.34 233.326 163.954C234.564 164.668 235.255 165.578 235.401 166.509C235.589 165.328 234.897 164.108 233.326 163.201C230.532 161.587 226.016 161.579 223.24 163.182C221.693 164.075 221.013 165.28 221.197 166.451C221.344 165.531 222.024 164.637 223.24 163.935Z" fill="#D9D9D9"/>
<path d="M229.867 185.348C229.848 185.351 229.828 185.354 229.809 185.354C229.653 185.358 229.503 185.269 229.39 185.157C229.048 184.822 228.945 184.301 228.616 183.951C228.349 183.665 227.959 183.52 227.688 183.238C227.486 183.026 227.365 182.752 227.166 182.538C226.967 182.325 226.634 182.183 226.386 182.335C226.211 182.44 226.08 182.678 225.88 182.64C225.821 182.629 225.769 182.592 225.723 182.553C225.407 182.284 225.274 181.852 225.246 181.437C225.219 181.022 225.279 180.608 225.275 180.192C225.271 179.992 225.253 179.787 225.178 179.602C224.997 179.153 224.519 178.88 224.321 178.437C224.214 178.196 224.185 177.902 223.981 177.734C223.797 177.585 223.537 177.592 223.301 177.605C223.238 177.61 223.172 177.615 223.12 177.651C223.053 177.699 223.031 177.786 223.014 177.865C222.688 179.437 223.01 181.144 222.364 182.615C222.255 182.864 222.094 183.122 221.832 183.2C221.727 183.231 221.609 183.211 221.514 183.159C221.185 182.981 221.339 182.406 221.339 182.089V168.854C221.629 169.097 221.962 169.329 222.337 169.545C224.442 170.761 227.37 171.208 230.07 170.884V183.402C230.07 183.764 230.272 185.273 229.867 185.348Z" fill="#1F2125"/>
<path d="M98.1139 177.359C97.583 177.666 96.7306 177.666 96.2029 177.359L82.3086 169.285C81.7878 168.983 81.7907 168.489 82.3219 168.182L96.3072 160.108C96.8312 159.805 97.6905 159.801 98.2112 160.104L112.106 168.178C112.633 168.485 112.624 168.983 112.1 169.285L98.1139 177.359Z" fill="#F2F2F2"/>
<path d="M98.0367 176.123L110.723 168.798C110.963 168.66 111.085 168.476 111.084 168.292L111.077 167.012C111.078 167.196 110.957 167.379 110.717 167.518L98.0298 174.842C97.5482 175.12 96.775 175.12 96.2962 174.842L83.6918 167.518C83.4579 167.382 83.3404 167.203 83.34 167.024L83.3468 168.304C83.3472 168.483 83.4648 168.662 83.6987 168.798L96.3031 176.123C96.7819 176.401 97.5551 176.401 98.0367 176.123Z" fill="#4D556E"/>
<path d="M98.0298 174.842C97.5483 175.12 96.775 175.12 96.2963 174.842L83.6919 167.517C83.2196 167.243 83.222 166.795 83.7036 166.517L96.3904 159.192C96.8659 158.918 97.6452 158.914 98.1175 159.189L110.722 166.514C111.201 166.791 111.192 167.243 110.716 167.517L98.0298 174.842Z" fill="#716C62"/>
<path d="M99.6062 164.54C101.002 164.195 102.29 164.014 103.469 163.997L103.867 164.807C102.745 164.857 101.582 165.039 100.379 165.354C99.1756 165.669 98.0391 166.135 96.9685 166.753C95.8983 167.371 95.0883 168.029 94.5392 168.725C93.9898 169.422 93.6759 170.092 93.5971 170.736L92.1823 170.513C92.2195 169.828 92.537 169.081 93.1349 168.276C93.7329 167.47 94.6124 166.733 95.7719 166.063C96.9325 165.393 98.2104 164.885 99.6062 164.54Z" fill="white"/>
<path d="M122.244 66.599L119.306 68.3063C119.316 68.3006 119.325 68.2933 119.334 68.2845L122.272 66.5771C122.263 66.586 122.254 66.5929 122.244 66.599Z" fill="black"/>
<path d="M115.419 60.0576L118.357 58.3503C118.388 58.3321 118.427 58.3261 118.472 58.3354L115.534 60.0427C115.489 60.0338 115.45 60.0398 115.419 60.0576Z" fill="black"/>
<path d="M119.961 67.6569L122.899 65.9492L122.272 66.5766L119.334 68.2839L119.961 67.6569Z" fill="black"/>
<path d="M115.534 60.0423L118.472 58.335L119.483 58.5418L116.544 60.2495L115.534 60.0423Z" fill="black"/>
<path d="M126.488 69.9817L123.55 71.689C123.601 71.6595 123.632 71.5961 123.632 71.5052L126.57 69.7979C126.57 69.8888 126.539 69.9518 126.488 69.9817Z" fill="black"/>
<path d="M123.636 70.2884L126.574 68.5811L126.57 69.7979L123.632 71.5052L123.636 70.2884Z" fill="black"/>
<path d="M115.973 55.4402L118.911 53.7329C118.964 53.7022 119.037 53.7086 119.113 53.7527C119.142 53.7696 119.173 53.7927 119.202 53.8209L116.264 55.5282C116.234 55.5 116.205 55.4769 116.175 55.46C116.099 55.4159 116.026 55.4095 115.973 55.4402Z" fill="black"/>
<path d="M116.265 55.5286L119.203 53.8213L120.209 54.7788L117.271 56.4861L116.265 55.5286Z" fill="black"/>
<path d="M119.521 57.7473L122.459 56.04C121.706 56.4776 121.239 57.4076 121.236 58.7299C121.228 61.3951 123.102 64.6408 125.421 65.9797L122.484 67.687C120.164 66.3481 118.29 63.102 118.298 60.4372C118.301 59.1149 118.768 58.1849 119.521 57.7473Z" fill="black"/>
<path d="M128.407 66.2712L125.47 67.9785C124.706 68.4221 123.65 68.3599 122.484 67.6868L125.421 65.9795C126.587 66.6526 127.644 66.7148 128.407 66.2712Z" fill="black"/>
<path d="M130.405 70.1301L127.467 71.8374C127.564 71.7813 127.582 71.612 127.498 71.429L130.435 69.7217C130.52 69.9043 130.502 70.0736 130.405 70.1301Z" fill="black"/>
<path d="M126.875 70.0823L129.813 68.375L130.436 69.7211L127.498 71.4288L126.875 70.0823Z" fill="black"/>
<path d="M127.723 69.2415L130.661 67.5342C130.424 67.8788 130.139 68.1584 129.813 68.3749L126.875 70.0822C127.201 69.8661 127.486 69.5861 127.723 69.2415Z" fill="black"/>
<path d="M119.375 53.8147L122.313 52.1074L122.934 53.4527L119.996 55.16L119.375 53.8147Z" fill="black"/>
<path d="M122.084 51.8394C122.026 51.8059 121.967 51.7926 121.916 51.8059L120.498 52.1691C120.485 52.1723 120.474 52.1776 120.463 52.1836L117.525 53.8909C117.536 53.8845 117.547 53.8796 117.56 53.8764L118.978 53.5132C119.029 53.4999 119.088 53.5128 119.147 53.5467C119.234 53.5972 119.32 53.6934 119.375 53.8146L122.313 52.1073C122.258 51.9861 122.172 51.8899 122.084 51.8394Z" fill="#666666"/>
<path d="M131.957 68.5776L129.019 70.2849C129.049 70.2671 129.074 70.2372 129.087 70.1956L132.025 68.4883C132.011 68.5299 131.988 68.5598 131.957 68.5776Z" fill="black"/>
<path d="M119.996 55.1595L122.934 53.4521C123.362 53.4719 123.817 53.5616 124.294 53.7301L121.356 55.4374C120.879 55.2689 120.424 55.1792 119.996 55.1595Z" fill="black"/>
<path d="M129.635 68.597L132.573 66.8896L132.026 68.4879L129.087 70.1956L129.635 68.597Z" fill="black"/>
<path d="M132.389 66.3708L131.381 65.4121L128.443 67.1194L129.451 68.0781C129.601 68.2215 129.682 68.4522 129.635 68.5976L132.573 66.8903C132.621 66.7449 132.54 66.5142 132.389 66.3708Z" fill="#666666"/>
<path d="M128.448 65.4768L131.386 63.7695C131.414 64.0548 131.428 64.3388 131.427 64.6139C131.426 64.8935 131.41 65.1601 131.381 65.4122L128.443 67.1195C128.472 66.8674 128.489 66.6008 128.489 66.3212C128.49 66.0461 128.476 65.7621 128.448 65.4768Z" fill="black"/>
<path d="M123.674 56.7757L126.612 55.0684C127.088 55.4509 127.542 55.8857 127.972 56.3612L125.034 58.0685C124.605 57.593 124.151 57.1583 123.674 56.7757Z" fill="black"/>
<path d="M123.677 55.5573L126.615 53.8496L126.612 55.0689L123.674 56.7762L123.677 55.5573Z" fill="black"/>
<path d="M126.331 53.3577L124.584 52.3489C124.505 52.3028 124.433 52.2988 124.382 52.3287L121.444 54.036C121.495 54.0061 121.567 54.0101 121.647 54.0562L123.394 55.065C123.551 55.1563 123.679 55.3761 123.678 55.5575L126.616 53.8501C126.616 53.6687 126.489 53.4486 126.331 53.3577Z" fill="#666666"/>
<path d="M126.902 60.7161L129.84 59.0088C130.164 59.5982 130.446 60.2075 130.68 60.8244L127.742 62.5317C127.508 61.9148 127.226 61.3059 126.902 60.7161Z" fill="black"/>
<path d="M132.511 63.9612L129.573 65.6685C129.646 65.6261 129.677 65.5174 129.644 65.3772L132.582 63.6699C132.615 63.8097 132.584 63.9188 132.511 63.9612Z" fill="black"/>
<path d="M129.108 63.1526L132.045 61.4453L132.582 63.6697L129.644 65.377L129.108 63.1526Z" fill="black"/>
<path d="M131.777 61.064C131.748 61.0471 131.718 61.0349 131.689 61.0293L130.68 60.8232L127.742 62.5305L128.751 62.7366C128.781 62.7422 128.811 62.7544 128.84 62.7709C128.959 62.8396 129.07 62.9919 129.108 63.1523L132.046 61.445C132.008 61.285 131.896 61.1327 131.777 61.064Z" fill="#666666"/>
<path d="M127.53 60.0911L130.468 58.3838L129.84 59.008L126.902 60.7153L127.53 60.0911Z" fill="black"/>
<path d="M129.451 68.0782C129.601 68.2216 129.682 68.4523 129.635 68.5973L129.087 70.1959C129.049 70.3111 128.936 70.3353 128.817 70.2662C128.788 70.2497 128.758 70.227 128.729 70.1992L127.723 69.2417C127.486 69.5863 127.201 69.8663 126.875 70.0824L127.498 71.4285C127.591 71.6309 127.559 71.8164 127.434 71.8511L126.014 72.2131C125.964 72.2268 125.906 72.2135 125.848 72.18C125.76 72.1295 125.673 72.0321 125.617 71.9117L124.998 70.5656C124.568 70.547 124.113 70.4569 123.635 70.2888L123.632 71.5057C123.631 71.6891 123.504 71.7598 123.346 71.6689L121.599 70.6601C121.441 70.5692 121.314 70.3515 121.314 70.168L121.318 68.9512C120.841 68.5686 120.387 68.1339 119.96 67.6576L119.334 68.285C119.277 68.3408 119.191 68.3379 119.103 68.287C119.045 68.2535 118.987 68.1994 118.936 68.1274L117.525 66.1313C117.398 65.9507 117.368 65.7301 117.461 65.6352L118.09 65.011C117.766 64.4191 117.484 63.8123 117.251 63.1966L116.243 62.9906C116.213 62.9845 116.183 62.9728 116.154 62.9558C116.034 62.8863 115.922 62.7324 115.884 62.5732L115.347 60.3492C115.3 60.1493 115.382 60.0131 115.533 60.043L116.543 60.2502C116.517 59.9662 116.501 59.681 116.502 59.4014C116.502 59.1263 116.52 58.8609 116.548 58.6076L115.539 57.6489C115.389 57.5055 115.308 57.2748 115.356 57.1298L115.903 55.5311C115.942 55.4148 116.054 55.3913 116.174 55.4608C116.203 55.4778 116.234 55.5008 116.263 55.5291L117.27 56.4866C117.505 56.1412 117.789 55.8588 118.116 55.6446L117.493 54.2985C117.4 54.0961 117.431 53.9107 117.559 53.8771L118.976 53.514C119.028 53.5006 119.087 53.5136 119.145 53.5475C119.232 53.598 119.318 53.6941 119.374 53.8153L119.994 55.1607C120.423 55.1805 120.877 55.2701 121.355 55.4386L121.358 54.2197C121.359 54.0383 121.487 53.9656 121.644 54.0569L123.391 55.0657C123.549 55.157 123.676 55.3768 123.675 55.5582L123.672 56.7771C124.148 57.1596 124.603 57.5944 125.032 58.0699L125.656 57.4437C125.712 57.3867 125.799 57.3903 125.886 57.4408C125.945 57.4744 126.004 57.5293 126.054 57.6012L127.466 59.5986C127.592 59.778 127.622 59.999 127.528 60.0935L126.9 60.7177C127.224 61.3075 127.506 61.9163 127.74 62.5333L128.749 62.7393C128.778 62.745 128.808 62.7571 128.837 62.7736C128.956 62.8423 129.068 62.9946 129.106 63.155L129.642 65.379C129.689 65.579 129.607 65.7152 129.457 65.6853L128.446 65.478C128.474 65.7632 128.489 66.0472 128.488 66.3224C128.487 66.6019 128.471 66.8686 128.442 67.1207L129.451 68.0782ZM122.484 67.6875C124.801 69.0255 126.687 67.9505 126.695 65.2853C126.703 62.6225 124.828 59.3788 122.511 58.0408C120.192 56.7019 118.305 57.7745 118.298 60.4373C118.29 63.1025 120.164 66.3482 122.484 67.6875Z" fill="#333333"/>
<path d="M130.406 57.889L128.994 55.8916C128.943 55.8197 128.885 55.7652 128.826 55.7312C128.753 55.6888 128.68 55.6795 128.625 55.7114L125.687 57.4187C125.742 57.3868 125.815 57.3961 125.888 57.4385C125.947 57.4721 126.006 57.527 126.056 57.5989L127.468 59.5963C127.594 59.7757 127.624 59.9966 127.53 60.0912L130.468 58.3839C130.562 58.2893 130.532 58.0684 130.406 57.889Z" fill="#666666"/>
<path d="M117.08 45.9302L120.578 43.8973C120.587 43.892 120.597 43.8876 120.608 43.8848L117.11 45.9177C117.099 45.9209 117.089 45.925 117.08 45.9302Z" fill="#012138"/>
<path d="M125.016 50.284L121.518 52.3169C121.544 52.3019 121.564 52.2765 121.577 52.2409L125.074 50.208C125.062 50.2436 125.042 50.269 125.016 50.284Z" fill="#012138"/>
<path d="M117.11 45.9183L120.608 43.8854L121.341 43.6963L117.843 45.7292L117.11 45.9183Z" fill="#012138"/>
<path d="M121.858 51.4134L125.356 49.3809L125.074 50.2082L121.577 52.2408L121.858 51.4134Z" fill="#012138"/>
<path d="M116.399 41.3733L119.897 39.3404C119.941 39.3146 120.003 39.319 120.072 39.3586L116.574 41.3915C116.506 41.3519 116.443 41.3475 116.399 41.3733Z" fill="#012138"/>
<path d="M116.574 41.3909L120.073 39.3584L120.975 39.8796L117.478 41.9125L116.574 41.3909Z" fill="#012138"/>
<path d="M128.672 51.8647L125.175 53.8976C125.236 53.8616 125.262 53.7691 125.234 53.6491L128.732 51.6162C128.76 51.7362 128.734 51.8287 128.672 51.8647Z" fill="#012138"/>
<path d="M124.958 52.5027L128.456 50.4697L128.732 51.6163L125.234 53.6488L124.958 52.5027Z" fill="#012138"/>
<path d="M128.515 48.2676L125.017 50.3005C124.367 50.6787 123.467 50.6253 122.474 50.0521L125.972 48.0195C126.965 48.5924 127.865 48.6457 128.515 48.2676Z" fill="#012138"/>
<path d="M119.951 41.5788L123.449 39.5459C122.806 39.9192 122.408 40.7131 122.405 41.841C122.398 44.1115 123.996 46.8781 125.971 48.019L122.473 50.0515C120.498 48.9106 118.9 46.144 118.907 43.8735C118.91 42.7456 119.309 41.9521 119.951 41.5788Z" fill="#012138"/>
<path d="M117.979 38.4469L121.476 36.4139C121.523 36.3865 121.586 36.3942 121.65 36.4309C121.699 36.4592 121.749 36.5053 121.792 36.5663L118.294 38.5992C118.251 38.5382 118.202 38.4925 118.152 38.4638C118.088 38.4271 118.025 38.4194 117.979 38.4469Z" fill="#96BBFF"/>
<path d="M130.488 51.3994L126.99 53.4324C126.999 53.4275 127.007 53.4211 127.014 53.4138L130.512 51.3809C130.505 51.3881 130.496 51.3942 130.488 51.3994Z" fill="#012138"/>
<path d="M118.294 38.5993L121.792 36.5664L122.521 37.5998L119.023 39.6324L118.294 38.5993Z" fill="#012138"/>
<path d="M119.023 39.6324L122.521 37.5999C122.821 37.4548 123.152 37.3676 123.508 37.3438L120.01 39.3767C119.654 39.4001 119.323 39.4878 119.023 39.6324Z" fill="#012138"/>
<path d="M127.894 52.5329L131.392 50.5L130.512 51.3803L127.014 53.4132L127.894 52.5329Z" fill="#012138"/>
<path d="M131.339 50.0813L130.61 49.0479L127.112 51.0808L127.841 52.1142C127.95 52.2681 127.974 52.4564 127.895 52.5332L131.393 50.5002C131.472 50.4239 131.447 50.2352 131.339 50.0813Z" fill="#96BBFF"/>
<path d="M127.491 49.9655L130.989 47.9326C130.909 48.3552 130.781 48.7265 130.61 49.0473L127.112 51.0802C127.282 50.7594 127.41 50.3881 127.491 49.9655Z" fill="#012138"/>
<path d="M121.615 38.613L125.113 36.5801L125.389 37.7291L121.891 39.762L121.615 38.613Z" fill="#012138"/>
<path d="M124.885 36.2533C124.859 36.2387 124.834 36.2286 124.808 36.2238L123.39 35.9337C123.352 35.9268 123.319 35.9317 123.293 35.947L119.795 37.9796C119.822 37.9642 119.854 37.959 119.892 37.9662L121.31 38.2563C121.336 38.2612 121.361 38.2713 121.387 38.2858C121.489 38.3444 121.583 38.4745 121.615 38.6122L125.113 36.5797C125.081 36.4419 124.986 36.3119 124.885 36.2533Z" fill="#96BBFF"/>
<path d="M132.067 48.4721L128.569 50.505C128.613 50.4796 128.639 50.4263 128.639 50.3503L132.137 48.3174C132.137 48.3929 132.11 48.4467 132.067 48.4721Z" fill="#012138"/>
<path d="M121.891 39.7614L125.389 37.7285C125.59 37.8186 125.792 37.9168 126 38.0372C126.206 38.1559 126.407 38.2905 126.609 38.4327L123.111 40.4656C122.91 40.3234 122.708 40.1889 122.502 40.0701C122.294 39.9497 122.092 39.8515 121.891 39.7614Z" fill="#012138"/>
<path d="M127.126 46.1491L130.623 44.1162C130.792 44.6329 130.917 45.1509 130.995 45.6647L127.498 47.6977C127.42 47.1838 127.294 46.6663 127.126 46.1491Z" fill="#012138"/>
<path d="M128.644 48.6384L132.142 46.6055L132.137 48.3168L128.639 50.3497L128.644 48.6384Z" fill="#012138"/>
<path d="M131.898 46.1862L130.995 45.665L127.498 47.698L128.401 48.2191C128.536 48.2975 128.645 48.4825 128.644 48.6385L132.142 46.6056C132.142 46.4496 132.034 46.265 131.898 46.1862Z" fill="#96BBFF"/>
<path d="M124.987 42.2497L128.485 40.2168C128.84 40.6507 129.169 41.1197 129.467 41.6098L125.969 43.6427C125.672 43.1531 125.342 42.684 124.987 42.2497Z" fill="#012138"/>
<path d="M125.268 41.4251L128.767 39.3926L128.485 40.2175L124.987 42.2501L125.268 41.4251Z" fill="#012138"/>
<path d="M128.611 38.9481L127.196 37.6019C127.17 37.5773 127.145 37.5579 127.119 37.5434C127.055 37.5062 126.994 37.5009 126.949 37.5268L123.451 39.5593C123.496 39.5331 123.557 39.5387 123.622 39.5759C123.647 39.5904 123.673 39.6098 123.698 39.6345L125.113 40.9806C125.24 41.103 125.31 41.2998 125.268 41.4246L128.766 39.3917C128.808 39.2672 128.738 39.0705 128.611 38.9481Z" fill="#96BBFF"/>
<path d="M125.97 43.6429L129.467 41.61L130.2 41.4209L126.703 43.4538L125.97 43.6429Z" fill="#012138"/>
<path d="M128.401 48.2195C128.536 48.2978 128.645 48.4829 128.644 48.6388L128.639 50.3502C128.639 50.5037 128.53 50.5659 128.394 50.4871L127.491 49.9655C127.411 50.3881 127.283 50.7594 127.112 51.0802L127.841 52.1136C127.949 52.2675 127.974 52.4558 127.894 52.5326L127.014 53.4129C126.966 53.4605 126.892 53.4581 126.816 53.4145C126.767 53.3862 126.717 53.3402 126.675 53.2792L125.945 52.2461C125.646 52.3908 125.314 52.4784 124.958 52.5023L125.234 53.6488C125.274 53.8205 125.204 53.9361 125.077 53.9098L123.658 53.6221C123.634 53.6169 123.609 53.6072 123.584 53.5931C123.482 53.5337 123.386 53.4028 123.353 53.2666L123.078 52.1177C122.876 52.0276 122.675 51.9266 122.469 51.8078C122.261 51.6874 122.059 51.5557 121.858 51.4135L121.577 52.2413C121.544 52.3399 121.447 52.3596 121.345 52.3003C121.32 52.2861 121.295 52.2675 121.271 52.2445L119.855 50.896C119.729 50.776 119.659 50.5796 119.7 50.4548L119.981 49.6298C119.626 49.1959 119.297 48.7269 118.999 48.2368L118.266 48.4259C118.223 48.4372 118.173 48.4255 118.124 48.3972C118.049 48.354 117.975 48.2708 117.927 48.1673L117.055 46.2754C116.976 46.1073 117.001 45.9474 117.11 45.9191L117.843 45.73C117.674 45.2133 117.549 44.6954 117.471 44.1815L116.568 43.6603C116.432 43.5819 116.324 43.3945 116.325 43.241L116.329 41.5296C116.33 41.3737 116.439 41.3143 116.575 41.3927L117.478 41.9142C117.558 41.492 117.686 41.1204 117.857 40.7996L117.128 39.7662C117.019 39.6122 116.995 39.424 117.074 39.3448L117.954 38.4669C118.002 38.4192 118.077 38.4216 118.152 38.4653C118.202 38.4936 118.251 38.5396 118.294 38.6006L119.023 39.6336C119.323 39.489 119.654 39.4013 120.01 39.3779L119.735 38.2314C119.694 38.0597 119.765 37.9441 119.892 37.968L121.31 38.258C121.336 38.2629 121.361 38.273 121.387 38.2875C121.489 38.3461 121.583 38.4762 121.615 38.614L121.891 39.7629C122.092 39.853 122.294 39.9512 122.502 40.0716C122.708 40.1904 122.909 40.3249 123.111 40.4671L123.392 39.6393C123.425 39.5395 123.52 39.5189 123.622 39.5775C123.647 39.592 123.673 39.6114 123.698 39.6361L125.114 40.9822C125.24 41.1046 125.31 41.3014 125.269 41.4262L124.988 42.2512C125.342 42.6851 125.672 43.1541 125.97 43.6442L126.703 43.4551C126.746 43.4438 126.795 43.4555 126.845 43.4838C126.92 43.5274 126.994 43.6102 127.042 43.7136L127.914 45.6032C127.993 45.7736 127.967 45.9336 127.859 45.9619L127.126 46.151C127.294 46.6677 127.42 47.1856 127.498 47.6995L128.401 48.2195ZM122.474 50.052C124.447 51.1917 126.055 50.2754 126.062 48.0049C126.068 45.7345 124.471 42.9679 122.497 41.8282C120.521 40.6873 118.914 41.6036 118.907 43.874C118.9 46.1445 120.498 48.9111 122.474 50.052Z" fill="#65A4F7"/>
<path d="M131.412 43.5693L130.54 41.6798C130.492 41.5768 130.418 41.4936 130.343 41.4499C130.293 41.4217 130.244 41.4099 130.2 41.4213L126.703 43.4542C126.746 43.4429 126.795 43.4546 126.845 43.4829C126.92 43.5265 126.994 43.6093 127.042 43.7127L127.914 45.6023C127.985 45.7558 127.971 45.9008 127.889 45.9485L131.386 43.9156C131.469 43.8675 131.483 43.7228 131.412 43.5693Z" fill="#96BBFF"/>
<defs>
<linearGradient id="paint0_linear_142_586" x1="161.5" y1="0" x2="161.5" y2="233" gradientUnits="userSpaceOnUse">
<stop stop-color="white"/>
<stop offset="1" stop-color="#F4F4F4"/>
</linearGradient>
</defs>
</svg>
