<svg width="22" height="26" viewBox="0 0 22 26" fill="none" xmlns="http://www.w3.org/2000/svg">
<g clip-path="url(#clip0_125_607)">
<g clip-path="url(#clip1_125_607)">
<path d="M6.70095 21.924C7.87341 22.4978 8.82198 23.4293 9.40472 24.5768L7.85742 25.3315C7.04979 23.7202 5.28959 22.7826 3.46542 22.9905L3.26451 21.3113C7.94038 20.7805 11.032 15.5789 10.3013 9.4537L12.0205 9.25879C12.6872 14.8472 10.4542 19.795 6.70095 21.924Z" fill="black"/>
<path d="M9.4587 24.5504C8.88796 23.4239 7.96538 22.5033 6.8249 21.9196C10.5482 19.7496 12.7422 14.8108 12.0795 9.25136L12.0725 9.19238L12.0135 9.19938L10.2933 9.39529L10.2343 9.40129L10.2413 9.46026C10.6062 12.5109 10.0174 15.3306 8.75902 17.4516C7.49959 19.5707 5.57347 20.99 3.25752 21.2529L3.19855 21.2599L3.20554 21.3179L3.40645 22.9971L3.41345 23.0541L3.47242 23.0481C5.27061 22.8432 7.00682 23.7678 7.80345 25.356L7.82944 25.409L7.88442 25.383L9.43171 24.6284L9.48469 24.6024L9.4587 24.5504Z" fill="black" stroke="black" stroke-opacity="0.5" stroke-width="0.129941" stroke-miterlimit="10"/>
<path d="M15.2521 21.6602C14.6024 21.8651 13.0411 22.3159 10.0544 20.6377C11.015 18.5536 12.1005 17.3272 13.6538 16.8374C14.3015 16.6325 15.8638 16.1817 18.8514 17.8599C17.8909 19.944 16.8024 21.1704 15.2521 21.6602Z" fill="black"/>
<path d="M9.99946 20.6138L9.97647 20.6617L10.0225 20.6887C11.5228 21.5304 12.6682 21.8412 13.5239 21.9142C14.1136 21.9702 14.7083 21.9032 15.2691 21.7163C16.8453 21.2185 17.9418 19.9761 18.9054 17.883L18.9284 17.835L18.8814 17.809C17.3811 16.9674 16.2356 16.6566 15.38 16.5836C14.7903 16.5276 14.1956 16.5946 13.6348 16.7815C12.0585 17.2793 10.964 18.5217 9.99946 20.6138Z" fill="black" stroke="black" stroke-opacity="0.5" stroke-width="0.129941" stroke-miterlimit="10"/>
<path d="M13.0161 15.0283C13.0371 12.7434 13.5249 11.1941 14.7433 10.1355C15.2531 9.69475 16.4725 8.67121 19.9 9.03305C19.879 11.32 19.4152 12.8653 18.1947 13.9238C16.7374 15.1893 14.8153 15.2232 13.0161 15.0293V15.0283Z" fill="black"/>
<path d="M12.9551 15.0278V15.0807L13.0091 15.0867C14.8093 15.2826 16.7574 15.2516 18.2357 13.9672C19.4741 12.8917 19.9389 11.3254 19.9599 9.03248V8.9805L19.9069 8.9735C18.1857 8.79259 17.0153 8.95751 16.2086 9.22639C15.6499 9.40631 15.1371 9.70217 14.7043 10.092C13.4659 11.1665 12.9761 12.7358 12.9551 15.0278ZM13.0161 15.0278C13.0371 12.7428 13.5248 11.1935 14.7433 10.135C15.2531 9.69418 16.4725 8.67064 19.9 9.03248L13.0161 15.0288V15.0278Z" fill="black" stroke="black" stroke-opacity="0.5" stroke-width="0.129941" stroke-miterlimit="10"/>
<path d="M13.3269 9.09349C12.1745 7.1024 11.8056 5.52312 12.3204 4.00981C12.5343 3.37809 13.085 1.88277 16.2386 0.525391C17.3921 2.51449 17.7609 4.09577 17.2472 5.60708C17.0332 6.23879 16.4805 7.73411 13.3269 9.09349Z" fill="black"/>
<path d="M12.2624 3.99256C11.7417 5.52786 12.1185 7.12614 13.275 9.12223L13.3019 9.16821L13.3509 9.14722C14.9342 8.46453 15.8688 7.74585 16.4345 7.11614C17.0013 6.48643 17.1962 5.94567 17.3041 5.62482C17.8249 4.09152 17.4471 2.49324 16.2916 0.497151L16.2646 0.451172L16.2146 0.473162C14.6313 1.15385 13.6978 1.87153 13.131 2.50224C12.7362 2.93304 12.4403 3.44181 12.2634 3.99356L12.2624 3.99256ZM12.2624 3.99256L12.3204 4.01055L12.2624 3.99256ZM12.2624 3.99256L12.3204 4.01055L12.2624 3.99256ZM12.3204 4.01055C12.5343 3.37884 13.085 1.88352 16.2386 0.526138C17.3921 2.51523 17.7609 4.09651 17.2472 5.60783C17.0332 6.23954 16.4805 7.73486 13.3269 9.09424C12.1745 7.10315 11.8056 5.52386 12.3204 4.01055Z" fill="black"/>
<path d="M12.2624 3.99256C11.7417 5.52786 12.1185 7.12614 13.275 9.12223L13.3019 9.16821L13.3509 9.14722C14.9342 8.46453 15.8688 7.74585 16.4345 7.11614C17.0013 6.48643 17.1962 5.94567 17.3041 5.62482C17.8249 4.09152 17.4471 2.49324 16.2916 0.497151L16.2646 0.451172L16.2146 0.473162C14.6313 1.15385 13.6978 1.87153 13.131 2.50224C12.7362 2.93304 12.4403 3.44181 12.2634 3.99356L12.2624 3.99256ZM12.2624 3.99256L12.3204 4.01055M12.3204 4.01055C12.5343 3.37884 13.085 1.88352 16.2386 0.526138C17.3921 2.51523 17.7609 4.09651 17.2472 5.60783C17.0332 6.23954 16.4805 7.73486 13.3269 9.09424C12.1745 7.10315 11.8056 5.52386 12.3204 4.01055Z" stroke="black" stroke-opacity="0.5" stroke-width="0.129941" stroke-miterlimit="10"/>
</g>
</g>
<defs>
<clipPath id="clip0_125_607">
<rect width="21.99" height="26" fill="white"/>
</clipPath>
<clipPath id="clip1_125_607">
<rect width="21.99" height="25.9882" fill="white"/>
</clipPath>
</defs>
</svg>
