<svg width="18" height="18" viewBox="0 0 18 18" fill="none" xmlns="http://www.w3.org/2000/svg">
<path d="M13.7273 9.71311L13.1774 9.2031L13.7273 9.71311ZM8.20898 4.1948L8.71899 4.74469L8.20898 4.1948ZM16.3474 3.0511L17.0911 3.14836L16.3474 3.0511ZM14.871 1.57468L14.9682 2.31835L14.871 1.57468ZM4.51133 9.58957L5.18475 9.91972L4.51133 9.58957ZM8.33251 13.4108L8.00236 12.7373L8.33251 13.4108ZM5.98018 7.52725C5.68728 7.23436 5.21241 7.23436 4.91952 7.52725C4.62662 7.82015 4.62662 8.29502 4.91952 8.58791L5.98018 7.52725ZM9.33417 13.0026C9.62706 13.2955 10.1019 13.2955 10.3948 13.0026C10.6877 12.7097 10.6877 12.2348 10.3948 11.9419L9.33417 13.0026ZM4.6006 14.3821C4.89349 14.0892 4.89349 13.6144 4.6006 13.3215C4.30771 13.0286 3.83283 13.0286 3.53994 13.3215L4.6006 14.3821ZM1.33261 15.5288C1.03972 15.8217 1.03972 16.2966 1.33261 16.5895C1.62551 16.8824 2.10038 16.8824 2.39327 16.5895L1.33261 15.5288ZM2.9451 12.7266C3.238 12.4338 3.238 11.9589 2.9451 11.666C2.65221 11.3731 2.17734 11.3731 1.88444 11.666L2.9451 12.7266ZM0.780782 12.7696C0.487889 13.0625 0.487889 13.5374 0.780782 13.8303C1.07368 14.1232 1.54855 14.1232 1.84144 13.8303L0.780782 12.7696ZM6.25609 16.0376C6.54899 15.7447 6.54898 15.2699 6.25609 14.977C5.9632 14.6841 5.48833 14.6841 5.19543 14.977L6.25609 16.0376ZM4.09177 16.0806C3.79888 16.3735 3.79888 16.8484 4.09177 17.1413C4.38466 17.4342 4.85954 17.4342 5.15243 17.1413L4.09177 16.0806ZM7.71236 16.1695L8.45482 16.0634L7.71236 16.1695ZM11.7407 13.4655L12.4832 13.3595L11.7407 13.4655ZM1.75256 10.2097L1.85863 9.46728L1.85863 9.46728L1.75256 10.2097ZM4.45653 6.18137L4.35047 6.92384L4.35047 6.92384L4.45653 6.18137ZM7.1687 12.5786L5.34343 10.7534L4.28277 11.814L6.10804 13.6393L7.1687 12.5786ZM13.1774 9.2031C11.7219 10.7724 9.34663 12.0783 8.00236 12.7373L8.66266 14.0842C10.0224 13.4176 12.6187 12.0114 14.2772 10.2231L13.1774 9.2031ZM5.18475 9.91972C5.84378 8.57545 7.14963 6.20022 8.71899 4.74469L7.69896 3.6449C5.91073 5.30343 4.50453 7.89964 3.8379 9.25943L5.18475 9.91972ZM15.6037 2.95384C15.3671 4.76308 14.7414 7.51673 13.1774 9.2031L14.2772 10.2231C16.1843 8.16683 16.8498 4.99326 17.0911 3.14836L15.6037 2.95384ZM8.71899 4.74469C10.4054 3.18065 13.159 2.55497 14.9682 2.31835L14.7737 0.831013C12.9288 1.0723 9.75525 1.73776 7.69896 3.6449L8.71899 4.74469ZM17.0911 3.14836C17.2698 1.78162 16.1405 0.652261 14.7737 0.831013L14.9682 2.31835C15.3581 2.26736 15.6547 2.56401 15.6037 2.95384L17.0911 3.14836ZM5.34343 10.7534C5.10663 10.5166 5.0551 10.1842 5.18475 9.91972L3.8379 9.25943C3.40838 10.1356 3.62136 11.1526 4.28277 11.814L5.34343 10.7534ZM6.10804 13.6393C6.76945 14.3007 7.78652 14.5137 8.66266 14.0842L8.00236 12.7373C7.73791 12.867 7.4055 12.8155 7.1687 12.5786L6.10804 13.6393ZM4.91952 8.58791L9.33417 13.0026L10.3948 11.9419L5.98018 7.52725L4.91952 8.58791ZM3.53994 13.3215L1.33261 15.5288L2.39327 16.5895L4.6006 14.3821L3.53994 13.3215ZM1.88444 11.666L0.780782 12.7696L1.84144 13.8303L2.9451 12.7266L1.88444 11.666ZM5.19543 14.977L4.09177 16.0806L5.15243 17.1413L6.25609 16.0376L5.19543 14.977ZM9.61008 5.04401C8.70765 5.94644 8.70765 7.40957 9.61008 8.312L10.6707 7.25134C10.3541 6.93469 10.3541 6.42132 10.6707 6.10467L9.61008 5.04401ZM9.61008 8.312C10.5125 9.21443 11.9756 9.21443 12.8781 8.312L11.8174 7.25134C11.5008 7.56798 10.9874 7.56798 10.6707 7.25134L9.61008 8.312ZM12.8781 8.312C13.7805 7.40957 13.7805 5.94644 12.8781 5.04401L11.8174 6.10467C12.1341 6.42132 12.1341 6.9347 11.8174 7.25134L12.8781 8.312ZM12.8781 5.04401C11.9756 4.14158 10.5125 4.14158 9.61008 5.04401L10.6707 6.10467C10.9874 5.78803 11.5008 5.78803 11.8174 6.10467L12.8781 5.04401ZM10.9897 13.5974L8.50642 16.0806L9.56708 17.1413L12.0503 14.6581L10.9897 13.5974ZM8.45482 16.0634L8.12372 13.7457L6.63879 13.9579L6.96989 16.2756L8.45482 16.0634ZM10.7775 12.0265L10.9983 13.5716L12.4832 13.3595L12.2625 11.8143L10.7775 12.0265ZM8.50642 16.0806C8.50043 16.0866 8.49681 16.0887 8.49599 16.0891C8.49502 16.0896 8.49437 16.0898 8.49355 16.09C8.49133 16.0905 8.48464 16.0911 8.4753 16.088C8.46597 16.0849 8.46098 16.0804 8.45949 16.0787C8.45893 16.078 8.45855 16.0775 8.45808 16.0765C8.4577 16.0756 8.45602 16.0718 8.45482 16.0634L6.96989 16.2756C7.14824 17.524 8.67533 18.033 9.56708 17.1413L8.50642 16.0806ZM12.0503 14.6581C12.3909 14.3174 12.5513 13.8363 12.4832 13.3595L10.9983 13.5716C10.9996 13.5811 10.9964 13.5906 10.9897 13.5974L12.0503 14.6581ZM3.26401 5.87178L0.780765 8.35502L1.84142 9.41568L4.32467 6.93244L3.26401 5.87178ZM1.64649 10.9522L3.96419 11.2833L4.17632 9.79838L1.85863 9.46728L1.64649 10.9522ZM6.10773 5.65964L4.5626 5.43891L4.35047 6.92384L5.89559 7.14457L6.10773 5.65964ZM0.780765 8.35502C-0.110986 9.24677 0.398044 10.7739 1.64649 10.9522L1.85863 9.46728C1.85024 9.46608 1.84645 9.4644 1.84561 9.46401C1.84459 9.46355 1.84404 9.46317 1.8434 9.46261C1.84169 9.46112 1.83719 9.45613 1.83408 9.44679C1.83097 9.43746 1.83157 9.43077 1.83204 9.42855C1.83222 9.42772 1.83244 9.42708 1.83297 9.4261C1.83341 9.42529 1.83543 9.42167 1.84142 9.41568L0.780765 8.35502ZM4.32467 6.93244C4.33143 6.92567 4.34099 6.92248 4.35047 6.92384L4.5626 5.43891C4.08573 5.37079 3.60462 5.53116 3.26401 5.87178L4.32467 6.93244Z" fill="#666666"/>
</svg>
