<svg width="64" height="65" viewBox="0 0 64 65" fill="none" xmlns="http://www.w3.org/2000/svg">
<g clip-path="url(#clip0_125_558)">
<g clip-path="url(#clip1_125_558)">
<g clip-path="url(#clip2_125_558)">
<mask id="mask0_125_558" style="mask-type:luminance" maskUnits="userSpaceOnUse" x="-4" y="0" width="72" height="65">
<path d="M-3.96444 0.264648H67.9344V64.2547H-3.96444V0.264648Z" fill="white"/>
</mask>
<g mask="url(#mask0_125_558)">
<path d="M9.95878 53.1984C9.95878 53.1984 8.35543 42.4208 9.24698 42.3323C10.1457 42.2432 17.3212 41.4803 17.5729 42.5818C17.8245 43.684 18.22 53.0517 17.2062 53.3818C16.1924 53.7125 9.95878 53.1984 9.95878 53.1984ZM26.6968 53.2221C26.6968 53.2221 26.5243 37.3361 27.272 36.8177C28.027 36.2993 35.3678 35.9139 35.6123 36.8961C35.8496 37.8789 36.4967 53.4774 35.562 53.4918C34.6201 53.5061 26.6968 53.2221 26.6968 53.2221ZM44.197 53.2502C44.197 53.2502 43.2839 30.6006 44.3408 29.8773C45.3977 29.154 53.9321 28.6931 53.8458 30.8983C53.7596 33.102 54.2629 53.5637 53.3066 53.4925C52.3432 53.4206 44.197 53.2502 44.197 53.2502Z" stroke="black" stroke-width="1.43798" stroke-miterlimit="10" stroke-linejoin="round"/>
<path d="M13.4459 35.409C13.4459 35.409 15.9911 33.1528 17.1774 32.2612C19.3128 30.6579 21.4914 28.7792 23.3895 26.9033C24.6405 25.6667 26.5602 23.0115 28.2211 22.3931C28.825 22.1681 33.3475 28.1378 34.2966 28.0523C34.8574 28.002 35.6842 27.1938 36.1372 26.8624C37.8915 25.5826 39.8687 24.2956 41.6878 23.1703C42.7662 22.5053 45.3546 20.5928 45.3546 20.5928" stroke="black" stroke-width="1.43798" stroke-miterlimit="10" stroke-linecap="round" stroke-linejoin="round"/>
<path d="M44.2833 18.9351C45.3762 18.7892 46.9795 18.7252 48.0292 18.3384C48.058 18.3269 48.5397 18.1946 48.5757 18.255C48.8273 18.7223 47.2312 21.1741 46.9148 21.645C46.886 21.6831 46.7207 22.0534 46.6703 22.0397C46.2318 21.9082 45.5991 20.6291 45.3115 20.266C45.1892 20.115 44.0173 18.9704 44.2833 18.9351Z" fill="black" stroke="black" stroke-width="1.43798" stroke-miterlimit="10" stroke-linecap="round" stroke-linejoin="round"/>
<path d="M17.1774 53.3628C17.1774 53.3628 18.9821 53.0198 18.9318 50.4458C18.8886 47.8719 19.205 43.5824 17.6016 42.5226M35.5835 53.4742C35.5835 53.4742 36.8418 53.2499 37.1869 51.4424C37.5248 49.6348 36.9928 41.122 36.9856 39.8688C36.9784 38.6156 35.6051 36.8605 35.6051 36.8605M53.3713 53.4864C53.3713 53.4864 54.8165 53.6 54.8021 49.0007C54.7877 44.6666 55.1688 37.6622 55.14 36.3608C55.1113 35.0609 53.8171 30.6377 53.8171 30.6377" stroke="black" stroke-width="1.43798" stroke-miterlimit="10" stroke-linejoin="round"/>
<path d="M11.2961 9.46708C11.2961 9.46708 13.5099 10.4701 14.3022 11.8469C15.142 13.3036 16.1802 15.741 17.3032 17.0071C18.4249 18.2725 19.5695 18.7413 21.308 19.9658C21.6862 20.2332 15.4101 26.1994 14.7602 26.3648C14.1102 26.5301 11.7857 24.5809 10.7504 22.8482C9.71504 21.1154 7.80828 18.2538 6.85634 16.9093C5.72753 15.3146 4.42184 15.3038 4.52538 14.8113C4.62963 14.3138 10.8216 9.42394 11.2961 9.46708Z" stroke="black" stroke-width="0.560811" stroke-miterlimit="10" stroke-linecap="round"/>
<path d="M10.7029 11.1844C9.45764 11.9926 8.10522 13.1077 7.32009 14.1287C7.29421 14.1632 7.70978 14.468 7.82841 14.7866C8.08725 15.4775 7.18995 15.7572 7.5135 15.9513C8.3504 16.4568 9.52667 18.5469 9.50366 18.4893C8.99174 17.2671 8.51505 15.7069 10.4153 13.9094C11.8389 12.5634 14.016 13.4428 14.3741 14.2495C14.8112 15.2338 13.9535 13.1501 13.5458 12.5491C13.1389 11.948 12.7837 11.797 12.6478 11.605C12.468 11.3505 12.3861 12.0537 11.6664 11.8941C11.1092 11.7704 10.9977 10.9932 10.7029 11.1844ZM16.3254 17.3368C17.0494 18.6964 16.5828 20.2811 15.5604 21.0468C14.4215 21.8988 13.1202 21.847 12.7398 21.8139C12.2164 21.7694 11.5032 21.476 10.9301 20.8002C10.9237 20.7923 12.041 22.5869 12.279 22.8709C12.6118 23.2419 13.0454 23.6301 13.2144 23.7833C13.4567 24.0011 13.617 23.0952 14.3834 23.129C14.9097 23.1534 15.2369 23.9731 15.4957 23.7854C16.3161 23.1901 17.2587 22.3172 18.1186 21.4322C18.3278 21.2165 17.6095 20.8354 17.6886 20.3645C17.8281 19.5391 18.7786 19.6311 18.6593 19.5182C18.4982 19.3651 18.1013 19.153 17.6232 18.7489C17.1451 18.3448 16.3204 17.3282 16.3254 17.3368Z" fill="black" stroke="black" stroke-width="0.560811" stroke-miterlimit="10" stroke-linecap="round"/>
<path d="M13.2582 15.3089C12.9174 14.5108 11.8929 15.127 11.5513 15.5987C11.1271 16.1846 11.2954 16.9755 11.67 17.5615C12.4343 18.7565 13.6551 16.3119 14.6775 17.8024C14.7897 17.9656 14.886 18.1331 14.9277 18.3301C15.1621 19.4474 13.0929 21.0349 12.5098 19.6689" stroke="black" stroke-width="0.560811" stroke-miterlimit="10" stroke-linecap="round"/>
<path d="M11.4492 14.7878C11.6721 14.9769 11.8059 15.4191 11.9489 15.6722C12.4896 16.6284 13.0274 17.6249 13.617 18.5481C13.865 18.9349 14.0851 19.3857 14.2662 19.8085C14.3252 19.9473 14.6387 20.4959 14.5107 20.3513M14.277 14.002C14.543 14.6699 14.6775 14.9417 15.3886 16.0137C15.8209 16.6647 16.2797 17.2977 16.764 17.9111M9.49503 18.4805C9.49503 18.4805 10.2039 19.7086 10.5972 20.2967C10.9905 20.8856 11.5707 21.8066 11.5707 21.8066" stroke="black" stroke-width="0.560811" stroke-miterlimit="10" stroke-linecap="round"/>
<path d="M41.4785 6.26518C41.4785 6.26518 41.5892 7.98069 40.9939 8.93263C40.3634 9.94209 39.1878 11.4016 38.7715 12.5233C38.3545 13.6449 38.443 14.5149 38.2567 16.0075C38.2165 16.3325 32.4042 14.3998 32.0849 14.0497C31.7657 13.6995 32.2086 11.5994 32.9456 10.3771C33.6825 9.1548 34.8344 7.01221 35.3563 5.97112C35.9761 4.73446 35.549 3.91697 35.8905 3.81775C36.2357 3.71709 41.3477 5.95458 41.4785 6.26518Z" stroke="black" stroke-width="0.396882" stroke-miterlimit="10" stroke-linecap="round"/>
<path d="M40.2102 6.4667C39.2914 5.95838 38.1453 5.48456 37.2466 5.33501C37.2164 5.32998 37.1646 5.69091 37.0057 5.87066C36.6599 6.26251 36.1875 5.79517 36.1731 6.06191C36.1364 6.75214 35.224 8.18293 35.2514 8.14842C35.8445 7.42224 36.6591 6.60547 38.4128 7.1936C39.7271 7.63434 39.9025 9.28586 39.5186 9.77764C39.0491 10.378 40.0643 9.14925 40.3037 8.69485C40.5438 8.24045 40.5194 7.96867 40.5942 7.82056C40.6934 7.62284 40.2275 7.80618 40.0873 7.30432C39.9794 6.91535 40.4274 6.58677 40.2102 6.4667ZM38.2402 12.023C37.6327 12.9268 36.4887 13.1634 35.6705 12.7794C34.7596 12.3523 34.3591 11.5233 34.2534 11.2746C34.1067 10.9331 34.0521 10.3902 34.2843 9.80784C34.2865 9.80065 33.538 11.0948 33.4402 11.3386C33.3194 11.6693 33.2209 12.0698 33.1814 12.2258C33.1267 12.4494 33.7458 12.2481 33.9795 12.7384C34.1391 13.0749 33.7365 13.5509 33.9399 13.6508C34.5841 13.965 35.4426 14.262 36.281 14.5043C36.4859 14.564 36.4844 13.988 36.8044 13.8816C37.3666 13.6933 37.6247 14.3181 37.6557 14.2052C37.6974 14.0542 37.6981 13.7357 37.7908 13.3028C37.8843 12.87 38.2445 12.0173 38.2402 12.023Z" fill="black" stroke="black" stroke-width="0.396882" stroke-miterlimit="10" stroke-linecap="round"/>
<path d="M38.4861 9.43378C38.8708 8.95566 38.1453 8.52067 37.7369 8.46459C37.23 8.39484 36.7929 8.76297 36.5513 9.1922C36.0602 10.0665 37.9921 10.0154 37.4019 11.1493C37.3371 11.273 37.2653 11.3894 37.156 11.4807C36.5362 11.9984 34.8574 11.2363 35.5152 10.4166" stroke="black" stroke-width="0.396882" stroke-miterlimit="10" stroke-linecap="round"/>
<path d="M38.2093 8.12988C38.1654 8.33336 37.9339 8.56343 37.8232 8.73743C37.4062 9.39315 36.9633 10.0604 36.5836 10.7355C36.4247 11.0188 36.217 11.3057 36.0128 11.5595C35.9459 11.6429 35.7079 12.0203 35.7554 11.8924M39.6408 9.63473C39.3122 10.0223 39.1878 10.197 38.7543 10.9979C38.4919 11.4841 38.2497 11.9809 38.0281 12.487M35.2542 8.13995C35.2542 8.13995 34.7236 8.99123 34.4871 9.43197C34.2846 9.80401 34.0785 10.1741 33.8687 10.5421" stroke="black" stroke-width="0.396882" stroke-miterlimit="10" stroke-linecap="round"/>
<path d="M57.3897 16.8096C57.3897 16.8096 56.5528 17.1554 56.2401 17.658C55.9094 18.1908 55.4923 19.0859 55.0581 19.5432C54.6245 20.0005 54.1924 20.1615 53.5302 20.5958C53.3857 20.69 55.6491 22.99 55.8885 23.0605C56.1286 23.1302 57.0195 22.4328 57.4264 21.8008C57.9125 21.0642 58.4208 20.3425 58.9507 19.6367C59.3914 19.0572 59.8775 19.0694 59.8451 18.8846C59.8127 18.6977 57.5673 16.7995 57.3897 16.8096Z" stroke="black" stroke-width="0.209226" stroke-miterlimit="10" stroke-linecap="round"/>
<path d="M57.5896 17.4562C58.0426 17.7725 58.5329 18.2046 58.8126 18.595C58.822 18.608 58.6631 18.7165 58.6149 18.8337C58.5099 19.0875 58.8407 19.2026 58.7184 19.2716C58.3999 19.4492 57.9355 20.2135 57.9448 20.1919C58.1512 19.7425 58.3474 19.1681 57.663 18.475C57.1489 17.9559 56.3271 18.2564 56.184 18.5519C56.0086 18.9128 56.3544 18.1478 56.5133 17.9293C56.6729 17.71 56.8067 17.6582 56.8599 17.5885C56.9303 17.4964 56.9519 17.7589 57.2215 17.7085C57.4307 17.6697 57.4825 17.3814 57.5896 17.4569V17.4562ZM55.4183 19.6771C55.1321 20.1754 55.286 20.7714 55.657 21.0691C56.0704 21.4005 56.5557 21.3977 56.6981 21.3905C56.8937 21.3797 57.1626 21.2797 57.3847 21.0346C57.3876 21.0317 56.949 21.6867 56.8563 21.7895C56.7283 21.9232 56.5615 22.0627 56.4968 22.1174C56.4033 22.1957 56.3551 21.8564 56.0697 21.8592C55.8734 21.8621 55.7411 22.1627 55.6469 22.0893C55.3485 21.8578 55.0085 21.5213 54.6993 21.1805C54.6238 21.0978 54.8963 20.9648 54.8726 20.7887C54.8309 20.4795 54.4757 20.5018 54.5217 20.4608C54.5835 20.4062 54.7345 20.3314 54.9171 20.1876C55.1005 20.0431 55.4204 19.6742 55.4183 19.6771Z" fill="black" stroke="black" stroke-width="0.209226" stroke-miterlimit="10" stroke-linecap="round"/>
<path d="M56.5859 18.9607C56.7225 18.6681 57.0964 18.9104 57.2186 19.0901C57.3696 19.313 57.2963 19.6063 57.1496 19.8199C56.8498 20.2549 56.4256 19.3295 56.0266 19.8716C55.9803 19.9289 55.9461 19.995 55.9259 20.0658C55.8252 20.4785 56.5759 21.0954 56.8102 20.5942" stroke="black" stroke-width="0.209226" stroke-miterlimit="10" stroke-linecap="round"/>
<path d="M57.2668 18.7888C57.1805 18.8564 57.1259 19.0189 57.0691 19.1123C56.8555 19.4618 56.6434 19.8256 56.4119 20.1621C56.314 20.3088 56.2279 20.4632 56.1545 20.6237C56.1308 20.6747 56.0071 20.8753 56.0567 20.8228M56.2228 18.4609C56.1157 18.7061 56.0618 18.8061 55.7842 19.1965C55.5053 19.5869 55.2479 19.886 55.2479 19.886M57.9477 20.1887C57.9477 20.1887 57.6687 20.6373 57.5149 20.8516C57.3617 21.0658 57.1338 21.4016 57.1338 21.4016" stroke="black" stroke-width="0.209226" stroke-miterlimit="10" stroke-linecap="round"/>
</g>
</g>
</g>
</g>
<defs>
<clipPath id="clip0_125_558">
<rect width="63.99" height="63.99" fill="white" transform="translate(-0.0100021 0.264648)"/>
</clipPath>
<clipPath id="clip1_125_558">
<rect width="63.99" height="63.99" fill="white" transform="translate(-0.0100021 0.264648)"/>
</clipPath>
<clipPath id="clip2_125_558">
<rect width="71.8989" height="63.99" fill="white" transform="translate(-3.96444 0.264648)"/>
</clipPath>
</defs>
</svg>
