<svg width="64" height="65" viewBox="0 0 64 65" fill="none" xmlns="http://www.w3.org/2000/svg">
<g clip-path="url(#clip0_125_536)">
<g clip-path="url(#clip1_125_536)">
<path d="M28.1786 22.3605C28.1786 22.3605 21.5851 21.5997 20.3258 24.9182C19.0665 28.2374 20.8697 28.8031 22.4093 28.9125C23.9502 29.0225 30.7031 27.5904 31.3039 30.0726C31.9041 32.5554 28.4295 36.8133 23.4056 35.4606M22.1885 21.1562L29.2473 36.8466" stroke="black" stroke-width="1.2798" stroke-miterlimit="10" stroke-linecap="round"/>
<path d="M34.6314 25.7113C33.1769 22.1791 25.4603 10.282 17.8532 14.6903C11.2277 18.5291 13.0232 27.3827 15.9949 34.0076C18.4266 39.4276 23.6833 43.0897 28.0609 43.7936C29.93 44.0944 31.6379 43.8563 32.8985 42.9854C37.0585 40.1097 37.2319 32.0265 34.6314 25.7113Z" stroke="black" stroke-width="1.2798" stroke-miterlimit="10"/>
<path d="M16.8447 15.3574C16.8447 15.3574 10.1603 19.9442 10.9417 27.5475C11.2885 30.9249 12.942 36.5016 14.9052 38.8712C20.5926 45.736 22.3511 45.2484 25.7598 44.9688C29.1679 44.6898 31.398 43.7044 31.398 43.7044C31.398 43.7044 21.4059 45.873 15.1983 32.1324C9.84743 20.2891 16.8447 15.3574 16.8447 15.3574Z" fill="black" stroke="black" stroke-width="1.2798" stroke-miterlimit="10" stroke-linecap="round" stroke-linejoin="round"/>
<path d="M44.5339 39.7904C44.5339 39.7904 40.2644 39.9478 39.8959 39.2106C39.606 38.6309 45.3779 29.193 46.3896 29.2384C47.6649 29.2967 52.7451 38.1471 53.2179 39.4346C53.543 40.3202 48.9472 39.5626 48.8845 40.2895C48.7489 41.8643 48.8244 50.2848 48.8244 50.2848L44.3604 50.2259L44.5339 39.7904Z" stroke="black" stroke-width="1.2798" stroke-miterlimit="10" stroke-linejoin="round"/>
</g>
</g>
<defs>
<clipPath id="clip0_125_536">
<rect width="63.99" height="63.99" fill="white" transform="translate(0 0.285156)"/>
</clipPath>
<clipPath id="clip1_125_536">
<rect width="63.99" height="63.99" fill="white" transform="translate(0 0.285156)"/>
</clipPath>
</defs>
</svg>
