<svg width="64" height="65" viewBox="0 0 64 65" fill="none" xmlns="http://www.w3.org/2000/svg">
<g clip-path="url(#clip0_125_548)">
<g clip-path="url(#clip1_125_548)">
<path d="M55.673 42.8183C53.8999 42.7159 52.1048 43.6916 50.3072 45.7232C50.951 44.1934 51.4728 42.6664 51.8744 41.1463C55.1447 39.5258 56.8835 36.846 57.186 32.9578C57.1903 32.9027 57.1819 32.8474 57.1615 32.796C57.1411 32.7447 57.1092 32.6987 57.0683 32.6615C57.0274 32.6244 56.9785 32.5971 56.9254 32.5818C56.8723 32.5664 56.8164 32.5634 56.762 32.573C55.0832 32.8692 53.7729 33.6216 52.8483 34.8154C52.9256 32.9994 52.8191 31.1802 52.5304 29.3856C52.2984 25.956 53.0489 23.4972 54.8055 21.9215C55.2703 24.6946 55.0303 27.0321 54.0901 28.8768C54.0491 28.9621 54.043 29.0601 54.0732 29.1498C54.1035 29.2395 54.1677 29.3138 54.252 29.3569C54.3363 29.3999 54.4342 29.4081 54.5245 29.3799C54.6149 29.3517 54.6906 29.2893 54.7355 29.2059C55.8183 27.0816 56.044 24.3824 55.4064 21.1832C55.3945 21.1233 55.3676 21.0674 55.3283 21.0207C55.2889 20.974 55.2384 20.938 55.1814 20.916C55.1244 20.894 55.0628 20.8868 55.0023 20.8951C54.9418 20.9033 54.8843 20.9267 54.8353 20.9631C53.1885 22.1854 52.2043 24.0245 51.8871 26.4553C51.5656 25.3048 51.1698 24.1762 50.7023 23.0769C52.8898 20.1587 53.1279 16.8973 51.4289 13.1136C51.4033 13.0563 51.3632 13.0067 51.3127 12.9696C51.2621 12.9324 51.2027 12.9091 51.1404 12.9018C51.0781 12.8946 51.015 12.9036 50.9572 12.9281C50.8994 12.9526 50.849 12.9916 50.8109 13.0414C49.257 15.0677 48.551 17.0963 48.6861 19.1705C48.0216 18.0835 47.2778 17.0152 46.4548 15.9676C46.8712 14.24 46.5223 12.4973 45.4364 10.9159C44.0218 8.85572 41.4491 7.30596 39.0348 7.0595C38.9832 7.05423 38.9312 7.06006 38.8821 7.07661C38.8331 7.09316 38.7881 7.12004 38.7503 7.15543C38.7125 7.19082 38.6828 7.23391 38.663 7.28178C38.6433 7.32965 38.6341 7.38119 38.6359 7.43294C38.8119 12.3059 41.1739 15.231 45.8524 16.3732C46.6834 17.4276 47.4307 18.5041 48.0967 19.5997C46.5113 18.3765 44.6875 18.3004 42.5863 19.3583C42.5405 19.3814 42.5001 19.414 42.4678 19.4539C42.4355 19.4938 42.4121 19.5401 42.399 19.5897C42.3859 19.6394 42.3836 19.6912 42.392 19.7418C42.4005 19.7924 42.4196 19.8407 42.4481 19.8834C44.119 22.3791 46.1111 23.6103 48.5008 23.6103C49.0049 23.6103 49.527 23.5548 50.0673 23.4454C50.6884 24.9267 51.1699 26.4361 51.5114 27.9682C50.1209 25.3504 48.0582 24.2648 45.3486 24.7404C45.2965 24.7495 45.2469 24.7699 45.2035 24.8003C45.1601 24.8306 45.1239 24.8701 45.0974 24.916C45.0709 24.9619 45.0548 25.013 45.0502 25.0658C45.0457 25.1185 45.0527 25.1717 45.0709 25.2214C46.345 28.712 48.6379 30.8799 52.0745 31.8427C52.1635 33.1401 52.158 34.4422 52.058 35.7388C51.6918 34.4515 51.0549 33.3791 50.3299 32.6654C49.4861 31.8346 48.5551 31.517 47.7761 31.7941C47.709 31.818 47.6503 31.8612 47.6076 31.9183C47.5648 31.9754 47.5399 32.0438 47.5358 32.115C47.3361 35.638 49.2233 39.4088 51.1492 41.0328C50.6148 43.0424 49.8644 45.0646 48.897 47.0891C47.9489 46.4683 47.0662 45.2908 46.5406 43.9179C45.9151 42.2844 45.8512 40.5545 46.3505 38.994C47.3402 39.7971 48.1071 40.8075 48.5825 41.9402C48.6197 42.0288 48.6906 42.0989 48.7795 42.1353C48.8684 42.1716 48.9682 42.1711 49.0567 42.134C49.1453 42.0968 49.2155 42.0259 49.2519 41.937C49.2882 41.848 49.2877 41.7483 49.2505 41.6597C48.6634 40.2608 47.6735 39.0339 46.3881 38.1119C46.3434 38.0799 46.2921 38.0585 46.2379 38.0492C46.1837 38.04 46.1282 38.0432 46.0754 38.0586C46.0227 38.074 45.9741 38.1012 45.9335 38.1381C45.8928 38.175 45.861 38.2207 45.8406 38.2717C44.2739 42.1906 46.35 46.3392 48.5771 47.7436C48.006 48.8842 47.3662 50.0252 46.6574 51.1647C46.499 51.0237 46.3512 50.8712 46.2153 50.7084C46.6818 49.735 46.9329 48.7505 46.9621 47.7786C46.9643 47.7095 46.9466 47.6413 46.9111 47.582C46.8757 47.5226 46.8241 47.4746 46.7622 47.4437C46.7004 47.4128 46.6311 47.4002 46.5623 47.4074C46.4936 47.4147 46.4284 47.4414 46.3744 47.4846C45.3628 48.2904 44.2746 48.0895 43.1224 47.8766C42.0597 47.6803 40.9607 47.4772 40.0171 48.1856C39.9721 48.2193 39.9357 48.2631 39.9106 48.3133C39.8854 48.3636 39.8724 48.4191 39.8724 48.4753V50.9505C37.3065 51.5988 34.6647 51.9276 31.985 51.9276C29.3053 51.9276 26.6634 51.5988 24.0976 50.9505V48.4753C24.0976 48.3613 24.044 48.2539 23.9529 48.1856C23.0093 47.4773 21.9103 47.6803 20.8476 47.8766C19.6953 48.0893 18.6072 48.2903 17.5956 47.4846C17.5415 47.4416 17.4763 47.415 17.4077 47.4078C17.339 47.4007 17.2697 47.4133 17.2079 47.4442C17.1462 47.4751 17.0946 47.523 17.0591 47.5822C17.0236 47.6415 17.0059 47.7096 17.0078 47.7786C17.0371 48.7505 17.2882 49.735 17.7547 50.7084C17.6189 50.8711 17.4712 51.0236 17.3129 51.1645C16.6212 50.054 15.9809 48.9122 15.3942 47.7428C17.6208 46.3375 19.6958 42.1899 18.1294 38.2717C18.109 38.2207 18.0772 38.175 18.0365 38.1381C17.9958 38.1012 17.9473 38.074 17.8945 38.0586C17.8418 38.0432 17.7862 38.04 17.732 38.0492C17.6779 38.0585 17.6265 38.0799 17.5819 38.1119C15.3045 39.7454 14.0842 42.2001 14.1044 44.8842C13.5885 43.597 13.1598 42.3124 12.8196 41.0329C14.7459 39.4094 16.6339 35.6387 16.4342 32.115C16.4301 32.0438 16.4051 31.9754 16.3624 31.9183C16.3196 31.8612 16.261 31.818 16.1938 31.7941C15.2548 31.4604 14.0894 32.0061 13.1519 33.2183C13.1228 33.2559 13.1014 33.2989 13.0889 33.3448C13.0764 33.3907 13.0731 33.4386 13.0792 33.4858C13.0852 33.533 13.1004 33.5785 13.1241 33.6198C13.1477 33.6611 13.1792 33.6973 13.2169 33.7264C13.2545 33.7555 13.2975 33.7769 13.3434 33.7894C13.3893 33.8019 13.4372 33.8052 13.4844 33.7992C13.5315 33.7931 13.5771 33.7779 13.6184 33.7542C13.6596 33.7306 13.6959 33.6991 13.725 33.6615C14.3677 32.8302 15.1241 32.371 15.722 32.4268C15.81 35.7461 14.0692 38.8292 12.6185 40.2359C11.9446 37.4009 11.7033 34.5938 11.8936 31.8434C15.3312 30.8806 17.6247 28.7126 18.899 25.2214C18.9172 25.1717 18.9242 25.1185 18.9197 25.0658C18.9151 25.013 18.899 24.9619 18.8725 24.916C18.846 24.8702 18.8098 24.8307 18.7664 24.8003C18.723 24.77 18.6735 24.7495 18.6213 24.7404C15.9105 24.2648 13.8463 25.3506 12.4558 27.9719C12.7976 26.4385 13.2794 24.9277 13.9016 23.4453C14.4422 23.5547 14.9645 23.6103 15.4692 23.6103C17.8586 23.6103 19.8511 22.379 21.5219 19.8834C21.5504 19.8407 21.5695 19.7924 21.5779 19.7418C21.5864 19.6912 21.584 19.6394 21.571 19.5897C21.5579 19.5401 21.5344 19.4938 21.5021 19.4539C21.4699 19.414 21.4295 19.3814 21.3836 19.3583C19.281 18.2995 17.4561 18.3765 15.87 19.6022C16.5368 18.5057 17.2853 17.4286 18.1169 16.3733C22.7959 15.2312 25.158 12.3062 25.334 7.43294C25.3359 7.38119 25.3267 7.32965 25.3069 7.28178C25.2872 7.23391 25.2574 7.19082 25.2196 7.15543C25.1818 7.12004 25.1369 7.09316 25.0878 7.07661C25.0388 7.06006 24.9867 7.05423 24.9352 7.0595C22.5208 7.30596 19.9481 8.85572 18.5336 10.9158C17.4478 12.4971 17.0988 14.2397 17.515 15.9672C15.9119 18.0078 14.6092 20.127 13.6065 22.3084C11.921 19.8535 11.7071 17.122 12.9553 13.9918C13.6136 14.9443 14.0748 15.903 14.3289 16.849C14.3563 16.9389 14.4176 17.0147 14.4998 17.0603C14.5821 17.1058 14.6788 17.1177 14.7696 17.0933C14.8605 17.0689 14.9382 17.0101 14.9865 16.9294C15.0348 16.8487 15.0499 16.7524 15.0285 16.6609C14.7043 15.4541 14.0753 14.2363 13.159 13.0414C13.1209 12.9917 13.0704 12.9527 13.0127 12.9283C12.9549 12.9039 12.8918 12.8949 12.8296 12.9022C12.7673 12.9095 12.708 12.9327 12.6574 12.9698C12.6068 13.0068 12.5667 13.0564 12.541 13.1136C10.8425 16.8966 11.08 20.1573 13.2663 23.075C12.7991 24.1733 12.4036 25.3008 12.0822 26.4502C11.7644 24.0218 10.7802 22.1845 9.13468 20.9631C9.08562 20.9267 9.02817 20.9034 8.96766 20.8951C8.90716 20.8869 8.84556 20.8941 8.78859 20.9161C8.73161 20.938 8.68111 20.974 8.64176 21.0207C8.60241 21.0674 8.5755 21.1233 8.56352 21.1832C7.64653 25.7851 8.5234 29.3231 11.1671 31.7049C11.0924 32.7396 11.0769 33.7777 11.1206 34.8142C10.1961 33.6211 8.88609 32.8691 7.20798 32.573C7.15355 32.5634 7.09766 32.5664 7.04457 32.5818C6.99148 32.5971 6.9426 32.6244 6.90167 32.6615C6.86075 32.6987 6.82886 32.7447 6.80845 32.796C6.78804 32.8474 6.77965 32.9027 6.78392 32.9578C7.08637 36.8453 8.82485 39.525 12.0942 41.1455C12.4958 42.6667 13.0197 44.1948 13.6638 45.7256C11.8651 43.693 10.069 42.717 8.29693 42.8183C8.2489 42.8211 8.20191 42.8334 8.15869 42.8546C8.11547 42.8757 8.07689 42.9052 8.04519 42.9414C8.01349 42.9776 7.98932 43.0198 7.97407 43.0654C7.95882 43.111 7.9528 43.1592 7.95636 43.2072C8.12596 45.4507 9.31265 47.7081 11.0534 49.0984C12.2877 50.0843 13.7261 50.5913 15.2628 50.5913C15.5352 50.5913 15.8108 50.5749 16.0888 50.5429C16.2954 50.8939 16.5067 51.2421 16.7226 51.5874C16.4443 51.7441 16.1431 51.8562 15.83 51.9197C15.7604 51.9339 15.6965 51.9682 15.6463 52.0184C15.596 52.0685 15.5616 52.1324 15.5474 52.202C15.5332 52.2715 15.5397 52.3437 15.5662 52.4096C15.5927 52.4755 15.638 52.5322 15.6964 52.5725C17.3283 53.7013 19.0394 54.2719 20.7891 54.2719C20.8029 54.2719 20.8166 54.2709 20.8303 54.2709V54.6959C20.8303 55.2708 21.199 55.7698 21.748 55.9375C25.0579 56.9489 28.5023 57.4617 31.985 57.4617C35.4677 57.4617 38.9119 56.9489 42.222 55.9375C42.7708 55.7698 43.1396 55.2708 43.1396 54.6959V54.2709C43.1534 54.2709 43.1671 54.2719 43.1809 54.2719C44.9305 54.2719 46.6418 53.7012 48.2736 52.5725C48.3318 52.5321 48.377 52.4754 48.4033 52.4095C48.4297 52.3437 48.4362 52.2715 48.422 52.202C48.4077 52.1325 48.3734 52.0687 48.3232 52.0186C48.2731 51.9684 48.2093 51.934 48.1398 51.9197C47.8269 51.8562 47.5258 51.7442 47.2476 51.5875C47.4627 51.2421 47.6731 50.8937 47.8789 50.5426C48.1577 50.5748 48.4339 50.5913 48.7071 50.5913C50.2438 50.5913 51.6823 50.0841 52.9165 49.0984C54.6573 47.7081 55.844 45.4507 56.0136 43.2072C56.0172 43.1592 56.0111 43.111 55.9959 43.0654C55.9806 43.0198 55.9565 42.9776 55.9248 42.9414C55.8931 42.9052 55.8545 42.8757 55.8113 42.8546C55.7681 42.8334 55.7211 42.8211 55.673 42.8183ZM45.7942 15.6127C41.7063 14.545 39.657 12.061 39.3817 7.83713C41.4697 8.18795 43.6202 9.55073 44.8391 11.326C45.4954 12.2816 46.1695 13.7802 45.7942 15.6127ZM43.2906 19.8271C45.9148 18.6777 47.9792 19.6209 49.7372 22.7717C47.1277 23.2386 45.0617 22.2944 43.2906 19.8271ZM49.9157 21.3825C48.9737 18.8542 49.3368 16.4195 51.0145 13.9917C52.2628 17.1222 52.0486 19.8535 50.3629 22.3085C50.2193 21.9972 50.0702 21.6885 49.9157 21.3825ZM45.9119 25.3916C48.8317 25.0763 50.8019 26.9296 51.9141 31.041C49.0139 30.1358 47.0895 28.323 45.9119 25.3916ZM52.3063 39.287C52.4975 38.3334 52.6414 37.3709 52.7375 36.403C53.4696 34.7999 54.6764 33.8077 56.4174 33.3846C56.0613 36.501 54.6559 38.7353 52.1396 40.1839C52.2101 39.8879 52.2657 39.5885 52.3063 39.287ZM48.2479 32.4258C48.7161 32.3789 49.2757 32.6442 49.8216 33.1817C50.9906 34.3327 51.9022 36.5298 51.6079 39.0441C51.5297 39.4427 51.4435 39.8397 51.3493 40.2348C49.8991 38.8267 48.1597 35.7435 48.2479 32.4258ZM19.1309 11.326C20.3498 9.55073 22.5002 8.18795 24.5883 7.83713C24.3129 12.061 22.2636 14.545 18.1758 15.6127C17.8004 13.7802 18.4746 12.2817 19.1309 11.326ZM20.6795 19.8271C18.9084 22.2944 16.8423 23.2391 14.2328 22.7717C15.9907 19.6209 18.0552 18.6777 20.6795 19.8271ZM17.4368 25.3573C17.6387 25.3573 17.8461 25.3688 18.058 25.3916C16.8803 28.323 14.956 30.1358 12.0558 31.041C13.0873 27.228 14.8558 25.3573 17.4368 25.3573ZM9.16417 21.9213C10.9183 23.4943 11.6694 25.9477 11.4408 29.3691C11.3647 29.8384 11.3012 30.3097 11.2503 30.7824C9.19904 28.682 8.5139 25.7712 9.16417 21.9213ZM7.55255 33.3846C9.29353 33.8077 10.5005 34.7999 11.2325 36.4033C11.3566 37.662 11.5658 38.9285 11.8603 40.2007C9.32527 38.7525 7.90999 36.5133 7.55255 33.3846ZM15.2226 42.3711C15.6772 41.0591 16.5014 39.8999 17.6195 38.9939C18.1188 40.5544 18.0549 42.2844 17.4294 43.9179C16.9146 45.2624 16.0576 46.4215 15.1319 47.0519C14.6912 45.4289 14.7211 43.8192 15.2226 42.3711ZM11.5057 48.5324C10.0169 47.3433 8.97208 45.4584 8.71899 43.5395C10.9564 43.6418 13.2984 45.7621 15.6907 49.8522C14.1575 49.9542 12.7206 49.5027 11.5057 48.5324ZM21.0592 50.1168C20.9917 50.1435 20.9338 50.1898 20.893 50.2498C20.8522 50.3099 20.8303 50.3808 20.8303 50.4533V53.5467C19.4232 53.5572 18.0777 53.1754 16.7437 52.3845C16.9742 52.2818 17.1943 52.1571 17.4009 52.0121C17.405 52.0097 17.4093 52.0081 17.4131 52.0055C17.418 52.0025 17.4218 51.9983 17.4264 51.9952C17.8031 51.7285 18.1515 51.3886 18.4692 50.9758C18.5111 50.9214 18.5366 50.8562 18.5429 50.7879C18.5492 50.7195 18.5359 50.6508 18.5046 50.5897C18.1415 49.8812 17.9046 49.1685 17.7968 48.463C18.8715 48.9784 19.9807 48.7735 20.9792 48.589C21.8126 48.435 22.5501 48.3002 23.1735 48.567C22.4923 49.3094 21.7826 49.8301 21.0592 50.1168ZM23.3731 49.4045V50.7588C22.957 50.6431 22.5434 50.519 22.1324 50.3865C22.5567 50.1283 22.9686 49.8027 23.3731 49.4045ZM25.1609 54.8007L25.1362 54.8464C24.9187 55.2537 24.9683 55.7149 25.1985 56.062C24.1062 55.8426 23.0253 55.5698 21.9597 55.2446C21.8421 55.209 21.7391 55.1363 21.6662 55.0375C21.5932 54.9386 21.5542 54.8188 21.5549 54.6959V50.9609C23.6968 51.6774 25.9074 52.1697 28.1511 52.4297C26.8978 52.7955 25.8066 53.6206 25.1609 54.8007ZM40.5969 50.7588V49.4045C41.0014 49.8027 41.4135 50.1281 41.8379 50.3864C41.4268 50.5189 41.0131 50.6431 40.5969 50.7588ZM43.1396 53.5467V50.4533C43.1396 50.3808 43.1178 50.3099 43.077 50.2498C43.0362 50.1898 42.9784 50.1434 42.9109 50.1166L42.9105 50.1165L42.9101 50.1163C42.187 49.8296 41.4775 49.3091 40.7965 48.5671C41.4199 48.3003 42.1574 48.4349 42.9908 48.589C43.9894 48.7735 45.0984 48.9783 46.1733 48.463C46.0654 49.1685 45.8284 49.8812 45.4654 50.5897C45.4015 50.7144 45.4153 50.8647 45.5007 50.9758C46.0025 51.6278 46.5806 52.0993 47.2263 52.3847C45.8923 53.1754 44.5468 53.557 43.1396 53.5467ZM52.4643 48.5324C51.2493 49.5029 49.8128 49.9542 48.2793 49.8522C50.6717 45.7618 53.0134 43.6415 55.251 43.5395C54.998 45.4584 53.953 47.3433 52.4643 48.5324Z" fill="black"/>
<path d="M25.602 34.0947C24.9861 34.0947 24.5241 33.9164 24.2163 33.5598C23.9245 33.2034 23.73 32.871 23.6328 32.5631C23.6653 32.5145 23.7139 32.474 23.7786 32.4416L23.8759 32.393C23.9528 32.4991 24.018 32.6132 24.0703 32.7333C24.1028 32.8306 24.1677 32.9278 24.2649 33.025C24.3622 33.1385 24.4999 33.2357 24.6781 33.3167C24.8726 33.3816 25.1482 33.414 25.5047 33.414C26.153 33.414 26.7283 33.2357 27.2307 32.8792C27.7494 32.5064 28.1546 32.0607 28.4463 31.5421C28.7542 31.0235 28.9082 30.5292 28.9082 30.0591C28.9082 29.6539 28.7786 29.3136 28.5193 29.0381C28.2762 28.7626 27.871 28.6248 27.3037 28.6248C27.1468 28.624 26.9908 28.6486 26.8418 28.6977C26.6959 28.7302 26.542 28.7626 26.3799 28.7949C26.2826 28.7139 26.234 28.6491 26.234 28.6005V28.3817C26.6596 28.1239 27.0891 27.8726 27.5225 27.6281C28.0087 27.3525 28.43 27.0366 28.7866 26.68C29.1432 26.3072 29.3215 25.8859 29.3215 25.4158C29.3215 25.1403 29.2243 24.9053 29.0297 24.7108C28.8352 24.5001 28.5354 24.3947 28.1302 24.3947C27.7738 24.3947 27.4658 24.5082 27.2065 24.7352C26.9634 24.9458 26.8013 25.1646 26.7203 25.3915C26.6392 25.6347 26.4691 25.7562 26.2098 25.7562C26.0153 25.7562 25.9181 25.6347 25.9181 25.3915C25.9181 25.3105 25.9423 25.1889 25.9909 25.0269C26.0558 24.8485 26.0963 24.7271 26.1125 24.6622C26.1739 24.4959 26.2226 24.3253 26.2584 24.1517C26.307 23.9734 26.3394 23.8113 26.3556 23.6655C26.3556 23.5358 26.4123 23.471 26.5257 23.471C26.6392 23.471 26.6959 23.5196 26.6959 23.6169C26.6959 23.7141 26.6797 23.8518 26.6473 24.0302C26.6149 24.2084 26.6068 24.3542 26.6231 24.4677C26.8499 24.2408 27.1579 24.0302 27.5468 23.8356C27.952 23.6411 28.349 23.5439 28.738 23.5439C29.127 23.5439 29.443 23.6574 29.6861 23.8842C29.8807 24.0463 30.0184 24.2328 30.0994 24.4434C30.1955 24.6488 30.2453 24.8729 30.2452 25.0998C30.2452 25.4563 30.1561 25.8048 29.9779 26.1451C29.7996 26.4855 29.5809 26.7691 29.3215 26.996C29.1432 27.1581 28.9406 27.3202 28.7137 27.4823C28.503 27.6442 28.3004 27.774 28.106 27.8712C28.025 27.9036 27.9844 27.9441 27.9844 27.9927C28.0006 28.0089 28.1222 28.0171 28.349 28.0171C28.9649 28.0171 29.4106 28.1953 29.6861 28.5518C29.9617 28.9084 30.0994 29.3298 30.0994 29.816C30.0984 29.8896 30.0903 29.9629 30.0751 30.0349C30.0751 30.1165 30.0669 30.1979 30.0508 30.2779C29.9535 30.9748 29.6861 31.615 29.2485 32.1985C28.811 32.7819 28.2681 33.2439 27.6198 33.5842C26.9876 33.9245 26.3151 34.0947 25.602 34.0947ZM34.7082 33.6893C34.344 33.5659 34.0404 33.2876 33.7973 32.8543C33.5651 32.4214 33.385 31.9092 33.257 31.3177C33.1294 30.7153 33.0469 30.0714 33.0096 29.3857C32.9831 28.7006 32.9881 28.0439 33.0243 27.4156C33.0607 26.7874 33.1215 26.2252 33.2068 25.7292C33.3029 25.2336 33.4095 24.8795 33.5267 24.6672C33.5619 24.6035 33.6176 24.5677 33.694 24.56C33.7802 24.5418 33.8696 24.5454 33.954 24.5705C34.0404 24.5848 34.1151 24.6151 34.1784 24.6611C34.2525 24.7074 34.2937 24.7634 34.3019 24.8289C34.3421 25.178 34.3257 25.5791 34.2531 26.0322C34.175 26.5076 34.0906 26.982 34 27.4551C33.9131 27.9612 33.8328 28.4683 33.7592 28.9764C33.6843 29.4837 33.6645 29.9715 33.6998 30.4398C33.7351 30.9081 33.8481 31.3362 34.0387 31.724C34.24 32.1122 34.5638 32.4294 35.0099 32.6754C35.3601 32.8742 35.695 32.9149 36.0147 32.7976C36.3455 32.6698 36.648 32.4432 36.9217 32.1178C37.2068 31.7818 37.4516 31.3683 37.6561 30.8771C37.8714 30.3864 38.0393 29.8611 38.1598 29.3015C38.2906 28.7376 38.3685 28.1627 38.3922 27.5844C38.416 26.9991 38.3727 26.4598 38.2624 25.9667C38.1634 25.4632 37.991 25.0274 37.7453 24.6591C37.5106 24.2913 37.1897 24.0394 36.7825 23.9034C36.365 23.7562 36.0231 23.7532 35.7568 23.8944C35.5018 24.0252 35.2317 24.2585 34.9466 24.5945C34.8469 24.6447 34.7874 24.6368 34.7684 24.571C34.7494 24.505 34.7639 24.4134 34.8122 24.2959C34.8608 24.1675 34.937 24.0294 35.0406 23.8817C35.1594 23.73 35.2963 23.5934 35.4481 23.4748C35.6153 23.3515 35.8005 23.2546 35.9972 23.1876C36.2067 23.1092 36.4302 23.0856 36.6679 23.1169C37.1968 23.1927 37.6327 23.4221 37.9754 23.8052C38.3291 24.1888 38.5921 24.6663 38.7643 25.2379C38.9479 25.7991 39.0475 26.4221 39.0631 27.1067C39.0892 27.7975 39.0393 28.4892 38.9143 29.1691C38.7994 29.8594 38.6152 30.5197 38.3617 31.1501C38.1085 31.7696 37.7993 32.2999 37.4339 32.7412C37.0798 33.172 36.6707 33.4866 36.2067 33.6849C35.7539 33.8728 35.2543 33.8743 34.7082 33.6893Z" fill="black"/>
</g>
</g>
<defs>
<clipPath id="clip0_125_548">
<rect width="63.99" height="63.99" fill="white" transform="translate(-0.0100098 0.264648)"/>
</clipPath>
<clipPath id="clip1_125_548">
<rect width="63.99" height="63.99" fill="white" transform="translate(-0.0100098 0.264648)"/>
</clipPath>
</defs>
</svg>
