<svg width="48" height="49" viewBox="0 0 48 49" fill="none" xmlns="http://www.w3.org/2000/svg">
<g clip-path="url(#clip0_130_761)">
<g clip-path="url(#clip1_130_761)">
<path d="M24.6318 7.46484C14.5652 7.46484 6.91208 13.0583 6.91208 25.2618C6.91208 33.6522 14.3598 40.5162 23.3482 40.5162C36.445 40.5162 41.0679 30.8552 41.0679 24.2447C41.0679 17.6346 37.215 7.46484 24.6318 7.46484Z" stroke="black" stroke-width="0.96"/>
<path d="M31.4223 18.9256V28.1541C31.4223 28.2814 31.4729 28.4035 31.5629 28.4935C31.6529 28.5835 31.775 28.6341 31.9023 28.6341H33.0745C33.2018 28.6341 33.3239 28.5835 33.4139 28.4935C33.5039 28.4035 33.5545 28.2814 33.5545 28.1541V24.9611C33.5545 24.6962 33.7695 24.484 34.0345 24.472C35.4687 24.4082 37.0806 23.9349 36.8377 20.7698C36.6514 18.3491 33.5334 18.1677 31.791 18.472C31.6859 18.492 31.5912 18.5484 31.5237 18.6314C31.4563 18.7145 31.4203 18.8187 31.4223 18.9256Z" stroke="black" stroke-width="0.96"/>
<path d="M33.3178 19.9562V22.4594C33.3178 22.7244 33.5358 22.9356 33.7887 22.8569C34.2898 22.7009 34.9422 22.2861 34.9422 21.3122C34.9422 19.9562 33.3178 19.685 33.3178 19.9562ZM12.4498 21.9065C12.4498 20.682 13.3777 20.6378 14.3209 20.7381C14.8676 20.7957 15.3337 20.3868 15.3337 19.8367C15.3337 19.3668 14.9866 18.9645 14.5191 18.9199C11.4687 18.63 10.3729 19.5261 10.6148 22.4316C10.8543 25.3101 13.7602 23.7444 13.7602 25.5823C13.7602 26.2053 12.877 26.1948 12.0274 26.0657C11.4279 25.9745 10.8769 26.4103 10.8769 27.0161V27.1591C10.8769 27.6165 11.199 28.0121 11.653 28.0711C12.6414 28.1993 14.0065 28.2669 14.809 27.9458C16.1194 27.4207 16.1194 24.7946 15.0711 23.7444C14.2422 22.914 12.4498 23.4818 12.4498 21.9065ZM17.1682 19.4988V20.6393C17.1682 20.7666 17.2188 20.8887 17.3088 20.9787C17.3988 21.0687 17.5209 21.1193 17.6482 21.1193H18.5233C18.6506 21.1193 18.7727 21.1698 18.8627 21.2598C18.9527 21.3499 19.0033 21.472 19.0033 21.5993V27.7289C19.0033 27.8562 19.0538 27.9783 19.1439 28.0683C19.2339 28.1583 19.356 28.2089 19.4833 28.2089H20.3583C20.4856 28.2089 20.6077 28.1583 20.6977 28.0683C20.7877 27.9783 20.8383 27.8562 20.8383 27.7289V21.5993C20.8383 21.472 20.8889 21.3499 20.9789 21.2598C21.0689 21.1698 21.191 21.1193 21.3183 21.1193H22.1934C22.3207 21.1193 22.4428 21.0687 22.5328 20.9787C22.6228 20.8887 22.6734 20.7666 22.6734 20.6393V19.4988C22.6734 19.3715 22.6228 19.2494 22.5328 19.1594C22.4428 19.0694 22.3207 19.0188 22.1934 19.0188H17.6482C17.5209 19.0188 17.3988 19.0694 17.3088 19.1594C17.2188 19.2494 17.1682 19.3715 17.1682 19.4988ZM26.222 19.0188C23.6967 19.0188 23.533 22.3447 23.7668 24.0074C23.8326 25.5828 24.4681 28.4714 27.2742 28.4714C30.0807 28.4714 29.379 24.5325 29.379 23.4823C29.379 22.4316 29.379 19.0183 26.222 19.0183V19.0188Z" stroke="black" stroke-width="0.96"/>
<path d="M26.4773 21.644C25.7885 21.644 25.7439 23.122 25.8077 23.8612C25.8255 24.561 25.9988 25.845 26.7644 25.845C27.5295 25.845 27.3385 24.0944 27.3385 23.6274C27.3385 23.1608 27.3385 21.644 26.4773 21.644Z" stroke="black" stroke-width="0.96"/>
</g>
</g>
<defs>
<clipPath id="clip0_130_761">
<rect width="48" height="48" fill="white" transform="translate(-0.0100098 0.269531)"/>
</clipPath>
<clipPath id="clip1_130_761">
<rect width="48" height="48" fill="white" transform="translate(-0.0100098 0.269531)"/>
</clipPath>
</defs>
</svg>
