<svg width="20" height="26" viewBox="0 0 20 26" fill="none" xmlns="http://www.w3.org/2000/svg">
<g clip-path="url(#clip0_125_596)">
<path d="M14.359 21.9337C13.233 22.5077 12.322 23.4397 11.763 24.5877L13.249 25.3427C14.024 23.7307 15.714 22.7927 17.466 23.0007L17.658 21.3207C13.169 20.7897 10.201 15.5857 10.902 9.4577L9.252 9.2627C8.612 14.8537 10.756 19.8037 14.359 21.9337Z" fill="black"/>
<path d="M11.711 24.5623C12.26 23.4353 13.145 22.5143 14.24 21.9303C10.666 19.7593 8.559 14.8183 9.196 9.25627L9.202 9.19727L9.259 9.20427L10.91 9.40027L10.967 9.40627L10.96 9.46527C10.61 12.5173 11.176 15.3383 12.383 17.4603C13.591 19.5803 15.441 21.0003 17.664 21.2633L17.721 21.2703L17.714 21.3283L17.522 23.0083L17.516 23.0653L17.459 23.0593C15.732 22.8543 14.065 23.7793 13.301 25.3683L13.276 25.4213L13.223 25.3953L11.738 24.6403L11.687 24.6143L11.711 24.5623Z" fill="black" stroke="black" stroke-opacity="0.5" stroke-width="0.07" stroke-miterlimit="10"/>
<path d="M6.15 21.6703C6.773 21.8753 8.272 22.3263 11.14 20.6473C10.218 18.5623 9.176 17.3353 7.684 16.8453C7.062 16.6403 5.562 16.1893 2.694 17.8683C3.617 19.9533 4.661 21.1803 6.15 21.6703Z" fill="black"/>
<path d="M11.192 20.6234L11.214 20.6714L11.17 20.6984C9.729 21.5404 8.63 21.8514 7.809 21.9244C7.243 21.9814 6.671 21.9134 6.132 21.7264C4.62 21.2284 3.568 19.9854 2.642 17.8914L2.62 17.8434L2.664 17.8174C4.106 16.9754 5.206 16.6644 6.027 16.5914C6.593 16.5354 7.164 16.6024 7.702 16.7894C9.216 17.2874 10.268 18.5304 11.192 20.6234Z" fill="black" stroke="black" stroke-opacity="0.5" stroke-width="0.07" stroke-miterlimit="10"/>
<path d="M8.297 15.035C8.277 12.749 7.808 11.199 6.638 10.14C6.149 9.69899 4.978 8.67499 1.688 9.03699C1.708 11.325 2.153 12.871 3.324 13.93C4.723 15.196 6.569 15.23 8.297 15.036V15.035Z" fill="black"/>
<path d="M8.354 15.0354V15.0884L8.30301 15.0944C6.57301 15.2904 4.704 15.2594 3.286 13.9744C2.097 12.8984 1.65 11.3314 1.63 9.03742V8.98542L1.681 8.97842C3.333 8.79742 4.457 8.96242 5.231 9.23142C5.768 9.41142 6.261 9.70742 6.676 10.0974C7.863 11.1724 8.334 12.7424 8.353 15.0354H8.354ZM8.297 15.0354C8.277 12.7494 7.808 11.1994 6.638 10.1404C6.149 9.69942 4.978 8.67542 1.688 9.03742L8.297 15.0364V15.0354Z" fill="black" stroke="black" stroke-opacity="0.5" stroke-width="0.07" stroke-miterlimit="10"/>
<path d="M7.99801 9.09837C9.10301 7.10637 9.45801 5.52637 8.96401 4.01237C8.75901 3.38037 8.23001 1.88437 5.20201 0.526367C4.09601 2.51637 3.74101 4.09837 4.23401 5.61037C4.44001 6.24237 4.97001 7.73837 7.99801 9.09837Z" fill="black"/>
<path d="M9.02001 3.99417C9.52001 5.53017 9.15801 7.12917 8.04801 9.12617L8.02201 9.17217L7.97401 9.15117C6.45401 8.46817 5.55801 7.74917 5.01401 7.11917C4.63501 6.68917 4.35001 6.18017 4.18001 5.62717C3.68001 4.09317 4.04201 2.49417 5.15201 0.497172L5.17801 0.451172L5.22601 0.473172C6.74401 1.15417 7.64201 1.87217 8.18401 2.50317C8.72901 3.13417 8.91601 3.67417 9.02001 3.99417ZM9.02001 3.99417L8.96401 4.01217L9.02001 3.99417ZM9.02001 3.99417L8.96401 4.01217L9.02001 3.99417ZM8.96401 4.01217C8.76001 3.38017 8.23101 1.88417 5.20301 0.526172C4.09701 2.51617 3.74201 4.09817 4.23601 5.61017C4.44101 6.24217 4.97101 7.73817 7.99901 9.09817C9.10401 7.10617 9.45901 5.52617 8.96601 4.01217H8.96401Z" fill="black"/>
<path d="M9.02001 3.99417C9.52001 5.53017 9.15801 7.12917 8.04801 9.12617L8.02201 9.17217L7.97401 9.15117C6.45401 8.46817 5.55801 7.74917 5.01401 7.11917C4.63501 6.68917 4.35001 6.18017 4.18001 5.62717C3.68001 4.09317 4.04201 2.49417 5.15201 0.497172L5.17801 0.451172L5.22601 0.473172C6.74401 1.15417 7.64201 1.87217 8.18401 2.50317C8.72901 3.13417 8.91601 3.67417 9.02001 3.99417ZM9.02001 3.99417L8.96401 4.01217M8.96401 4.01217C8.76001 3.38017 8.23101 1.88417 5.20301 0.526172C4.09701 2.51617 3.74201 4.09817 4.23601 5.61017C4.44101 6.24217 4.97101 7.73817 7.99901 9.09817C9.10401 7.10617 9.45901 5.52617 8.96601 4.01217H8.96401Z" stroke="black" stroke-opacity="0.5" stroke-width="0.07" stroke-miterlimit="10"/>
</g>
<defs>
<clipPath id="clip0_125_596">
<rect width="20" height="26" fill="white"/>
</clipPath>
</defs>
</svg>
