<svg width="17" height="18" viewBox="0 0 17 18" fill="none" xmlns="http://www.w3.org/2000/svg">
<path d="M1.19592 7.51806C1.19592 6.90597 1.47621 6.32757 1.95663 5.94829L7.3705 1.67419C8.09712 1.10054 9.12246 1.10054 9.84908 1.67419L15.263 5.94829C15.7434 6.32757 16.0237 6.90597 16.0237 7.51806V14.3039C16.0237 15.4085 15.1282 16.3039 14.0237 16.3039H12.951C11.8464 16.3039 10.951 15.4085 10.951 14.3039V13.6215C10.951 12.5169 10.0556 11.6215 8.95102 11.6215H8.26857C7.164 11.6215 6.26857 12.5169 6.26857 13.6215V14.3039C6.26857 15.4085 5.37314 16.3039 4.26857 16.3039H3.19592C2.09135 16.3039 1.19592 15.4085 1.19592 14.3039L1.19592 7.51806Z" stroke="#012138" stroke-width="1.5"/>
</svg>
