<svg width="64" height="65" viewBox="0 0 64 65" fill="none" xmlns="http://www.w3.org/2000/svg">
<g clip-path="url(#clip0_125_509)">
<g clip-path="url(#clip1_125_509)">
<mask id="mask0_125_509" style="mask-type:luminance" maskUnits="userSpaceOnUse" x="-1" y="0" width="66" height="65">
<path d="M-0.329956 64.2752H64.2999V0.285156H-0.329956V64.2752Z" fill="white"/>
</mask>
<g mask="url(#mask0_125_509)">
<path fill-rule="evenodd" clip-rule="evenodd" d="M39.6574 34.8069C39.9908 35.2983 40.2186 35.6899 40.2346 35.8653C40.2973 36.5628 37.6059 37.4017 37.3064 37.3703C36.2774 37.5527 34.1114 36.4834 33.0063 35.9389C32.6754 35.775 32.4393 35.6586 32.358 35.6375C32.1616 35.585 31.3617 36.2729 30.5388 36.9813C29.8868 37.5418 29.2206 38.1152 28.8264 38.3442C27.9351 38.8626 26.4863 39.521 25.7485 39.0654C25.0107 38.6098 25.4094 34.5279 25.5354 33.5124L25.5649 33.2788C25.6692 32.4456 25.7056 32.1494 25.602 31.64C25.5348 31.3111 24.0829 30.3474 22.7237 29.4452C21.7875 28.8232 20.8949 28.2306 20.5289 27.8947C19.633 27.0724 20.8213 25.712 21.0824 25.4298C21.1592 25.3402 21.6039 25.3236 22.2022 25.3376C22.1697 25.3514 22.14 25.3709 22.1145 25.3952C22.0518 25.4631 21.9501 25.5213 21.8438 25.5821C21.5079 25.7741 21.1278 25.9897 21.8087 26.6149C22.1747 26.9508 23.0673 27.5427 24.0035 28.1647C25.3627 29.067 26.8146 30.0313 26.8818 30.3596C26.9861 30.8696 26.949 31.1658 26.8447 31.999L26.8152 32.2326L26.773 32.5615C26.5977 33.8944 26.176 37.1099 26.8485 37.5252C27.3879 37.8579 28.2467 37.2289 29.0178 36.6639C29.3019 36.4559 29.5745 36.2569 29.8138 36.1174C30.2003 35.8922 30.766 35.4193 31.3112 34.963C32.024 34.3673 32.7023 33.7997 32.902 33.8528C33.0523 33.8925 34.0551 34.3007 35.1781 34.757C36.6876 35.3706 38.4147 36.0726 38.5862 36.0905C38.8857 36.1225 39.8238 35.9849 39.761 35.2874C39.7379 35.1249 39.7035 34.9641 39.658 34.8062L39.6574 34.8069ZM27.267 24.1525C27.3239 23.9727 27.3931 23.7021 27.4762 23.377C27.77 22.2296 28.2364 20.4053 28.9403 19.5229C29.2468 19.1396 29.5278 18.9975 29.7696 18.9854C29.3102 19.9318 28.9819 21.2148 28.756 22.0972C28.6306 22.588 28.5366 22.9553 28.4694 23.0724C28.4207 23.1528 28.3759 23.2354 28.335 23.32C28.1622 23.663 27.9779 24.0284 27.2824 24.15C27.2772 24.1509 27.2721 24.1517 27.267 24.1525Z" fill="black"/>
<path d="M35.5768 22.8179C35.4306 22.8137 35.2877 22.7741 35.1602 22.7025C35.0327 22.631 34.9245 22.5296 34.8447 22.4071L31.9812 18.3245C31.9812 18.3245 31.2485 16.9814 30.2432 18.2414C29.2373 19.5007 28.7164 22.6791 28.4694 23.0726C28.2217 23.4674 28.1507 23.9985 27.2824 24.1502C26.414 24.3018 22.3532 25.1164 22.1145 25.3961C21.8535 25.6776 20.9128 25.7928 21.8093 26.6157C22.7052 27.438 26.7685 29.8056 26.8818 30.3604C26.9951 30.9152 26.9413 31.2172 26.8152 32.2328C26.6892 33.2483 26.1114 37.0704 26.8485 37.526C27.5863 37.9816 28.9218 36.6359 29.8138 36.1182C30.7052 35.5999 32.5494 33.7602 32.902 33.853C33.2539 33.9464 38.2867 36.0594 38.5862 36.0914C38.8857 36.1227 39.8238 35.9851 39.7611 35.2883C39.699 34.5908 38.0436 29.7915 38.0077 29.5004C37.9949 29.206 38.0711 28.9014 38.3686 28.5469C38.6662 28.1924 41.7409 24.52 41.938 24.2686C42.1121 24.0196 42.2707 23.2729 41.3448 23.1359C40.5584 23.0272 36.8783 22.8633 35.5768 22.8179Z" stroke="black" stroke-width="1.2798" stroke-miterlimit="10"/>
<path d="M28.2045 45.2018C26.3711 47.9317 20.3593 53.7234 19.4628 54.3588L18.7781 45.9723C10.4818 46.6499 7.90043 40.6067 7.64703 37.5L6.6571 25.3848C5.89562 16.0659 12.5397 13.1774 16.0751 12.8888C19.61 12.6002 36.5404 10.7477 44.3555 10.5788C52.1706 10.4092 54.7865 16.2931 55.205 21.4187L56.195 33.5339C56.831 41.3196 49.7352 43.5215 47.0578 43.6616L28.2045 45.2018Z" stroke="black" stroke-width="1.2798" stroke-miterlimit="10" stroke-linecap="round"/>
</g>
</g>
</g>
<defs>
<clipPath id="clip0_125_509">
<rect width="63.99" height="63.99" fill="white" transform="translate(-0.0100098 0.285156)"/>
</clipPath>
<clipPath id="clip1_125_509">
<rect width="64.6299" height="63.99" fill="white" transform="translate(-0.329956 0.285156)"/>
</clipPath>
</defs>
</svg>
