<svg width="18" height="19" viewBox="0 0 18 19" fill="none" xmlns="http://www.w3.org/2000/svg">
<path d="M16.4781 8.27267L13.307 11.0402L14.257 15.1605C14.3072 15.3759 14.2929 15.6013 14.2157 15.8086C14.1386 16.0159 14.002 16.1958 13.8231 16.3259C13.6443 16.4561 13.431 16.5305 13.21 16.5401C12.9891 16.5497 12.7702 16.4939 12.5807 16.3797L8.98705 14.2L5.40111 16.3797C5.21167 16.4939 4.99277 16.5497 4.77179 16.5401C4.55082 16.5305 4.33756 16.4561 4.15868 16.3259C3.97981 16.1958 3.84326 16.0159 3.7661 15.8086C3.68894 15.6013 3.67459 15.3759 3.72486 15.1605L4.67337 11.0444L1.50158 8.27267C1.33382 8.12799 1.21251 7.93699 1.15287 7.72363C1.09322 7.51028 1.0979 7.28407 1.16631 7.07336C1.23472 6.86265 1.36381 6.67683 1.53741 6.5392C1.711 6.40157 1.92137 6.31825 2.14213 6.2997L6.32291 5.93759L7.95486 2.04509C8.04008 1.84085 8.18383 1.66638 8.36801 1.54367C8.55218 1.42095 8.76855 1.35547 8.98986 1.35547C9.21117 1.35547 9.42754 1.42095 9.61171 1.54367C9.79589 1.66638 9.93964 1.84085 10.0249 2.04509L11.6617 5.93759L15.8411 6.2997C16.0619 6.31825 16.2722 6.40157 16.4458 6.5392C16.6194 6.67683 16.7485 6.86265 16.8169 7.07336C16.8853 7.28407 16.89 7.51028 16.8304 7.72363C16.7707 7.93699 16.6494 8.12799 16.4817 8.27267H16.4781Z" fill="black"/>
</svg>
