<svg width="64" height="65" viewBox="0 0 64 65" fill="none" xmlns="http://www.w3.org/2000/svg">
<g clip-path="url(#clip0_125_521)">
<g clip-path="url(#clip1_125_521)">
<path d="M17.945 44.1114C17.2731 44.8262 15.8448 45.8347 14.963 46.2551M11.0161 35.7467C12.1078 35.8727 14.1657 35.6206 15.2574 35.7467M14.1235 24.3148C15.6908 24.825 17.1351 25.6552 18.3647 26.7529M21.682 16.581C22.4377 17.674 23.6554 19.6909 24.2013 20.9099M32.6838 13.5127C32.6838 14.9838 32.4317 17.1697 32.4317 18.7247M43.182 16.7909C42.384 18.0099 41.6283 19.2289 40.9558 20.5318M24.3702 49.7016C23.9498 49.7016 23.6554 49.3241 23.7399 48.9452C23.9914 47.8945 24.1174 46.8016 24.0758 45.7086C24.0758 45.2882 24.0758 44.8256 24.4118 44.6157C24.5794 44.4896 24.7893 44.4896 24.9992 44.4896C29.0728 44.322 33.188 44.1537 37.261 43.9854C37.7652 43.9854 38.3104 43.9431 38.7724 44.1959C39.4443 44.5734 39.6542 45.4143 39.7387 46.1713C39.8653 47.1605 39.9075 48.1587 39.8647 49.1551C39.8647 49.2818 39.8647 49.4079 39.7387 49.4917C39.6542 49.5755 39.4865 49.5339 39.3611 49.5339C37.5969 49.4917 35.8334 49.5339 34.0276 49.5755C31.2984 49.7016 26.3436 49.66 24.3702 49.7016ZM29.8669 32.0692C28.9429 32.9522 28.2749 34.2768 28.6108 35.7473C28.9884 37.3445 30.5843 38.4374 32.1802 38.3536C33.9015 38.2276 34.9932 36.8403 35.3291 35.5796C35.4552 35.2008 35.5812 33.9402 34.9516 32.7212C34.5312 31.8382 31.5467 30.3881 29.8669 32.0692Z" stroke="black" stroke-width="1.2798" stroke-miterlimit="10" stroke-linecap="round"/>
<path d="M35.6619 33.8457C38.0077 31.2074 40.081 28.3323 42.1133 25.4662C42.2784 25.2537 41.8439 24.8826 41.8113 25.1065C41.4914 26.6532 36.1597 29.447 33.243 30.9687C33.4069 30.9296 33.8477 30.6071 34.7084 31.135C35.9946 31.9938 35.6631 33.6729 35.6619 33.8457Z" fill="black"/>
<path d="M35.8116 34.5842C38.1575 31.9459 40.2403 29.1112 42.2631 26.2047C42.4275 25.9923 42.1959 25.7453 41.9604 25.8451C38.9004 27.4877 32.239 30.9771 32.2474 31.0744C32.2557 31.1716 33.7569 30.885 34.8582 31.8743C35.9793 32.9448 35.8129 34.4115 35.8116 34.5842Z" stroke="black" stroke-width="1.2798" stroke-miterlimit="10" stroke-linecap="round"/>
<path d="M14.9214 46.0871C10.6386 40.9596 9.79839 33.3518 12.3177 27.1729C14.8376 20.994 20.4227 16.2863 26.805 14.2693C28.8623 13.6384 31.004 13.3863 33.1458 13.3024C40.5366 13.0503 51.2018 19.1447 52.8816 31.3758C53.5957 36.5462 52.2097 42.0519 48.9347 46.1293M50.3201 24.6933C49.2706 25.1975 48.3882 25.7856 47.1705 26.3321M46.2887 44.0272C47.381 45.078 47.9684 45.4145 48.9763 46.1709" stroke="black" stroke-width="1.2798" stroke-miterlimit="10" stroke-linecap="round"/>
<path d="M23.6836 51.2038C22.6597 51.0848 23.0347 50.5255 23.5607 49.8133L39.8538 49.167C40.0676 49.4652 40.5193 50.1806 40.6217 50.658C40.7497 51.2531 24.9634 51.3529 23.6836 51.2038Z" fill="black" stroke="black" stroke-width="1.2798" stroke-miterlimit="10" stroke-linecap="round"/>
<path d="M48.2865 35.2432H52.5034" stroke="black" stroke-width="1.2798" stroke-miterlimit="10" stroke-linecap="round"/>
</g>
</g>
<defs>
<clipPath id="clip0_125_521">
<rect width="63.99" height="63.99" fill="white" transform="translate(-0.0100021 0.285156)"/>
</clipPath>
<clipPath id="clip1_125_521">
<rect width="63.99" height="63.99" fill="white" transform="translate(-0.0100021 0.285156)"/>
</clipPath>
</defs>
</svg>
